<svg width="22" height="22" viewBox="0 0 22 22" fill="none" xmlns="http://www.w3.org/2000/svg">
<path d="M18.1269 12.8731C18.1288 13.1789 18.0359 13.4778 17.861 13.7286C17.686 13.9794 17.4377 14.1699 17.15 14.2737L12.3144 16.0606L10.5332 20.9C10.4277 21.1865 10.2368 21.4338 9.98638 21.6085C9.73592 21.7832 9.43791 21.8769 9.13254 21.8769C8.82718 21.8769 8.52917 21.7832 8.27871 21.6085C8.02825 21.4338 7.8374 21.1865 7.73192 20.9L5.93942 16.0606L1.10004 14.2793C0.813478 14.1739 0.566163 13.983 0.391468 13.7326C0.216774 13.4821 0.123108 13.1841 0.123108 12.8787C0.123108 12.5734 0.216774 12.2753 0.391468 12.0249C0.566163 11.7744 0.813478 11.5836 1.10004 11.4781L5.93942 9.68559L7.72067 4.84622C7.82615 4.55965 8.017 4.31234 8.26746 4.13764C8.51791 3.96295 8.81593 3.86928 9.12129 3.86928C9.42666 3.86928 9.72467 3.96295 9.97513 4.13764C10.2256 4.31234 10.4164 4.55965 10.5219 4.84622L12.3144 9.68559L17.1538 11.4668C17.4416 11.5716 17.6898 11.7632 17.8641 12.0151C18.0384 12.267 18.1303 12.5668 18.1269 12.8731ZM12.8769 3.87309H14.3769V5.37309C14.3769 5.57201 14.4559 5.76277 14.5966 5.90342C14.7372 6.04407 14.928 6.12309 15.1269 6.12309C15.3258 6.12309 15.5166 6.04407 15.6572 5.90342C15.7979 5.76277 15.8769 5.57201 15.8769 5.37309V3.87309H17.3769C17.5758 3.87309 17.7666 3.79407 17.9072 3.65342C18.0479 3.51277 18.1269 3.32201 18.1269 3.12309C18.1269 2.92418 18.0479 2.73341 17.9072 2.59276C17.7666 2.45211 17.5758 2.37309 17.3769 2.37309H15.8769V0.873093C15.8769 0.67418 15.7979 0.483415 15.6572 0.342763C15.5166 0.20211 15.3258 0.123093 15.1269 0.123093C14.928 0.123093 14.7372 0.20211 14.5966 0.342763C14.4559 0.483415 14.3769 0.67418 14.3769 0.873093V2.37309H12.8769C12.678 2.37309 12.4872 2.45211 12.3466 2.59276C12.2059 2.73341 12.1269 2.92418 12.1269 3.12309C12.1269 3.32201 12.2059 3.51277 12.3466 3.65342C12.4872 3.79407 12.678 3.87309 12.8769 3.87309ZM21.1269 6.87309H20.3769V6.12309C20.3769 5.92418 20.2979 5.73342 20.1572 5.59276C20.0166 5.45211 19.8258 5.37309 19.6269 5.37309C19.428 5.37309 19.2372 5.45211 19.0966 5.59276C18.9559 5.73342 18.8769 5.92418 18.8769 6.12309V6.87309H18.1269C17.928 6.87309 17.7372 6.95211 17.5966 7.09276C17.4559 7.23342 17.3769 7.42418 17.3769 7.62309C17.3769 7.82201 17.4559 8.01277 17.5966 8.15342C17.7372 8.29408 17.928 8.37309 18.1269 8.37309H18.8769V9.12309C18.8769 9.32201 18.9559 9.51277 19.0966 9.65342C19.2372 9.79408 19.428 9.87309 19.6269 9.87309C19.8258 9.87309 20.0166 9.79408 20.1572 9.65342C20.2979 9.51277 20.3769 9.32201 20.3769 9.12309V8.37309H21.1269C21.3258 8.37309 21.5166 8.29408 21.6572 8.15342C21.7979 8.01277 21.8769 7.82201 21.8769 7.62309C21.8769 7.42418 21.7979 7.23342 21.6572 7.09276C21.5166 6.95211 21.3258 6.87309 21.1269 6.87309Z" fill="url(#paint0_linear_3_97)"/>
<defs>
<linearGradient id="paint0_linear_3_97" x1="22.1231" y1="4.52995e-05" x2="0.123108" y2="22" gradientUnits="userSpaceOnUse">
<stop stop-color="#4B0FFF"/>
<stop offset="1" stop-color="#8D6BF2"/>
</linearGradient>
</defs>
</svg>
