<svg width="33" height="26" viewBox="0 0 33 26" fill="none" xmlns="http://www.w3.org/2000/svg">
<path d="M33 24.9167C33 25.204 32.8841 25.4795 32.6778 25.6827C32.4715 25.8859 32.1917 26 31.9 26H1.1C0.808262 26 0.528473 25.8859 0.322183 25.6827C0.115892 25.4795 0 25.204 0 24.9167C0 24.6294 0.115892 24.3538 0.322183 24.1507C0.528473 23.9475 0.808262 23.8334 1.1 23.8334H31.9C32.1917 23.8334 32.4715 23.9475 32.6778 24.1507C32.8841 24.3538 33 24.6294 33 24.9167ZM1.14125 10.0456C1.07582 9.81844 1.08757 9.57643 1.17469 9.35643C1.26181 9.13642 1.41955 8.95048 1.62388 8.82691L15.9239 0.160468C16.0972 0.0555471 16.2966 0 16.5 0C16.7034 0 16.9028 0.0555471 17.0761 0.160468L31.3761 8.82691C31.5805 8.95033 31.7384 9.13614 31.8256 9.35605C31.9129 9.57597 31.9249 9.81794 31.8596 10.0452C31.7944 10.2724 31.6556 10.4724 31.4643 10.6147C31.273 10.7571 31.0398 10.834 30.8 10.8337H27.5V19.5002H29.7C29.9917 19.5002 30.2715 19.6143 30.4778 19.8175C30.6841 20.0206 30.8 20.2962 30.8 20.5835C30.8 20.8708 30.6841 21.1463 30.4778 21.3495C30.2715 21.5526 29.9917 21.6668 29.7 21.6668H3.3C3.00826 21.6668 2.72847 21.5526 2.52218 21.3495C2.31589 21.1463 2.2 20.8708 2.2 20.5835C2.2 20.2962 2.31589 20.0206 2.52218 19.8175C2.72847 19.6143 3.00826 19.5002 3.3 19.5002H5.5V10.8337H2.2C1.96046 10.8338 1.72744 10.7569 1.53634 10.6146C1.34525 10.4724 1.20652 10.2726 1.14125 10.0456ZM18.7 18.4169C18.7 18.7042 18.8159 18.9797 19.0222 19.1829C19.2285 19.386 19.5083 19.5002 19.8 19.5002C20.0917 19.5002 20.3715 19.386 20.5778 19.1829C20.7841 18.9797 20.9 18.7042 20.9 18.4169V11.917C20.9 11.6297 20.7841 11.3542 20.5778 11.151C20.3715 10.9479 20.0917 10.8337 19.8 10.8337C19.5083 10.8337 19.2285 10.9479 19.0222 11.151C18.8159 11.3542 18.7 11.6297 18.7 11.917V18.4169ZM12.1 18.4169C12.1 18.7042 12.2159 18.9797 12.4222 19.1829C12.6285 19.386 12.9083 19.5002 13.2 19.5002C13.4917 19.5002 13.7715 19.386 13.9778 19.1829C14.1841 18.9797 14.3 18.7042 14.3 18.4169V11.917C14.3 11.6297 14.1841 11.3542 13.9778 11.151C13.7715 10.9479 13.4917 10.8337 13.2 10.8337C12.9083 10.8337 12.6285 10.9479 12.4222 11.151C12.2159 11.3542 12.1 11.6297 12.1 11.917V18.4169Z" fill="url(#paint0_linear_1_247)"/>
<defs>
<linearGradient id="paint0_linear_1_247" x1="0" y1="0" x2="33.34" y2="26.4943" gradientUnits="userSpaceOnUse">
<stop stop-color="#88ABFF"/>
<stop offset="1" stop-color="#2868FF"/>
</linearGradient>
</defs>
</svg>
