<svg width="30" height="30" viewBox="0 0 30 30" fill="none" xmlns="http://www.w3.org/2000/svg">
<path d="M20.7692 18.4615C20.7692 19.0736 20.5261 19.6605 20.0933 20.0933C19.6606 20.5261 19.0736 20.7692 18.4615 20.7692H11.5385V16.1538H18.4615C19.0736 16.1538 19.6606 16.397 20.0933 16.8298C20.5261 17.2625 20.7692 17.8495 20.7692 18.4615ZM30 15C30 17.9667 29.1203 20.8668 27.472 23.3335C25.8238 25.8003 23.4811 27.7229 20.7403 28.8582C17.9994 29.9935 14.9834 30.2906 12.0737 29.7118C9.16394 29.133 6.49119 27.7044 4.3934 25.6066C2.29562 23.5088 0.867006 20.8361 0.288227 17.9264C-0.290551 15.0166 0.00649924 12.0006 1.14181 9.25975C2.27713 6.51886 4.19972 4.17618 6.66645 2.52796C9.13319 0.879735 12.0333 0 15 0C18.977 0.00419974 22.7898 1.5859 25.602 4.39804C28.4141 7.21017 29.9958 11.023 30 15ZM23.0769 18.4615C23.0768 17.6654 22.8708 16.8828 22.4788 16.1898C22.0868 15.4968 21.5222 14.917 20.8399 14.5067C21.342 13.9097 21.6845 13.1952 21.8356 12.43C21.9867 11.6647 21.9413 10.8736 21.7038 10.1307C21.4663 9.38767 21.0443 8.717 20.4773 8.1813C19.9103 7.64559 19.2168 7.26233 18.4615 7.06731V5.76923C18.4615 5.46321 18.34 5.16973 18.1236 4.95334C17.9072 4.73695 17.6137 4.61538 17.3077 4.61538C17.0017 4.61538 16.7082 4.73695 16.4918 4.95334C16.2754 5.16973 16.1539 5.46321 16.1539 5.76923V6.92308H13.8462V5.76923C13.8462 5.46321 13.7246 5.16973 13.5082 4.95334C13.2918 4.73695 12.9983 4.61538 12.6923 4.61538C12.3863 4.61538 12.0928 4.73695 11.8764 4.95334C11.66 5.16973 11.5385 5.46321 11.5385 5.76923V6.92308H9.23077C8.92476 6.92308 8.63127 7.04464 8.41488 7.26103C8.19849 7.47742 8.07693 7.7709 8.07693 8.07692C8.07693 8.38294 8.19849 8.67643 8.41488 8.89281C8.63127 9.1092 8.92476 9.23077 9.23077 9.23077V20.7692C8.92476 20.7692 8.63127 20.8908 8.41488 21.1072C8.19849 21.3236 8.07693 21.6171 8.07693 21.9231C8.07693 22.2291 8.19849 22.5226 8.41488 22.739C8.63127 22.9554 8.92476 23.0769 9.23077 23.0769H11.5385V24.2308C11.5385 24.5368 11.66 24.8303 11.8764 25.0467C12.0928 25.263 12.3863 25.3846 12.6923 25.3846C12.9983 25.3846 13.2918 25.263 13.5082 25.0467C13.7246 24.8303 13.8462 24.5368 13.8462 24.2308V23.0769H16.1539V24.2308C16.1539 24.5368 16.2754 24.8303 16.4918 25.0467C16.7082 25.263 17.0017 25.3846 17.3077 25.3846C17.6137 25.3846 17.9072 25.263 18.1236 25.0467C18.34 24.8303 18.4615 24.5368 18.4615 24.2308V23.0769C19.6856 23.0769 20.8596 22.5907 21.7251 21.7251C22.5907 20.8596 23.0769 19.6856 23.0769 18.4615ZM19.6154 11.5385C19.6154 10.9264 19.3723 10.3395 18.9395 9.90668C18.5067 9.4739 17.9197 9.23077 17.3077 9.23077H11.5385V13.8462H17.3077C17.9197 13.8462 18.5067 13.603 18.9395 13.1702C19.3723 12.7375 19.6154 12.1505 19.6154 11.5385Z" fill="url(#paint0_linear_1_249)"/>
<defs>
<linearGradient id="paint0_linear_1_249" x1="0" y1="0" x2="30.7692" y2="30.7692" gradientUnits="userSpaceOnUse">
<stop stop-color="#88ABFF"/>
<stop offset="1" stop-color="#2868FF"/>
</linearGradient>
</defs>
</svg>
