<svg width="30" height="21" viewBox="0 0 30 21" fill="none" xmlns="http://www.w3.org/2000/svg">
<path d="M27.8571 0H2.14286C1.57454 0 1.02949 0.221249 0.627628 0.615076C0.225765 1.0089 0 1.54305 0 2.1V18.9C0 19.457 0.225765 19.9911 0.627628 20.3849C1.02949 20.7787 1.57454 21 2.14286 21H27.8571C28.4255 21 28.9705 20.7787 29.3724 20.3849C29.7742 19.9911 30 19.457 30 18.9V2.1C30 1.54305 29.7742 1.0089 29.3724 0.615076C28.9705 0.221249 28.4255 0 27.8571 0ZM16.0714 16.8H13.9286C13.6444 16.8 13.3719 16.6894 13.171 16.4925C12.97 16.2955 12.8571 16.0285 12.8571 15.75C12.8571 15.4715 12.97 15.2044 13.171 15.0075C13.3719 14.8106 13.6444 14.7 13.9286 14.7H16.0714C16.3556 14.7 16.6281 14.8106 16.829 15.0075C17.03 15.2044 17.1429 15.4715 17.1429 15.75C17.1429 16.0285 17.03 16.2955 16.829 16.4925C16.6281 16.6894 16.3556 16.8 16.0714 16.8ZM24.6429 16.8H20.3571C20.073 16.8 19.8005 16.6894 19.5995 16.4925C19.3986 16.2955 19.2857 16.0285 19.2857 15.75C19.2857 15.4715 19.3986 15.2044 19.5995 15.0075C19.8005 14.8106 20.073 14.7 20.3571 14.7H24.6429C24.927 14.7 25.1995 14.8106 25.4005 15.0075C25.6014 15.2044 25.7143 15.4715 25.7143 15.75C25.7143 16.0285 25.6014 16.2955 25.4005 16.4925C25.1995 16.6894 24.927 16.8 24.6429 16.8ZM2.14286 5.25V2.1H27.8571V5.25H2.14286Z" fill="url(#paint0_linear_1_248)"/>
<defs>
<linearGradient id="paint0_linear_1_248" x1="0" y1="0" x2="29.5878" y2="21.5655" gradientUnits="userSpaceOnUse">
<stop stop-color="#88ABFF"/>
<stop offset="1" stop-color="#2868FF"/>
</linearGradient>
</defs>
</svg>
