<svg width="30" height="33" viewBox="0 0 30 33" fill="none" xmlns="http://www.w3.org/2000/svg">
<path d="M28.2182 11.0328C27.4128 9.93797 26.3754 9.05866 25.1897 8.46577C25.0879 6.18469 24.1596 4.03265 22.5974 2.45629C21.0352 0.879931 18.9591 0.0003155 16.8 0H7.79981C7.2646 8.57071e-05 6.74479 0.189374 6.32297 0.537779C5.90115 0.886185 5.60154 1.37372 5.47176 1.92288L0.0716383 24.769C-0.0167995 25.1432 -0.0234455 25.5339 0.0522052 25.9112C0.127856 26.2885 0.283814 26.6427 0.508233 26.9467C0.732653 27.2507 1.01963 27.4967 1.34737 27.6659C1.67511 27.8351 2.035 27.923 2.39969 27.9231H6.52478L6.07477 29.846C5.98639 30.2199 5.97969 30.6102 6.05518 30.9873C6.13067 31.3644 6.28636 31.7184 6.51044 32.0224C6.73452 32.3264 7.02112 32.5724 7.34848 32.7418C7.67584 32.9111 8.03538 32.9995 8.39982 33H13.1249C13.6596 32.9992 14.1787 32.8096 14.5999 32.4612C15.0211 32.1129 15.3203 31.6258 15.45 31.0771L16.8 25.3846H21.6001C23.1739 25.3846 24.716 24.9169 26.0507 24.0349C27.3854 23.1529 28.459 21.8921 29.1492 20.3962C29.8394 18.9002 30.1183 17.2293 29.9542 15.5738C29.7902 13.9183 29.1897 12.3449 28.2212 11.0328H28.2182ZM2.39969 25.3846L7.79981 2.53846H16.8C18.1962 2.53804 19.5487 3.0526 20.6248 3.99349C21.7009 4.93438 22.433 6.24271 22.6951 7.69312C22.3321 7.64244 21.9663 7.61647 21.6001 7.61539H13.1999C12.6645 7.61512 12.1443 7.80424 11.7222 8.15268C11.3001 8.50111 11.0002 8.98884 10.8704 9.53827L7.12779 25.3846H2.39969ZM27.4157 18.0389C27.0929 19.4119 26.3449 20.6311 25.291 21.5023C24.237 22.3734 22.9377 22.8465 21.6001 22.8462H16.8C16.2648 22.8462 15.745 23.0355 15.3232 23.3839C14.9013 23.7323 14.6017 24.2199 14.4719 24.769L13.1219 30.4615H8.39982L11.3999 17.7692H16.8C18.6452 17.7698 20.439 17.1266 21.9034 15.9394C23.3679 14.7522 24.4212 13.0872 24.9002 11.2025C25.442 11.5823 25.9222 12.0521 26.3222 12.5939C26.8867 13.3523 27.279 14.2376 27.4688 15.1817C27.6587 16.1257 27.641 17.1033 27.4172 18.0389H27.4157Z" fill="url(#paint0_linear_1_250)"/>
<defs>
<linearGradient id="paint0_linear_1_250" x1="0" y1="0" x2="32.1958" y2="32.0424" gradientUnits="userSpaceOnUse">
<stop stop-color="#88ABFF"/>
<stop offset="1" stop-color="#2868FF"/>
</linearGradient>
</defs>
</svg>
