<svg width="1200" height="384" viewBox="0 0 1200 384" fill="none" xmlns="http://www.w3.org/2000/svg">
<g clip-path="url(#clip0_3_511)">
<rect width="1200" height="384" rx="30" fill="#100F12"/>
<g filter="url(#filter0_f_3_511)">
<path d="M0 16C0 16 13.5 266.727 77 266.727C276.948 266.727 599 266.727 599 266.727C599 266.727 893.188 266.727 1107 266.727C1187.5 266.727 1200 16 1200 16V339H0V16Z" fill="#551CFF"/>
</g>
<g filter="url(#filter1_f_3_511)">
<path d="M-8 8C-8 8 5.68 325.384 70.0267 325.384C272.641 325.384 598.987 325.384 598.987 325.384C598.987 325.384 897.097 325.384 1113.76 325.384C1195.33 325.384 1208 9.01401 1208 9.01401V370H-8V8Z" fill="#8D6BF2"/>
</g>
<g style="mix-blend-mode:plus-lighter" filter="url(#filter2_f_3_511)">
<path d="M-34 99C-34 99 -19.7462 348.874 47.2992 348.874C258.411 348.874 598.444 348.874 598.444 348.874C598.444 348.874 909.058 348.874 1134.81 348.874C1219.8 348.874 1233 99.7983 1233 99.7983V384H-34V99Z" fill="white"/>
</g>
<g clip-path="url(#clip1_3_511)">
<path d="M355.148 111V80.45H344.248V75.5H371.448V80.45H360.548V111H355.148ZM372.998 111V75.5H378.298V90.4L377.648 90.3C377.948 88.8 378.498 87.5833 379.298 86.65C380.098 85.6833 381.081 84.9667 382.248 84.5C383.415 84.0333 384.698 83.8 386.098 83.8C388.031 83.8 389.665 84.2333 390.998 85.1C392.331 85.9333 393.331 87.1167 393.998 88.65C394.698 90.1833 395.048 91.9333 395.048 93.9V111H389.748V95.3C389.748 92.9 389.331 91.1333 388.498 90C387.698 88.8333 386.431 88.25 384.698 88.25C382.765 88.25 381.215 88.8667 380.048 90.1C378.881 91.3 378.298 93.0667 378.298 95.4V111H372.998ZM411.403 111.6C408.803 111.6 406.553 111.033 404.653 109.9C402.786 108.767 401.336 107.15 400.303 105.05C399.303 102.95 398.803 100.5 398.803 97.7C398.803 94.9 399.303 92.4667 400.303 90.4C401.336 88.3 402.786 86.6833 404.653 85.55C406.52 84.3833 408.72 83.8 411.253 83.8C413.653 83.8 415.77 84.3667 417.603 85.5C419.436 86.6 420.853 88.2 421.853 90.3C422.886 92.4 423.403 94.9333 423.403 97.9V99.25H404.303C404.436 101.85 405.12 103.8 406.353 105.1C407.62 106.4 409.32 107.05 411.453 107.05C413.02 107.05 414.32 106.683 415.353 105.95C416.386 105.217 417.103 104.233 417.503 103L423.003 103.35C422.303 105.817 420.92 107.817 418.853 109.35C416.82 110.85 414.336 111.6 411.403 111.6ZM404.303 95.25H417.803C417.636 92.8833 416.953 91.1333 415.753 90C414.586 88.8667 413.086 88.3 411.253 88.3C409.353 88.3 407.786 88.9 406.553 90.1C405.353 91.2667 404.603 92.9833 404.303 95.25ZM451.77 111.8C448.937 111.8 446.47 111.283 444.37 110.25C442.303 109.217 440.67 107.783 439.47 105.95C438.27 104.117 437.57 101.983 437.37 99.55L442.92 99.2C443.153 100.867 443.637 102.283 444.37 103.45C445.103 104.583 446.087 105.45 447.32 106.05C448.587 106.617 450.103 106.9 451.87 106.9C453.403 106.9 454.703 106.717 455.77 106.35C456.87 105.95 457.703 105.367 458.27 104.6C458.837 103.833 459.12 102.9 459.12 101.8C459.12 100.8 458.87 99.9167 458.37 99.15C457.903 98.35 456.987 97.6333 455.62 97C454.287 96.3333 452.32 95.6833 449.72 95.05C446.887 94.35 444.62 93.5833 442.92 92.75C441.22 91.9167 439.987 90.8833 439.22 89.65C438.487 88.3833 438.12 86.8333 438.12 85C438.12 82.9667 438.603 81.1833 439.57 79.65C440.57 78.0833 441.987 76.8667 443.82 76C445.653 75.1333 447.853 74.7 450.42 74.7C453.12 74.7 455.42 75.2 457.32 76.2C459.253 77.2 460.77 78.5667 461.87 80.3C463.003 82.0333 463.703 84.0167 463.97 86.25L458.42 86.55C458.253 85.1833 457.837 83.9833 457.17 82.95C456.503 81.8833 455.603 81.0667 454.47 80.5C453.337 79.9 451.953 79.6 450.32 79.6C448.253 79.6 446.62 80.0833 445.42 81.05C444.253 81.9833 443.67 83.2333 443.67 84.8C443.67 85.8 443.903 86.65 444.37 87.35C444.87 88.0167 445.737 88.6 446.97 89.1C448.237 89.6 450.02 90.1333 452.32 90.7C455.387 91.4 457.82 92.2667 459.62 93.3C461.453 94.3 462.753 95.4833 463.52 96.85C464.287 98.2167 464.67 99.7667 464.67 101.5C464.67 103.6 464.12 105.433 463.02 107C461.953 108.533 460.453 109.717 458.52 110.55C456.587 111.383 454.337 111.8 451.77 111.8ZM469.635 111V84.4H474.485L474.635 91L474.035 90.8C474.335 89.3333 474.851 88.0833 475.585 87.05C476.351 86.0167 477.285 85.2167 478.385 84.65C479.485 84.0833 480.685 83.8 481.985 83.8C484.251 83.8 486.101 84.45 487.535 85.75C488.968 87.0167 489.868 88.7667 490.235 91H489.385C489.685 89.4333 490.185 88.1333 490.885 87.1C491.618 86.0333 492.551 85.2167 493.685 84.65C494.818 84.0833 496.101 83.8 497.535 83.8C499.401 83.8 500.985 84.2 502.285 85C503.618 85.7667 504.618 86.9 505.285 88.4C505.985 89.9 506.335 91.7333 506.335 93.9V111H501.035V95.2C501.035 92.9 500.618 91.1667 499.785 90C498.951 88.8333 497.685 88.25 495.985 88.25C494.885 88.25 493.918 88.5333 493.085 89.1C492.251 89.6667 491.601 90.4833 491.135 91.55C490.701 92.6167 490.485 93.9 490.485 95.4V111H485.435V95.4C485.435 93.1333 485.051 91.3833 484.285 90.15C483.551 88.8833 482.285 88.25 480.485 88.25C479.351 88.25 478.368 88.5333 477.535 89.1C476.735 89.6667 476.101 90.5 475.635 91.6C475.168 92.6667 474.935 93.9333 474.935 95.4V111H469.635ZM519.286 111.6C516.519 111.6 514.303 110.967 512.636 109.7C511.003 108.433 510.186 106.65 510.186 104.35C510.186 102.05 510.869 100.267 512.236 99C513.636 97.7 515.786 96.7667 518.686 96.2L527.836 94.45C527.836 92.3833 527.353 90.85 526.386 89.85C525.419 88.8167 523.986 88.3 522.086 88.3C520.386 88.3 519.053 88.6833 518.086 89.45C517.119 90.1833 516.453 91.2833 516.086 92.75L510.636 92.4C511.136 89.7333 512.369 87.6333 514.336 86.1C516.336 84.5667 518.919 83.8 522.086 83.8C525.686 83.8 528.419 84.7667 530.286 86.7C532.186 88.6 533.136 91.2833 533.136 94.75V105.1C533.136 105.733 533.236 106.183 533.436 106.45C533.669 106.683 534.036 106.8 534.536 106.8H535.486V111C535.319 111.033 535.053 111.067 534.686 111.1C534.319 111.133 533.936 111.15 533.536 111.15C532.403 111.15 531.419 110.967 530.586 110.6C529.786 110.233 529.186 109.633 528.786 108.8C528.386 107.933 528.186 106.783 528.186 105.35L528.736 105.6C528.469 106.767 527.886 107.8 526.986 108.7C526.119 109.6 525.003 110.317 523.636 110.85C522.303 111.35 520.853 111.6 519.286 111.6ZM520.136 107.4C521.736 107.4 523.103 107.1 524.236 106.5C525.369 105.867 526.253 105 526.886 103.9C527.519 102.8 527.836 101.55 527.836 100.15V98.45L520.036 99.95C518.436 100.25 517.303 100.733 516.636 101.4C516.003 102.033 515.686 102.85 515.686 103.85C515.686 104.983 516.069 105.867 516.836 106.5C517.636 107.1 518.736 107.4 520.136 107.4ZM538.461 111V84.4H543.311L543.511 91.45L543.061 91.3C543.428 88.9 544.161 87.15 545.261 86.05C546.394 84.95 547.911 84.4 549.811 84.4H552.361V89.15H549.811C548.478 89.15 547.361 89.3667 546.461 89.8C545.561 90.2333 544.878 90.9 544.411 91.8C543.978 92.7 543.761 93.8667 543.761 95.3V111H538.461ZM564.641 111C562.108 111 560.241 110.417 559.041 109.25C557.841 108.083 557.241 106.267 557.241 103.8V78.15H562.541V103.4C562.541 104.633 562.808 105.483 563.341 105.95C563.875 106.417 564.691 106.65 565.791 106.65H569.591V111H564.641ZM553.191 88.75V84.4H569.591V88.75H553.191ZM583.667 111.6C581.067 111.6 578.817 111.033 576.917 109.9C575.05 108.767 573.6 107.15 572.567 105.05C571.567 102.95 571.067 100.5 571.067 97.7C571.067 94.9 571.567 92.4667 572.567 90.4C573.6 88.3 575.05 86.6833 576.917 85.55C578.783 84.3833 580.983 83.8 583.517 83.8C585.917 83.8 588.033 84.3667 589.867 85.5C591.7 86.6 593.117 88.2 594.117 90.3C595.15 92.4 595.667 94.9333 595.667 97.9V99.25H576.567C576.7 101.85 577.383 103.8 578.617 105.1C579.883 106.4 581.583 107.05 583.717 107.05C585.283 107.05 586.583 106.683 587.617 105.95C588.65 105.217 589.367 104.233 589.767 103L595.267 103.35C594.567 105.817 593.183 107.817 591.117 109.35C589.083 110.85 586.6 111.6 583.667 111.6ZM576.567 95.25H590.067C589.9 92.8833 589.217 91.1333 588.017 90C586.85 88.8667 585.35 88.3 583.517 88.3C581.617 88.3 580.05 88.9 578.817 90.1C577.617 91.2667 576.867 92.9833 576.567 95.25ZM599.537 111V84.4H604.387L604.587 91.45L604.137 91.3C604.504 88.9 605.237 87.15 606.337 86.05C607.47 84.95 608.987 84.4 610.887 84.4H613.437V89.15H610.887C609.554 89.15 608.437 89.3667 607.537 89.8C606.637 90.2333 605.954 90.9 605.487 91.8C605.054 92.7 604.837 93.8667 604.837 95.3V111H599.537ZM613.434 118.85L615.934 111H613.184V104.7H619.634V110.25L616.484 118.85H613.434ZM647.987 111.8C645.153 111.8 642.687 111.283 640.587 110.25C638.52 109.217 636.887 107.783 635.687 105.95C634.487 104.117 633.787 101.983 633.587 99.55L639.137 99.2C639.37 100.867 639.853 102.283 640.587 103.45C641.32 104.583 642.303 105.45 643.537 106.05C644.803 106.617 646.32 106.9 648.087 106.9C649.62 106.9 650.92 106.717 651.987 106.35C653.087 105.95 653.92 105.367 654.487 104.6C655.053 103.833 655.337 102.9 655.337 101.8C655.337 100.8 655.087 99.9167 654.587 99.15C654.12 98.35 653.203 97.6333 651.837 97C650.503 96.3333 648.537 95.6833 645.937 95.05C643.103 94.35 640.837 93.5833 639.137 92.75C637.437 91.9167 636.203 90.8833 635.437 89.65C634.703 88.3833 634.337 86.8333 634.337 85C634.337 82.9667 634.82 81.1833 635.787 79.65C636.787 78.0833 638.203 76.8667 640.037 76C641.87 75.1333 644.07 74.7 646.637 74.7C649.337 74.7 651.637 75.2 653.537 76.2C655.47 77.2 656.987 78.5667 658.087 80.3C659.22 82.0333 659.92 84.0167 660.187 86.25L654.637 86.55C654.47 85.1833 654.053 83.9833 653.387 82.95C652.72 81.8833 651.82 81.0667 650.687 80.5C649.553 79.9 648.17 79.6 646.537 79.6C644.47 79.6 642.837 80.0833 641.637 81.05C640.47 81.9833 639.887 83.2333 639.887 84.8C639.887 85.8 640.12 86.65 640.587 87.35C641.087 88.0167 641.953 88.6 643.187 89.1C644.453 89.6 646.237 90.1333 648.537 90.7C651.603 91.4 654.037 92.2667 655.837 93.3C657.67 94.3 658.97 95.4833 659.737 96.85C660.503 98.2167 660.887 99.7667 660.887 101.5C660.887 103.6 660.337 105.433 659.237 107C658.17 108.533 656.67 109.717 654.737 110.55C652.803 111.383 650.553 111.8 647.987 111.8ZM673.692 111.6C670.926 111.6 668.709 110.967 667.042 109.7C665.409 108.433 664.592 106.65 664.592 104.35C664.592 102.05 665.276 100.267 666.642 99C668.042 97.7 670.192 96.7667 673.092 96.2L682.242 94.45C682.242 92.3833 681.759 90.85 680.792 89.85C679.826 88.8167 678.392 88.3 676.492 88.3C674.792 88.3 673.459 88.6833 672.492 89.45C671.526 90.1833 670.859 91.2833 670.492 92.75L665.042 92.4C665.542 89.7333 666.776 87.6333 668.742 86.1C670.742 84.5667 673.326 83.8 676.492 83.8C680.092 83.8 682.826 84.7667 684.692 86.7C686.592 88.6 687.542 91.2833 687.542 94.75V105.1C687.542 105.733 687.642 106.183 687.842 106.45C688.076 106.683 688.442 106.8 688.942 106.8H689.892V111C689.726 111.033 689.459 111.067 689.092 111.1C688.726 111.133 688.342 111.15 687.942 111.15C686.809 111.15 685.826 110.967 684.992 110.6C684.192 110.233 683.592 109.633 683.192 108.8C682.792 107.933 682.592 106.783 682.592 105.35L683.142 105.6C682.876 106.767 682.292 107.8 681.392 108.7C680.526 109.6 679.409 110.317 678.042 110.85C676.709 111.35 675.259 111.6 673.692 111.6ZM674.542 107.4C676.142 107.4 677.509 107.1 678.642 106.5C679.776 105.867 680.659 105 681.292 103.9C681.926 102.8 682.242 101.55 682.242 100.15V98.45L674.442 99.95C672.842 100.25 671.709 100.733 671.042 101.4C670.409 102.033 670.092 102.85 670.092 103.85C670.092 104.983 670.476 105.867 671.242 106.5C672.042 107.1 673.142 107.4 674.542 107.4ZM694.2 111V82.7C694.2 80.5 694.817 78.75 696.05 77.45C697.283 76.15 699.217 75.5 701.85 75.5H706.55V79.85H702.55C701.517 79.85 700.75 80.1333 700.25 80.7C699.75 81.2333 699.5 82 699.5 83V111H694.2ZM690.5 89.05V84.75H706.15V89.05H690.5ZM719.456 111.6C716.856 111.6 714.606 111.033 712.706 109.9C710.839 108.767 709.389 107.15 708.356 105.05C707.356 102.95 706.856 100.5 706.856 97.7C706.856 94.9 707.356 92.4667 708.356 90.4C709.389 88.3 710.839 86.6833 712.706 85.55C714.573 84.3833 716.773 83.8 719.306 83.8C721.706 83.8 723.823 84.3667 725.656 85.5C727.489 86.6 728.906 88.2 729.906 90.3C730.939 92.4 731.456 94.9333 731.456 97.9V99.25H712.356C712.489 101.85 713.173 103.8 714.406 105.1C715.673 106.4 717.373 107.05 719.506 107.05C721.073 107.05 722.373 106.683 723.406 105.95C724.439 105.217 725.156 104.233 725.556 103L731.056 103.35C730.356 105.817 728.973 107.817 726.906 109.35C724.873 110.85 722.389 111.6 719.456 111.6ZM712.356 95.25H725.856C725.689 92.8833 725.006 91.1333 723.806 90C722.639 88.8667 721.139 88.3 719.306 88.3C717.406 88.3 715.839 88.9 714.606 90.1C713.406 91.2667 712.656 92.9833 712.356 95.25ZM735.326 111V84.4H740.176L740.376 91.45L739.926 91.3C740.293 88.9 741.026 87.15 742.126 86.05C743.26 84.95 744.776 84.4 746.676 84.4H749.226V89.15H746.676C745.343 89.15 744.226 89.3667 743.326 89.8C742.426 90.2333 741.743 90.9 741.276 91.8C740.843 92.7 740.626 93.8667 740.626 95.3V111H735.326ZM771.712 111L762.312 75.5H768.062L774.962 103.55L781.862 75.5H787.362L794.262 103.55L801.112 75.5H806.962L797.512 111H791.212L784.612 85.1L778.012 111H771.712ZM816.011 111.6C813.244 111.6 811.027 110.967 809.361 109.7C807.727 108.433 806.911 106.65 806.911 104.35C806.911 102.05 807.594 100.267 808.961 99C810.361 97.7 812.511 96.7667 815.411 96.2L824.561 94.45C824.561 92.3833 824.077 90.85 823.111 89.85C822.144 88.8167 820.711 88.3 818.811 88.3C817.111 88.3 815.777 88.6833 814.811 89.45C813.844 90.1833 813.177 91.2833 812.811 92.75L807.361 92.4C807.861 89.7333 809.094 87.6333 811.061 86.1C813.061 84.5667 815.644 83.8 818.811 83.8C822.411 83.8 825.144 84.7667 827.011 86.7C828.911 88.6 829.861 91.2833 829.861 94.75V105.1C829.861 105.733 829.961 106.183 830.161 106.45C830.394 106.683 830.761 106.8 831.261 106.8H832.211V111C832.044 111.033 831.777 111.067 831.411 111.1C831.044 111.133 830.661 111.15 830.261 111.15C829.127 111.15 828.144 110.967 827.311 110.6C826.511 110.233 825.911 109.633 825.511 108.8C825.111 107.933 824.911 106.783 824.911 105.35L825.461 105.6C825.194 106.767 824.611 107.8 823.711 108.7C822.844 109.6 821.727 110.317 820.361 110.85C819.027 111.35 817.577 111.6 816.011 111.6ZM816.861 107.4C818.461 107.4 819.827 107.1 820.961 106.5C822.094 105.867 822.977 105 823.611 103.9C824.244 102.8 824.561 101.55 824.561 100.15V98.45L816.761 99.95C815.161 100.25 814.027 100.733 813.361 101.4C812.727 102.033 812.411 102.85 812.411 103.85C812.411 104.983 812.794 105.867 813.561 106.5C814.361 107.1 815.461 107.4 816.861 107.4ZM835.465 118.5V114.15H838.715C839.615 114.15 840.282 114.017 840.715 113.75C841.148 113.483 841.482 113.033 841.715 112.4L842.565 110.2H840.915L831.315 84.4H836.915L844.215 105.3L851.165 84.4H856.815L846.215 114.1C845.682 115.633 844.882 116.75 843.815 117.45C842.782 118.15 841.332 118.5 839.465 118.5H835.465ZM415.434 176C412.901 176 411.034 175.417 409.834 174.25C408.634 173.083 408.034 171.267 408.034 168.8V143.15H413.334V168.4C413.334 169.633 413.601 170.483 414.134 170.95C414.668 171.417 415.484 171.65 416.584 171.65H420.384V176H415.434ZM403.984 153.75V149.4H420.384V153.75H403.984ZM434.46 176.6C431.926 176.6 429.71 176.033 427.81 174.9C425.91 173.767 424.443 172.15 423.41 170.05C422.376 167.95 421.86 165.5 421.86 162.7C421.86 159.867 422.376 157.417 423.41 155.35C424.443 153.283 425.91 151.683 427.81 150.55C429.71 149.383 431.926 148.8 434.46 148.8C436.993 148.8 439.21 149.383 441.11 150.55C443.01 151.683 444.476 153.283 445.51 155.35C446.543 157.417 447.06 159.867 447.06 162.7C447.06 165.5 446.543 167.95 445.51 170.05C444.476 172.15 443.01 173.767 441.11 174.9C439.21 176.033 436.993 176.6 434.46 176.6ZM434.46 172C436.726 172 438.476 171.183 439.71 169.55C440.943 167.883 441.56 165.6 441.56 162.7C441.56 159.8 440.943 157.533 439.71 155.9C438.476 154.233 436.726 153.4 434.46 153.4C432.226 153.4 430.476 154.233 429.21 155.9C427.976 157.533 427.36 159.8 427.36 162.7C427.36 165.6 427.976 167.883 429.21 169.55C430.476 171.183 432.226 172 434.46 172ZM462.613 176V140.5H470.013L480.563 169.65L491.113 140.5H498.513V176H493.113V150L483.562 175.95H477.563L468.013 150V176H462.613ZM512.007 176.6C509.24 176.6 507.023 175.967 505.357 174.7C503.723 173.433 502.907 171.65 502.907 169.35C502.907 167.05 503.59 165.267 504.957 164C506.357 162.7 508.507 161.767 511.407 161.2L520.557 159.45C520.557 157.383 520.073 155.85 519.107 154.85C518.14 153.817 516.707 153.3 514.807 153.3C513.107 153.3 511.773 153.683 510.807 154.45C509.84 155.183 509.173 156.283 508.807 157.75L503.357 157.4C503.857 154.733 505.09 152.633 507.057 151.1C509.057 149.567 511.64 148.8 514.807 148.8C518.407 148.8 521.14 149.767 523.007 151.7C524.907 153.6 525.857 156.283 525.857 159.75V170.1C525.857 170.733 525.957 171.183 526.157 171.45C526.39 171.683 526.757 171.8 527.257 171.8H528.207V176C528.04 176.033 527.773 176.067 527.407 176.1C527.04 176.133 526.657 176.15 526.257 176.15C525.123 176.15 524.14 175.967 523.307 175.6C522.507 175.233 521.907 174.633 521.507 173.8C521.107 172.933 520.907 171.783 520.907 170.35L521.457 170.6C521.19 171.767 520.607 172.8 519.707 173.7C518.84 174.6 517.723 175.317 516.357 175.85C515.023 176.35 513.573 176.6 512.007 176.6ZM512.857 172.4C514.457 172.4 515.823 172.1 516.957 171.5C518.09 170.867 518.973 170 519.607 168.9C520.24 167.8 520.557 166.55 520.557 165.15V163.45L512.757 164.95C511.157 165.25 510.023 165.733 509.357 166.4C508.723 167.033 508.407 167.85 508.407 168.85C508.407 169.983 508.79 170.867 509.557 171.5C510.357 172.1 511.457 172.4 512.857 172.4ZM531.182 176V149.4H536.032L536.232 156.5L535.582 156.15C535.882 154.417 536.448 153.017 537.282 151.95C538.115 150.883 539.132 150.1 540.332 149.6C541.532 149.067 542.832 148.8 544.232 148.8C546.232 148.8 547.882 149.25 549.182 150.15C550.515 151.017 551.515 152.217 552.182 153.75C552.882 155.25 553.232 156.967 553.232 158.9V176H547.932V160.5C547.932 158.933 547.765 157.617 547.432 156.55C547.098 155.483 546.548 154.667 545.782 154.1C545.015 153.533 544.015 153.25 542.782 153.25C540.915 153.25 539.398 153.867 538.232 155.1C537.065 156.333 536.482 158.133 536.482 160.5V176H531.182ZM566.136 176.6C563.369 176.6 561.152 175.967 559.486 174.7C557.852 173.433 557.036 171.65 557.036 169.35C557.036 167.05 557.719 165.267 559.086 164C560.486 162.7 562.636 161.767 565.536 161.2L574.686 159.45C574.686 157.383 574.202 155.85 573.236 154.85C572.269 153.817 570.836 153.3 568.936 153.3C567.236 153.3 565.902 153.683 564.936 154.45C563.969 155.183 563.302 156.283 562.936 157.75L557.486 157.4C557.986 154.733 559.219 152.633 561.186 151.1C563.186 149.567 565.769 148.8 568.936 148.8C572.536 148.8 575.269 149.767 577.136 151.7C579.036 153.6 579.986 156.283 579.986 159.75V170.1C579.986 170.733 580.086 171.183 580.286 171.45C580.519 171.683 580.886 171.8 581.386 171.8H582.336V176C582.169 176.033 581.902 176.067 581.536 176.1C581.169 176.133 580.786 176.15 580.386 176.15C579.252 176.15 578.269 175.967 577.436 175.6C576.636 175.233 576.036 174.633 575.636 173.8C575.236 172.933 575.036 171.783 575.036 170.35L575.586 170.6C575.319 171.767 574.736 172.8 573.836 173.7C572.969 174.6 571.852 175.317 570.486 175.85C569.152 176.35 567.702 176.6 566.136 176.6ZM566.986 172.4C568.586 172.4 569.952 172.1 571.086 171.5C572.219 170.867 573.102 170 573.736 168.9C574.369 167.8 574.686 166.55 574.686 165.15V163.45L566.886 164.95C565.286 165.25 564.152 165.733 563.486 166.4C562.852 167.033 562.536 167.85 562.536 168.85C562.536 169.983 562.919 170.867 563.686 171.5C564.486 172.1 565.586 172.4 566.986 172.4ZM595.815 184.1C593.715 184.1 591.865 183.783 590.265 183.15C588.665 182.517 587.349 181.617 586.315 180.45C585.282 179.317 584.582 177.983 584.215 176.45L589.715 176.1C590.082 177.2 590.715 178.067 591.615 178.7C592.549 179.367 593.949 179.7 595.815 179.7C598.015 179.7 599.699 179.233 600.865 178.3C602.065 177.367 602.665 175.95 602.665 174.05V170.2C602.032 171.567 601.015 172.65 599.615 173.45C598.215 174.25 596.649 174.65 594.915 174.65C592.682 174.65 590.699 174.1 588.965 173C587.232 171.9 585.882 170.383 584.915 168.45C583.949 166.517 583.465 164.283 583.465 161.75C583.465 159.183 583.932 156.933 584.865 155C585.832 153.067 587.165 151.55 588.865 150.45C590.599 149.35 592.549 148.8 594.715 148.8C596.615 148.8 598.282 149.233 599.715 150.1C601.182 150.967 602.232 152.133 602.865 153.6V149.4H607.965V173.9C607.965 176.1 607.465 177.95 606.465 179.45C605.499 180.983 604.099 182.133 602.265 182.9C600.465 183.7 598.315 184.1 595.815 184.1ZM595.765 170.15C597.832 170.15 599.482 169.4 600.715 167.9C601.982 166.4 602.632 164.333 602.665 161.7C602.699 159.967 602.432 158.483 601.865 157.25C601.299 155.983 600.482 155.017 599.415 154.35C598.382 153.65 597.165 153.3 595.765 153.3C593.599 153.3 591.915 154.067 590.715 155.6C589.549 157.1 588.965 159.133 588.965 161.7C588.965 164.3 589.565 166.367 590.765 167.9C591.999 169.4 593.665 170.15 595.765 170.15ZM624.448 176.6C621.848 176.6 619.598 176.033 617.698 174.9C615.831 173.767 614.381 172.15 613.348 170.05C612.348 167.95 611.848 165.5 611.848 162.7C611.848 159.9 612.348 157.467 613.348 155.4C614.381 153.3 615.831 151.683 617.698 150.55C619.565 149.383 621.765 148.8 624.298 148.8C626.698 148.8 628.815 149.367 630.648 150.5C632.481 151.6 633.898 153.2 634.898 155.3C635.931 157.4 636.448 159.933 636.448 162.9V164.25H617.348C617.481 166.85 618.165 168.8 619.398 170.1C620.665 171.4 622.365 172.05 624.498 172.05C626.065 172.05 627.365 171.683 628.398 170.95C629.431 170.217 630.148 169.233 630.548 168L636.048 168.35C635.348 170.817 633.965 172.817 631.898 174.35C629.865 175.85 627.381 176.6 624.448 176.6ZM617.348 160.25H630.848C630.681 157.883 629.998 156.133 628.798 155C627.631 153.867 626.131 153.3 624.298 153.3C622.398 153.3 620.831 153.9 619.598 155.1C618.398 156.267 617.648 157.983 617.348 160.25ZM666.115 176.8C662.915 176.8 660.098 176.067 657.665 174.6C655.232 173.1 653.332 170.967 651.965 168.2C650.598 165.433 649.915 162.133 649.915 158.3C649.915 154.5 650.582 151.217 651.915 148.45C653.282 145.65 655.182 143.5 657.615 142C660.048 140.467 662.898 139.7 666.165 139.7C670.565 139.7 673.982 140.8 676.415 143C678.848 145.2 680.432 148.25 681.165 152.15L675.515 152.45C675.048 150.017 674.048 148.117 672.515 146.75C670.982 145.35 668.865 144.65 666.165 144.65C663.998 144.65 662.115 145.2 660.515 146.3C658.948 147.4 657.715 148.967 656.815 151C655.948 153.033 655.515 155.467 655.515 158.3C655.515 161.133 655.948 163.567 656.815 165.6C657.715 167.633 658.965 169.183 660.565 170.25C662.165 171.317 664.015 171.85 666.115 171.85C668.982 171.85 671.198 171.1 672.765 169.6C674.365 168.067 675.365 165.967 675.765 163.3L681.415 163.6C680.982 166.3 680.115 168.633 678.815 170.6C677.515 172.567 675.798 174.1 673.665 175.2C671.532 176.267 669.015 176.8 666.115 176.8ZM685.219 176V149.4H690.069L690.269 156.45L689.819 156.3C690.185 153.9 690.919 152.15 692.019 151.05C693.152 149.95 694.669 149.4 696.569 149.4H699.119V154.15H696.569C695.235 154.15 694.119 154.367 693.219 154.8C692.319 155.233 691.635 155.9 691.169 156.8C690.735 157.7 690.519 158.867 690.519 160.3V176H685.219ZM703.676 183.5V179.15H706.926C707.826 179.15 708.492 179.017 708.926 178.75C709.359 178.483 709.692 178.033 709.926 177.4L710.776 175.2H709.126L699.526 149.4H705.126L712.426 170.3L719.376 149.4H725.026L714.426 179.1C713.892 180.633 713.092 181.75 712.026 182.45C710.992 183.15 709.542 183.5 707.676 183.5H703.676ZM727.141 183.5V149.4H732.141L732.291 155.1L731.691 154.8C732.357 152.833 733.457 151.35 734.991 150.35C736.524 149.317 738.291 148.8 740.291 148.8C742.891 148.8 745.024 149.45 746.691 150.75C748.391 152.017 749.641 153.7 750.441 155.8C751.274 157.9 751.691 160.2 751.691 162.7C751.691 165.2 751.274 167.5 750.441 169.6C749.641 171.7 748.391 173.4 746.691 174.7C745.024 175.967 742.891 176.6 740.291 176.6C738.957 176.6 737.707 176.367 736.541 175.9C735.374 175.433 734.374 174.783 733.541 173.95C732.741 173.083 732.174 172.067 731.841 170.9L732.441 170.3V183.5H727.141ZM739.341 172C741.474 172 743.141 171.183 744.341 169.55C745.574 167.917 746.191 165.633 746.191 162.7C746.191 159.767 745.574 157.483 744.341 155.85C743.141 154.217 741.474 153.4 739.341 153.4C737.941 153.4 736.724 153.75 735.691 154.45C734.657 155.117 733.857 156.15 733.291 157.55C732.724 158.95 732.441 160.667 732.441 162.7C732.441 164.733 732.707 166.45 733.241 167.85C733.807 169.25 734.607 170.3 735.641 171C736.707 171.667 737.941 172 739.341 172ZM764.796 176C762.262 176 760.396 175.417 759.196 174.25C757.996 173.083 757.396 171.267 757.396 168.8V143.15H762.696V168.4C762.696 169.633 762.962 170.483 763.496 170.95C764.029 171.417 764.846 171.65 765.946 171.65H769.746V176H764.796ZM753.346 153.75V149.4H769.746V153.75H753.346ZM783.821 176.6C781.288 176.6 779.071 176.033 777.171 174.9C775.271 173.767 773.804 172.15 772.771 170.05C771.738 167.95 771.221 165.5 771.221 162.7C771.221 159.867 771.738 157.417 772.771 155.35C773.804 153.283 775.271 151.683 777.171 150.55C779.071 149.383 781.288 148.8 783.821 148.8C786.354 148.8 788.571 149.383 790.471 150.55C792.371 151.683 793.838 153.283 794.871 155.35C795.904 157.417 796.421 159.867 796.421 162.7C796.421 165.5 795.904 167.95 794.871 170.05C793.838 172.15 792.371 173.767 790.471 174.9C788.571 176.033 786.354 176.6 783.821 176.6ZM783.821 172C786.088 172 787.838 171.183 789.071 169.55C790.304 167.883 790.921 165.6 790.921 162.7C790.921 159.8 790.304 157.533 789.071 155.9C787.838 154.233 786.088 153.4 783.821 153.4C781.588 153.4 779.838 154.233 778.571 155.9C777.338 157.533 776.721 159.8 776.721 162.7C776.721 165.6 777.338 167.883 778.571 169.55C779.838 171.183 781.588 172 783.821 172Z" fill="white"/>
<path d="M409.816 220C409.66 219.522 409.454 219.093 409.198 218.714C408.947 218.331 408.646 218.004 408.296 217.734C407.95 217.464 407.557 217.259 407.117 217.116C406.677 216.974 406.194 216.903 405.668 216.903C404.806 216.903 404.023 217.126 403.317 217.571C402.612 218.016 402.051 218.672 401.634 219.538C401.217 220.405 401.009 221.468 401.009 222.727C401.009 223.987 401.22 225.05 401.641 225.916C402.063 226.783 402.633 227.438 403.353 227.884C404.073 228.329 404.882 228.551 405.782 228.551C406.615 228.551 407.349 228.374 407.983 228.018C408.623 227.659 409.12 227.152 409.475 226.499C409.835 225.84 410.015 225.066 410.015 224.176L410.555 224.29H406.18V222.727H411.719V224.29C411.719 225.488 411.464 226.529 410.952 227.415C410.446 228.3 409.745 228.987 408.85 229.474C407.96 229.957 406.937 230.199 405.782 230.199C404.494 230.199 403.362 229.896 402.387 229.29C401.416 228.684 400.659 227.822 400.114 226.705C399.574 225.587 399.305 224.261 399.305 222.727C399.305 221.577 399.458 220.542 399.766 219.624C400.079 218.7 400.519 217.914 401.087 217.266C401.655 216.617 402.328 216.12 403.104 215.774C403.881 215.429 404.735 215.256 405.668 215.256C406.435 215.256 407.15 215.372 407.813 215.604C408.481 215.831 409.075 216.155 409.596 216.577C410.121 216.993 410.559 217.493 410.91 218.075C411.26 218.653 411.501 219.295 411.634 220H409.816ZM418.683 230.227C417.631 230.227 416.725 229.995 415.962 229.531C415.205 229.062 414.62 228.409 414.208 227.571C413.801 226.728 413.597 225.748 413.597 224.631C413.597 223.513 413.801 222.528 414.208 221.676C414.62 220.819 415.193 220.152 415.927 219.673C416.666 219.19 417.527 218.949 418.512 218.949C419.08 218.949 419.641 219.044 420.195 219.233C420.749 219.422 421.254 219.73 421.708 220.156C422.163 220.578 422.525 221.136 422.795 221.832C423.065 222.528 423.2 223.385 423.2 224.403V225.114H414.791V223.665H421.495C421.495 223.049 421.372 222.5 421.126 222.017C420.884 221.534 420.539 221.153 420.089 220.874C419.644 220.594 419.118 220.455 418.512 220.455C417.844 220.455 417.267 220.62 416.779 220.952C416.296 221.278 415.925 221.705 415.664 222.23C415.404 222.756 415.273 223.319 415.273 223.92V224.886C415.273 225.71 415.416 226.409 415.7 226.982C415.988 227.55 416.389 227.983 416.9 228.281C417.411 228.575 418.005 228.722 418.683 228.722C419.123 228.722 419.521 228.66 419.876 228.537C420.236 228.409 420.546 228.22 420.806 227.969C421.067 227.713 421.268 227.396 421.41 227.017L423.029 227.472C422.859 228.021 422.572 228.504 422.17 228.92C421.767 229.332 421.27 229.654 420.678 229.886C420.086 230.114 419.421 230.227 418.683 230.227ZM430.094 219.091V220.511H424.44V219.091H430.094ZM426.088 216.477H427.764V226.875C427.764 227.348 427.833 227.704 427.97 227.94C428.112 228.172 428.292 228.329 428.51 228.409C428.732 228.485 428.967 228.523 429.213 228.523C429.398 228.523 429.549 228.513 429.668 228.494C429.786 228.471 429.881 228.452 429.952 228.438L430.293 229.943C430.179 229.986 430.02 230.028 429.817 230.071C429.613 230.118 429.355 230.142 429.043 230.142C428.569 230.142 428.105 230.04 427.65 229.837C427.201 229.633 426.827 229.323 426.528 228.906C426.235 228.49 426.088 227.964 426.088 227.33V216.477ZM439.912 230L436.588 219.091H438.349L440.707 227.443H440.821L443.15 219.091H444.94L447.241 227.415H447.355L449.713 219.091H451.474L448.15 230H446.502L444.116 221.619H443.946L441.559 230H439.912ZM457.351 230.227C456.366 230.227 455.502 229.993 454.758 229.524C454.02 229.055 453.442 228.4 453.025 227.557C452.613 226.714 452.407 225.729 452.407 224.602C452.407 223.466 452.613 222.474 453.025 221.626C453.442 220.779 454.02 220.121 454.758 219.652C455.502 219.183 456.366 218.949 457.351 218.949C458.336 218.949 459.197 219.183 459.936 219.652C460.679 220.121 461.257 220.779 461.669 221.626C462.086 222.474 462.294 223.466 462.294 224.602C462.294 225.729 462.086 226.714 461.669 227.557C461.257 228.4 460.679 229.055 459.936 229.524C459.197 229.993 458.336 230.227 457.351 230.227ZM457.351 228.722C458.099 228.722 458.714 228.53 459.197 228.146C459.68 227.763 460.038 227.259 460.27 226.634C460.502 226.009 460.618 225.331 460.618 224.602C460.618 223.873 460.502 223.194 460.27 222.564C460.038 221.934 459.68 221.425 459.197 221.037C458.714 220.649 458.099 220.455 457.351 220.455C456.603 220.455 455.987 220.649 455.504 221.037C455.021 221.425 454.664 221.934 454.432 222.564C454.2 223.194 454.084 223.873 454.084 224.602C454.084 225.331 454.2 226.009 454.432 226.634C454.664 227.259 455.021 227.763 455.504 228.146C455.987 228.53 456.603 228.722 457.351 228.722ZM464.452 230V219.091H466.072V220.739H466.185C466.384 220.199 466.744 219.761 467.265 219.425C467.786 219.089 468.373 218.92 469.026 218.92C469.149 218.92 469.303 218.923 469.488 218.928C469.673 218.932 469.812 218.939 469.907 218.949V220.653C469.85 220.639 469.72 220.618 469.516 220.589C469.318 220.556 469.107 220.54 468.884 220.54C468.354 220.54 467.88 220.651 467.464 220.874C467.052 221.091 466.725 221.394 466.484 221.783C466.247 222.166 466.129 222.604 466.129 223.097V230H464.452ZM473.17 215.455V230H471.494V215.455H473.17ZM479.959 230.227C479.05 230.227 478.248 229.998 477.552 229.538C476.856 229.074 476.311 228.421 475.918 227.578C475.525 226.731 475.329 225.729 475.329 224.574C475.329 223.428 475.525 222.434 475.918 221.591C476.311 220.748 476.858 220.097 477.559 219.638C478.259 219.179 479.069 218.949 479.988 218.949C480.698 218.949 481.259 219.067 481.671 219.304C482.088 219.536 482.405 219.801 482.623 220.099C482.845 220.393 483.018 220.634 483.141 220.824H483.283V215.455H484.959V230H483.34V228.324H483.141C483.018 228.523 482.843 228.774 482.616 229.077C482.388 229.375 482.064 229.643 481.643 229.879C481.221 230.111 480.66 230.227 479.959 230.227ZM480.187 228.722C480.859 228.722 481.427 228.546 481.891 228.196C482.355 227.841 482.708 227.351 482.949 226.726C483.191 226.096 483.312 225.369 483.312 224.545C483.312 223.731 483.193 223.018 482.956 222.408C482.72 221.792 482.369 221.314 481.905 220.973C481.441 220.627 480.868 220.455 480.187 220.455C479.476 220.455 478.884 220.637 478.411 221.001C477.942 221.361 477.589 221.851 477.353 222.472C477.121 223.087 477.005 223.778 477.005 224.545C477.005 225.322 477.123 226.027 477.36 226.662C477.601 227.292 477.956 227.794 478.425 228.168C478.899 228.537 479.486 228.722 480.187 228.722ZM494.112 222.983V224.545H487.748V222.983H494.112ZM501.093 230.227C500.07 230.227 499.189 229.986 498.451 229.503C497.712 229.02 497.144 228.355 496.746 227.507C496.349 226.66 496.15 225.691 496.15 224.602C496.15 223.494 496.353 222.517 496.76 221.669C497.172 220.817 497.745 220.152 498.479 219.673C499.218 219.19 500.08 218.949 501.064 218.949C501.831 218.949 502.523 219.091 503.138 219.375C503.754 219.659 504.258 220.057 504.651 220.568C505.044 221.08 505.288 221.676 505.383 222.358H503.706C503.579 221.861 503.295 221.42 502.854 221.037C502.419 220.649 501.831 220.455 501.093 220.455C500.439 220.455 499.867 220.625 499.374 220.966C498.886 221.302 498.505 221.778 498.231 222.393C497.961 223.004 497.826 223.722 497.826 224.545C497.826 225.388 497.958 226.122 498.224 226.747C498.493 227.372 498.872 227.857 499.36 228.203C499.852 228.549 500.43 228.722 501.093 228.722C501.528 228.722 501.924 228.646 502.279 228.494C502.634 228.343 502.935 228.125 503.181 227.841C503.427 227.557 503.602 227.216 503.706 226.818H505.383C505.288 227.462 505.054 228.042 504.68 228.558C504.31 229.07 503.82 229.477 503.209 229.78C502.603 230.078 501.898 230.227 501.093 230.227ZM509.109 215.455V230H507.433V215.455H509.109ZM514.989 230.256C514.298 230.256 513.671 230.125 513.107 229.865C512.544 229.6 512.096 229.219 511.765 228.722C511.433 228.22 511.268 227.614 511.268 226.903C511.268 226.278 511.391 225.772 511.637 225.384C511.883 224.991 512.212 224.683 512.624 224.46C513.036 224.238 513.491 224.072 513.988 223.963C514.49 223.849 514.994 223.759 515.501 223.693C516.163 223.608 516.701 223.544 517.113 223.501C517.529 223.454 517.833 223.376 518.022 223.267C518.216 223.158 518.313 222.969 518.313 222.699V222.642C518.313 221.941 518.121 221.397 517.738 221.009C517.359 220.62 516.784 220.426 516.012 220.426C515.212 220.426 514.584 220.601 514.13 220.952C513.675 221.302 513.356 221.676 513.171 222.074L511.58 221.506C511.864 220.843 512.243 220.327 512.717 219.957C513.195 219.583 513.716 219.323 514.279 219.176C514.847 219.025 515.406 218.949 515.955 218.949C516.306 218.949 516.708 218.991 517.163 219.077C517.622 219.157 518.065 219.325 518.491 219.581C518.922 219.837 519.279 220.223 519.563 220.739C519.847 221.255 519.989 221.946 519.989 222.812V230H518.313V228.523H518.228C518.114 228.759 517.925 229.013 517.66 229.283C517.395 229.553 517.042 229.782 516.601 229.972C516.161 230.161 515.624 230.256 514.989 230.256ZM515.245 228.75C515.908 228.75 516.467 228.62 516.921 228.359C517.38 228.099 517.726 227.763 517.958 227.351C518.195 226.939 518.313 226.506 518.313 226.051V224.517C518.242 224.602 518.086 224.68 517.844 224.751C517.608 224.818 517.333 224.877 517.02 224.929C516.713 224.976 516.412 225.019 516.118 225.057C515.83 225.09 515.595 225.118 515.415 225.142C514.98 225.199 514.573 225.291 514.194 225.419C513.82 225.542 513.517 225.729 513.285 225.98C513.057 226.226 512.944 226.562 512.944 226.989C512.944 227.571 513.159 228.011 513.59 228.31C514.026 228.603 514.577 228.75 515.245 228.75ZM530.376 221.534L528.87 221.96C528.775 221.709 528.636 221.465 528.451 221.229C528.271 220.987 528.025 220.788 527.712 220.632C527.4 220.476 527 220.398 526.512 220.398C525.845 220.398 525.288 220.552 524.843 220.859C524.403 221.162 524.183 221.548 524.183 222.017C524.183 222.434 524.334 222.763 524.637 223.004C524.94 223.246 525.414 223.447 526.058 223.608L527.677 224.006C528.652 224.242 529.379 224.605 529.857 225.092C530.336 225.575 530.575 226.198 530.575 226.96C530.575 227.585 530.395 228.144 530.035 228.636C529.68 229.129 529.183 229.517 528.543 229.801C527.904 230.085 527.161 230.227 526.313 230.227C525.201 230.227 524.28 229.986 523.551 229.503C522.821 229.02 522.36 228.314 522.166 227.386L523.757 226.989C523.908 227.576 524.194 228.016 524.616 228.31C525.042 228.603 525.598 228.75 526.285 228.75C527.066 228.75 527.686 228.584 528.146 228.253C528.61 227.917 528.842 227.514 528.842 227.045C528.842 226.667 528.709 226.349 528.444 226.094C528.179 225.833 527.772 225.639 527.222 225.511L525.404 225.085C524.405 224.848 523.671 224.482 523.203 223.984C522.739 223.482 522.507 222.855 522.507 222.102C522.507 221.487 522.679 220.942 523.025 220.469C523.375 219.995 523.851 219.624 524.453 219.354C525.059 219.084 525.745 218.949 526.512 218.949C527.592 218.949 528.439 219.186 529.055 219.659C529.675 220.133 530.115 220.758 530.376 221.534ZM540.425 221.534L538.919 221.96C538.825 221.709 538.685 221.465 538.5 221.229C538.32 220.987 538.074 220.788 537.762 220.632C537.449 220.476 537.049 220.398 536.561 220.398C535.894 220.398 535.337 220.552 534.892 220.859C534.452 221.162 534.232 221.548 534.232 222.017C534.232 222.434 534.383 222.763 534.686 223.004C534.989 223.246 535.463 223.447 536.107 223.608L537.726 224.006C538.702 224.242 539.428 224.605 539.907 225.092C540.385 225.575 540.624 226.198 540.624 226.96C540.624 227.585 540.444 228.144 540.084 228.636C539.729 229.129 539.232 229.517 538.593 229.801C537.953 230.085 537.21 230.227 536.363 230.227C535.25 230.227 534.329 229.986 533.6 229.503C532.871 229.02 532.409 228.314 532.215 227.386L533.806 226.989C533.957 227.576 534.244 228.016 534.665 228.31C535.091 228.603 535.648 228.75 536.334 228.75C537.115 228.75 537.736 228.584 538.195 228.253C538.659 227.917 538.891 227.514 538.891 227.045C538.891 226.667 538.758 226.349 538.493 226.094C538.228 225.833 537.821 225.639 537.272 225.511L535.453 225.085C534.454 224.848 533.72 224.482 533.252 223.984C532.788 223.482 532.556 222.855 532.556 222.102C532.556 221.487 532.729 220.942 533.074 220.469C533.425 219.995 533.9 219.624 534.502 219.354C535.108 219.084 535.794 218.949 536.561 218.949C537.641 218.949 538.488 219.186 539.104 219.659C539.724 220.133 540.165 220.758 540.425 221.534ZM555.699 221.534L554.194 221.96C554.099 221.709 553.959 221.465 553.775 221.229C553.595 220.987 553.348 220.788 553.036 220.632C552.723 220.476 552.323 220.398 551.836 220.398C551.168 220.398 550.612 220.552 550.167 220.859C549.726 221.162 549.506 221.548 549.506 222.017C549.506 222.434 549.658 222.763 549.961 223.004C550.264 223.246 550.737 223.447 551.381 223.608L553 224.006C553.976 224.242 554.703 224.605 555.181 225.092C555.659 225.575 555.898 226.198 555.898 226.96C555.898 227.585 555.718 228.144 555.358 228.636C555.003 229.129 554.506 229.517 553.867 229.801C553.228 230.085 552.484 230.227 551.637 230.227C550.524 230.227 549.603 229.986 548.874 229.503C548.145 229.02 547.683 228.314 547.489 227.386L549.08 226.989C549.231 227.576 549.518 228.016 549.939 228.31C550.365 228.603 550.922 228.75 551.608 228.75C552.39 228.75 553.01 228.584 553.469 228.253C553.933 227.917 554.165 227.514 554.165 227.045C554.165 226.667 554.033 226.349 553.767 226.094C553.502 225.833 553.095 225.639 552.546 225.511L550.728 225.085C549.729 224.848 548.995 224.482 548.526 223.984C548.062 223.482 547.83 222.855 547.83 222.102C547.83 221.487 548.003 220.942 548.348 220.469C548.699 219.995 549.175 219.624 549.776 219.354C550.382 219.084 551.069 218.949 551.836 218.949C552.915 218.949 553.763 219.186 554.378 219.659C554.999 220.133 555.439 220.758 555.699 221.534ZM562.595 230.227C561.544 230.227 560.637 229.995 559.875 229.531C559.117 229.062 558.533 228.409 558.121 227.571C557.713 226.728 557.51 225.748 557.51 224.631C557.51 223.513 557.713 222.528 558.121 221.676C558.533 220.819 559.105 220.152 559.839 219.673C560.578 219.19 561.44 218.949 562.425 218.949C562.993 218.949 563.554 219.044 564.108 219.233C564.662 219.422 565.166 219.73 565.621 220.156C566.075 220.578 566.437 221.136 566.707 221.832C566.977 222.528 567.112 223.385 567.112 224.403V225.114H558.703V223.665H565.408C565.408 223.049 565.284 222.5 565.038 222.017C564.797 221.534 564.451 221.153 564.001 220.874C563.556 220.594 563.031 220.455 562.425 220.455C561.757 220.455 561.179 220.62 560.692 220.952C560.209 221.278 559.837 221.705 559.577 222.23C559.316 222.756 559.186 223.319 559.186 223.92V224.886C559.186 225.71 559.328 226.409 559.612 226.982C559.901 227.55 560.301 227.983 560.812 228.281C561.324 228.575 561.918 228.722 562.595 228.722C563.035 228.722 563.433 228.66 563.788 228.537C564.148 228.409 564.458 228.22 564.719 227.969C564.979 227.713 565.18 227.396 565.322 227.017L566.942 227.472C566.771 228.021 566.485 228.504 566.082 228.92C565.68 229.332 565.183 229.654 564.591 229.886C563.999 230.114 563.334 230.227 562.595 230.227ZM573.694 230.227C572.671 230.227 571.79 229.986 571.052 229.503C570.313 229.02 569.745 228.355 569.347 227.507C568.949 226.66 568.75 225.691 568.75 224.602C568.75 223.494 568.954 222.517 569.361 221.669C569.773 220.817 570.346 220.152 571.08 219.673C571.819 219.19 572.68 218.949 573.665 218.949C574.432 218.949 575.124 219.091 575.739 219.375C576.355 219.659 576.859 220.057 577.252 220.568C577.645 221.08 577.889 221.676 577.983 222.358H576.307C576.179 221.861 575.895 221.42 575.455 221.037C575.019 220.649 574.432 220.455 573.694 220.455C573.04 220.455 572.467 220.625 571.975 220.966C571.487 221.302 571.106 221.778 570.831 222.393C570.562 223.004 570.427 223.722 570.427 224.545C570.427 225.388 570.559 226.122 570.824 226.747C571.094 227.372 571.473 227.857 571.961 228.203C572.453 228.549 573.031 228.722 573.694 228.722C574.129 228.722 574.525 228.646 574.88 228.494C575.235 228.343 575.536 228.125 575.782 227.841C576.028 227.557 576.203 227.216 576.307 226.818H577.983C577.889 227.462 577.654 228.042 577.28 228.558C576.911 229.07 576.421 229.477 575.81 229.78C575.204 230.078 574.499 230.227 573.694 230.227ZM586.909 225.54V219.091H588.585V230H586.909V228.153H586.795C586.539 228.707 586.142 229.179 585.602 229.567C585.062 229.95 584.38 230.142 583.556 230.142C582.875 230.142 582.269 229.993 581.738 229.695C581.208 229.392 580.791 228.937 580.488 228.331C580.185 227.72 580.034 226.951 580.034 226.023V219.091H581.71V225.909C581.71 226.705 581.932 227.339 582.377 227.812C582.827 228.286 583.4 228.523 584.096 228.523C584.513 228.523 584.937 228.416 585.368 228.203C585.803 227.99 586.168 227.663 586.461 227.223C586.76 226.783 586.909 226.222 586.909 225.54ZM591.255 230V219.091H592.874V220.739H592.988C593.187 220.199 593.546 219.761 594.067 219.425C594.588 219.089 595.175 218.92 595.829 218.92C595.952 218.92 596.106 218.923 596.29 218.928C596.475 218.932 596.615 218.939 596.709 218.949V220.653C596.653 220.639 596.522 220.618 596.319 220.589C596.12 220.556 595.909 220.54 595.687 220.54C595.156 220.54 594.683 220.651 594.266 220.874C593.854 221.091 593.528 221.394 593.286 221.783C593.049 222.166 592.931 222.604 592.931 223.097V230H591.255ZM598.296 230V219.091H599.972V230H598.296ZM599.148 217.273C598.822 217.273 598.54 217.161 598.303 216.939C598.071 216.716 597.955 216.449 597.955 216.136C597.955 215.824 598.071 215.556 598.303 215.334C598.54 215.111 598.822 215 599.148 215C599.475 215 599.755 215.111 599.987 215.334C600.223 215.556 600.342 215.824 600.342 216.136C600.342 216.449 600.223 216.716 599.987 216.939C599.755 217.161 599.475 217.273 599.148 217.273ZM607.387 219.091V220.511H601.733V219.091H607.387ZM603.381 216.477H605.057V226.875C605.057 227.348 605.126 227.704 605.263 227.94C605.405 228.172 605.585 228.329 605.803 228.409C606.025 228.485 606.26 228.523 606.506 228.523C606.691 228.523 606.842 228.513 606.96 228.494C607.079 228.471 607.174 228.452 607.245 228.438L607.585 229.943C607.472 229.986 607.313 230.028 607.11 230.071C606.906 230.118 606.648 230.142 606.335 230.142C605.862 230.142 605.398 230.04 604.943 229.837C604.494 229.633 604.12 229.323 603.821 228.906C603.528 228.49 603.381 227.964 603.381 227.33V216.477ZM610.587 234.091C610.303 234.091 610.05 234.067 609.828 234.02C609.605 233.977 609.451 233.935 609.366 233.892L609.792 232.415C610.199 232.519 610.559 232.557 610.872 232.528C611.184 232.5 611.461 232.36 611.703 232.109C611.949 231.863 612.174 231.463 612.377 230.909L612.69 230.057L608.656 219.091H610.474L613.485 227.784H613.599L616.61 219.091H618.428L613.798 231.591C613.589 232.154 613.331 232.621 613.024 232.99C612.716 233.364 612.358 233.641 611.951 233.821C611.549 234.001 611.094 234.091 610.587 234.091ZM628.676 230.256C627.985 230.256 627.357 230.125 626.794 229.865C626.23 229.6 625.783 229.219 625.452 228.722C625.12 228.22 624.954 227.614 624.954 226.903C624.954 226.278 625.077 225.772 625.324 225.384C625.57 224.991 625.899 224.683 626.311 224.46C626.723 224.238 627.177 224.072 627.675 223.963C628.176 223.849 628.681 223.759 629.187 223.693C629.85 223.608 630.388 223.544 630.8 223.501C631.216 223.454 631.519 223.376 631.709 223.267C631.903 223.158 632 222.969 632 222.699V222.642C632 221.941 631.808 221.397 631.425 221.009C631.046 220.62 630.47 220.426 629.699 220.426C628.898 220.426 628.271 220.601 627.817 220.952C627.362 221.302 627.042 221.676 626.858 222.074L625.267 221.506C625.551 220.843 625.93 220.327 626.403 219.957C626.881 219.583 627.402 219.323 627.966 219.176C628.534 219.025 629.093 218.949 629.642 218.949C629.992 218.949 630.395 218.991 630.849 219.077C631.309 219.157 631.751 219.325 632.177 219.581C632.608 219.837 632.966 220.223 633.25 220.739C633.534 221.255 633.676 221.946 633.676 222.812V230H632V228.523H631.915C631.801 228.759 631.612 229.013 631.346 229.283C631.081 229.553 630.729 229.782 630.288 229.972C629.848 230.161 629.31 230.256 628.676 230.256ZM628.932 228.75C629.595 228.75 630.153 228.62 630.608 228.359C631.067 228.099 631.413 227.763 631.645 227.351C631.881 226.939 632 226.506 632 226.051V224.517C631.929 224.602 631.773 224.68 631.531 224.751C631.294 224.818 631.02 224.877 630.707 224.929C630.399 224.976 630.099 225.019 629.805 225.057C629.516 225.09 629.282 225.118 629.102 225.142C628.666 225.199 628.259 225.291 627.881 225.419C627.506 225.542 627.203 225.729 626.971 225.98C626.744 226.226 626.631 226.562 626.631 226.989C626.631 227.571 626.846 228.011 627.277 228.31C627.712 228.603 628.264 228.75 628.932 228.75ZM638.011 223.438V230H636.335V219.091H637.955V220.795H638.097C638.352 220.241 638.741 219.796 639.261 219.46C639.782 219.119 640.455 218.949 641.278 218.949C642.017 218.949 642.663 219.1 643.217 219.403C643.771 219.702 644.202 220.156 644.51 220.767C644.818 221.373 644.972 222.14 644.972 223.068V230H643.295V223.182C643.295 222.325 643.073 221.657 642.628 221.179C642.183 220.696 641.572 220.455 640.795 220.455C640.26 220.455 639.782 220.571 639.361 220.803C638.944 221.035 638.615 221.373 638.374 221.818C638.132 222.263 638.011 222.803 638.011 223.438ZM651.754 230.227C650.845 230.227 650.042 229.998 649.346 229.538C648.65 229.074 648.106 228.421 647.713 227.578C647.32 226.731 647.123 225.729 647.123 224.574C647.123 223.428 647.32 222.434 647.713 221.591C648.106 220.748 648.652 220.097 649.353 219.638C650.054 219.179 650.864 218.949 651.782 218.949C652.492 218.949 653.054 219.067 653.465 219.304C653.882 219.536 654.199 219.801 654.417 220.099C654.64 220.393 654.813 220.634 654.936 220.824H655.078V215.455H656.754V230H655.134V228.324H654.936C654.813 228.523 654.637 228.774 654.41 229.077C654.183 229.375 653.858 229.643 653.437 229.879C653.016 230.111 652.455 230.227 651.754 230.227ZM651.981 228.722C652.653 228.722 653.222 228.546 653.686 228.196C654.15 227.841 654.502 227.351 654.744 226.726C654.985 226.096 655.106 225.369 655.106 224.545C655.106 223.731 654.988 223.018 654.751 222.408C654.514 221.792 654.164 221.314 653.7 220.973C653.236 220.627 652.663 220.455 651.981 220.455C651.271 220.455 650.679 220.637 650.206 221.001C649.737 221.361 649.384 221.851 649.147 222.472C648.915 223.087 648.799 223.778 648.799 224.545C648.799 225.322 648.918 226.027 649.154 226.662C649.396 227.292 649.751 227.794 650.22 228.168C650.693 228.537 651.28 228.722 651.981 228.722ZM666.557 223.438V230H664.881V219.091H666.501V220.795H666.643C666.898 220.241 667.287 219.796 667.807 219.46C668.328 219.119 669.001 218.949 669.825 218.949C670.563 218.949 671.209 219.1 671.763 219.403C672.317 219.702 672.748 220.156 673.056 220.767C673.364 221.373 673.518 222.14 673.518 223.068V230H671.842V223.182C671.842 222.325 671.619 221.657 671.174 221.179C670.729 220.696 670.118 220.455 669.342 220.455C668.807 220.455 668.328 220.571 667.907 220.803C667.49 221.035 667.161 221.373 666.92 221.818C666.678 222.263 666.557 222.803 666.557 223.438ZM680.754 230.227C679.703 230.227 678.797 229.995 678.034 229.531C677.277 229.062 676.692 228.409 676.28 227.571C675.873 226.728 675.669 225.748 675.669 224.631C675.669 223.513 675.873 222.528 676.28 221.676C676.692 220.819 677.265 220.152 677.999 219.673C678.737 219.19 679.599 218.949 680.584 218.949C681.152 218.949 681.713 219.044 682.267 219.233C682.821 219.422 683.325 219.73 683.78 220.156C684.235 220.578 684.597 221.136 684.867 221.832C685.137 222.528 685.271 223.385 685.271 224.403V225.114H676.862V223.665H683.567C683.567 223.049 683.444 222.5 683.198 222.017C682.956 221.534 682.61 221.153 682.161 220.874C681.716 220.594 681.19 220.455 680.584 220.455C679.916 220.455 679.339 220.62 678.851 220.952C678.368 221.278 677.996 221.705 677.736 222.23C677.476 222.756 677.345 223.319 677.345 223.92V224.886C677.345 225.71 677.487 226.409 677.771 226.982C678.06 227.55 678.46 227.983 678.972 228.281C679.483 228.575 680.077 228.722 680.754 228.722C681.195 228.722 681.593 228.66 681.948 228.537C682.307 228.409 682.618 228.22 682.878 227.969C683.138 227.713 683.34 227.396 683.482 227.017L685.101 227.472C684.931 228.021 684.644 228.504 684.242 228.92C683.839 229.332 683.342 229.654 682.75 229.886C682.158 230.114 681.493 230.227 680.754 230.227ZM688.378 219.091L690.992 223.551L693.606 219.091H695.537L692.015 224.545L695.537 230H693.606L690.992 225.767L688.378 230H686.446L689.912 224.545L686.446 219.091H688.378ZM702.273 219.091V220.511H696.62V219.091H702.273ZM698.268 216.477H699.944V226.875C699.944 227.348 700.012 227.704 700.15 227.94C700.292 228.172 700.472 228.329 700.69 228.409C700.912 228.485 701.146 228.523 701.393 228.523C701.577 228.523 701.729 228.513 701.847 228.494C701.966 228.471 702.06 228.452 702.131 228.438L702.472 229.943C702.359 229.986 702.2 230.028 701.996 230.071C701.793 230.118 701.535 230.142 701.222 230.142C700.749 230.142 700.285 230.04 699.83 229.837C699.38 229.633 699.006 229.323 698.708 228.906C698.414 228.49 698.268 227.964 698.268 227.33V216.477ZM710.254 222.983V224.545H703.89V222.983H710.254ZM714.479 215.455V230H712.803V215.455H714.479ZM721.723 230.227C720.672 230.227 719.765 229.995 719.003 229.531C718.245 229.062 717.661 228.409 717.249 227.571C716.842 226.728 716.638 225.748 716.638 224.631C716.638 223.513 716.842 222.528 717.249 221.676C717.661 220.819 718.234 220.152 718.968 219.673C719.706 219.19 720.568 218.949 721.553 218.949C722.121 218.949 722.682 219.044 723.236 219.233C723.79 219.422 724.294 219.73 724.749 220.156C725.203 220.578 725.566 221.136 725.835 221.832C726.105 222.528 726.24 223.385 726.24 224.403V225.114H717.831V223.665H724.536C724.536 223.049 724.413 222.5 724.166 222.017C723.925 221.534 723.579 221.153 723.129 220.874C722.684 220.594 722.159 220.455 721.553 220.455C720.885 220.455 720.307 220.62 719.82 220.952C719.337 221.278 718.965 221.705 718.705 222.23C718.444 222.756 718.314 223.319 718.314 223.92V224.886C718.314 225.71 718.456 226.409 718.74 226.982C719.029 227.55 719.429 227.983 719.941 228.281C720.452 228.575 721.046 228.722 721.723 228.722C722.164 228.722 722.561 228.66 722.916 228.537C723.276 228.409 723.586 228.22 723.847 227.969C724.107 227.713 724.308 227.396 724.45 227.017L726.07 227.472C725.899 228.021 725.613 228.504 725.21 228.92C724.808 229.332 724.311 229.654 723.719 229.886C723.127 230.114 722.462 230.227 721.723 230.227ZM736.978 219.091L732.944 230H731.24L727.206 219.091H729.024L732.035 227.784H732.149L735.16 219.091H736.978ZM742.974 230.227C741.923 230.227 741.016 229.995 740.254 229.531C739.496 229.062 738.911 228.409 738.5 227.571C738.092 226.728 737.889 225.748 737.889 224.631C737.889 223.513 738.092 222.528 738.5 221.676C738.911 220.819 739.484 220.152 740.218 219.673C740.957 219.19 741.819 218.949 742.804 218.949C743.372 218.949 743.933 219.044 744.487 219.233C745.041 219.422 745.545 219.73 746 220.156C746.454 220.578 746.816 221.136 747.086 221.832C747.356 222.528 747.491 223.385 747.491 224.403V225.114H739.082V223.665H745.786C745.786 223.049 745.663 222.5 745.417 222.017C745.176 221.534 744.83 221.153 744.38 220.874C743.935 220.594 743.41 220.455 742.804 220.455C742.136 220.455 741.558 220.62 741.071 220.952C740.588 221.278 740.216 221.705 739.956 222.23C739.695 222.756 739.565 223.319 739.565 223.92V224.886C739.565 225.71 739.707 226.409 739.991 226.982C740.28 227.55 740.68 227.983 741.191 228.281C741.703 228.575 742.297 228.722 742.974 228.722C743.414 228.722 743.812 228.66 744.167 228.537C744.527 228.409 744.837 228.22 745.098 227.969C745.358 227.713 745.559 227.396 745.701 227.017L747.321 227.472C747.15 228.021 746.864 228.504 746.461 228.92C746.059 229.332 745.562 229.654 744.97 229.886C744.378 230.114 743.713 230.227 742.974 230.227ZM751.317 215.455V230H749.641V215.455H751.317ZM763.956 219.091V220.511H758.303V219.091H763.956ZM759.95 216.477H761.627V226.875C761.627 227.348 761.695 227.704 761.833 227.94C761.975 228.172 762.155 228.329 762.372 228.409C762.595 228.485 762.829 228.523 763.075 228.523C763.26 228.523 763.412 228.513 763.53 228.494C763.648 228.471 763.743 228.452 763.814 228.438L764.155 229.943C764.041 229.986 763.883 230.028 763.679 230.071C763.476 230.118 763.218 230.142 762.905 230.142C762.432 230.142 761.968 230.04 761.513 229.837C761.063 229.633 760.689 229.323 760.391 228.906C760.097 228.49 759.95 227.964 759.95 227.33V216.477ZM770.392 230.227C769.407 230.227 768.543 229.993 767.8 229.524C767.061 229.055 766.483 228.4 766.067 227.557C765.655 226.714 765.449 225.729 765.449 224.602C765.449 223.466 765.655 222.474 766.067 221.626C766.483 220.779 767.061 220.121 767.8 219.652C768.543 219.183 769.407 218.949 770.392 218.949C771.377 218.949 772.239 219.183 772.977 219.652C773.721 220.121 774.298 220.779 774.71 221.626C775.127 222.474 775.335 223.466 775.335 224.602C775.335 225.729 775.127 226.714 774.71 227.557C774.298 228.4 773.721 229.055 772.977 229.524C772.239 229.993 771.377 230.227 770.392 230.227ZM770.392 228.722C771.14 228.722 771.756 228.53 772.239 228.146C772.722 227.763 773.079 227.259 773.311 226.634C773.543 226.009 773.659 225.331 773.659 224.602C773.659 223.873 773.543 223.194 773.311 222.564C773.079 221.934 772.722 221.425 772.239 221.037C771.756 220.649 771.14 220.455 770.392 220.455C769.644 220.455 769.028 220.649 768.545 221.037C768.063 221.425 767.705 221.934 767.473 222.564C767.241 223.194 767.125 223.873 767.125 224.602C767.125 225.331 767.241 226.009 767.473 226.634C767.705 227.259 768.063 227.763 768.545 228.146C769.028 228.53 769.644 228.722 770.392 228.722ZM781.926 230.227C780.941 230.227 780.077 229.993 779.333 229.524C778.595 229.055 778.017 228.4 777.6 227.557C777.188 226.714 776.983 225.729 776.983 224.602C776.983 223.466 777.188 222.474 777.6 221.626C778.017 220.779 778.595 220.121 779.333 219.652C780.077 219.183 780.941 218.949 781.926 218.949C782.911 218.949 783.772 219.183 784.511 219.652C785.254 220.121 785.832 220.779 786.244 221.626C786.661 222.474 786.869 223.466 786.869 224.602C786.869 225.729 786.661 226.714 786.244 227.557C785.832 228.4 785.254 229.055 784.511 229.524C783.772 229.993 782.911 230.227 781.926 230.227ZM781.926 228.722C782.674 228.722 783.289 228.53 783.772 228.146C784.255 227.763 784.613 227.259 784.845 226.634C785.077 226.009 785.193 225.331 785.193 224.602C785.193 223.873 785.077 223.194 784.845 222.564C784.613 221.934 784.255 221.425 783.772 221.037C783.289 220.649 782.674 220.455 781.926 220.455C781.178 220.455 780.562 220.649 780.079 221.037C779.596 221.425 779.239 221.934 779.007 222.564C778.775 223.194 778.659 223.873 778.659 224.602C778.659 225.331 778.775 226.009 779.007 226.634C779.239 227.259 779.596 227.763 780.079 228.146C780.562 228.53 781.178 228.722 781.926 228.722ZM790.704 215.455V230H789.027V215.455H790.704ZM801.101 221.534L799.595 221.96C799.5 221.709 799.361 221.465 799.176 221.229C798.996 220.987 798.75 220.788 798.437 220.632C798.125 220.476 797.725 220.398 797.237 220.398C796.57 220.398 796.013 220.552 795.568 220.859C795.128 221.162 794.908 221.548 794.908 222.017C794.908 222.434 795.059 222.763 795.362 223.004C795.665 223.246 796.139 223.447 796.783 223.608L798.402 224.006C799.377 224.242 800.104 224.605 800.582 225.092C801.061 225.575 801.3 226.198 801.3 226.96C801.3 227.585 801.12 228.144 800.76 228.636C800.405 229.129 799.908 229.517 799.268 229.801C798.629 230.085 797.886 230.227 797.038 230.227C795.926 230.227 795.005 229.986 794.276 229.503C793.546 229.02 793.085 228.314 792.891 227.386L794.481 226.989C794.633 227.576 794.919 228.016 795.341 228.31C795.767 228.603 796.323 228.75 797.01 228.75C797.791 228.75 798.411 228.584 798.871 228.253C799.335 227.917 799.567 227.514 799.567 227.045C799.567 226.667 799.434 226.349 799.169 226.094C798.904 225.833 798.497 225.639 797.947 225.511L796.129 225.085C795.13 224.848 794.396 224.482 793.928 223.984C793.464 223.482 793.231 222.855 793.231 222.102C793.231 221.487 793.404 220.942 793.75 220.469C794.1 219.995 794.576 219.624 795.178 219.354C795.784 219.084 796.47 218.949 797.237 218.949C798.317 218.949 799.164 219.186 799.78 219.659C800.4 220.133 800.84 220.758 801.101 221.534ZM463.85 247.091V248.511H458.197V247.091H463.85ZM459.845 244.477H461.521V254.875C461.521 255.348 461.589 255.704 461.727 255.94C461.869 256.172 462.049 256.329 462.266 256.409C462.489 256.485 462.723 256.523 462.97 256.523C463.154 256.523 463.306 256.513 463.424 256.494C463.543 256.471 463.637 256.452 463.708 256.438L464.049 257.943C463.936 257.986 463.777 258.028 463.573 258.071C463.37 258.118 463.112 258.142 462.799 258.142C462.326 258.142 461.862 258.04 461.407 257.837C460.957 257.633 460.583 257.323 460.285 256.906C459.991 256.49 459.845 255.964 459.845 255.33V244.477ZM470.286 258.227C469.301 258.227 468.437 257.993 467.694 257.524C466.955 257.055 466.378 256.4 465.961 255.557C465.549 254.714 465.343 253.729 465.343 252.602C465.343 251.466 465.549 250.474 465.961 249.626C466.378 248.779 466.955 248.121 467.694 247.652C468.437 247.183 469.301 246.949 470.286 246.949C471.271 246.949 472.133 247.183 472.871 247.652C473.615 248.121 474.192 248.779 474.604 249.626C475.021 250.474 475.229 251.466 475.229 252.602C475.229 253.729 475.021 254.714 474.604 255.557C474.192 256.4 473.615 257.055 472.871 257.524C472.133 257.993 471.271 258.227 470.286 258.227ZM470.286 256.722C471.034 256.722 471.65 256.53 472.133 256.146C472.616 255.763 472.973 255.259 473.205 254.634C473.437 254.009 473.553 253.331 473.553 252.602C473.553 251.873 473.437 251.194 473.205 250.564C472.973 249.934 472.616 249.425 472.133 249.037C471.65 248.649 471.034 248.455 470.286 248.455C469.538 248.455 468.923 248.649 468.44 249.037C467.957 249.425 467.599 249.934 467.367 250.564C467.135 251.194 467.019 251.873 467.019 252.602C467.019 253.331 467.135 254.009 467.367 254.634C467.599 255.259 467.957 255.763 468.44 256.146C468.923 256.53 469.538 256.722 470.286 256.722ZM490.34 249.534L488.835 249.96C488.74 249.709 488.6 249.465 488.416 249.229C488.236 248.987 487.989 248.788 487.677 248.632C487.364 248.476 486.964 248.398 486.477 248.398C485.809 248.398 485.253 248.552 484.808 248.859C484.367 249.162 484.147 249.548 484.147 250.017C484.147 250.434 484.299 250.763 484.602 251.004C484.905 251.246 485.378 251.447 486.022 251.608L487.641 252.006C488.617 252.242 489.344 252.605 489.822 253.092C490.3 253.575 490.539 254.198 490.539 254.96C490.539 255.585 490.359 256.144 489.999 256.636C489.644 257.129 489.147 257.517 488.508 257.801C487.869 258.085 487.125 258.227 486.278 258.227C485.165 258.227 484.244 257.986 483.515 257.503C482.786 257.02 482.324 256.314 482.13 255.386L483.721 254.989C483.872 255.576 484.159 256.016 484.58 256.31C485.006 256.603 485.563 256.75 486.249 256.75C487.031 256.75 487.651 256.584 488.11 256.253C488.574 255.917 488.806 255.514 488.806 255.045C488.806 254.667 488.674 254.349 488.408 254.094C488.143 253.833 487.736 253.639 487.187 253.511L485.369 253.085C484.37 252.848 483.636 252.482 483.167 251.984C482.703 251.482 482.471 250.855 482.471 250.102C482.471 249.487 482.644 248.942 482.989 248.469C483.34 247.995 483.816 247.624 484.417 247.354C485.023 247.084 485.71 246.949 486.477 246.949C487.556 246.949 488.404 247.186 489.019 247.659C489.64 248.133 490.08 248.758 490.34 249.534ZM492.662 258V247.091H494.338V258H492.662ZM493.514 245.273C493.188 245.273 492.906 245.161 492.669 244.939C492.437 244.716 492.321 244.449 492.321 244.136C492.321 243.824 492.437 243.556 492.669 243.334C492.906 243.111 493.188 243 493.514 243C493.841 243 494.121 243.111 494.353 243.334C494.589 243.556 494.708 243.824 494.708 244.136C494.708 244.449 494.589 244.716 494.353 244.939C494.121 245.161 493.841 245.273 493.514 245.273ZM497.008 258V247.091H498.628V248.795H498.77C498.997 248.213 499.364 247.761 499.871 247.439C500.377 247.112 500.986 246.949 501.696 246.949C502.416 246.949 503.014 247.112 503.493 247.439C503.976 247.761 504.352 248.213 504.622 248.795H504.736C505.015 248.232 505.434 247.785 505.993 247.453C506.551 247.117 507.221 246.949 508.003 246.949C508.978 246.949 509.776 247.254 510.396 247.865C511.016 248.471 511.326 249.416 511.326 250.699V258H509.65V250.699C509.65 249.894 509.43 249.319 508.99 248.973C508.549 248.627 508.031 248.455 507.434 248.455C506.667 248.455 506.073 248.687 505.652 249.151C505.23 249.61 505.02 250.192 505.02 250.898V258H503.315V250.528C503.315 249.908 503.114 249.409 502.711 249.03C502.309 248.646 501.791 248.455 501.156 248.455C500.72 248.455 500.313 248.571 499.934 248.803C499.56 249.035 499.257 249.357 499.025 249.768C498.798 250.176 498.684 250.647 498.684 251.182V258H497.008ZM513.991 262.091V247.091H515.61V248.824H515.809C515.932 248.634 516.103 248.393 516.321 248.099C516.543 247.801 516.86 247.536 517.272 247.304C517.689 247.067 518.252 246.949 518.963 246.949C519.881 246.949 520.691 247.179 521.392 247.638C522.092 248.097 522.639 248.748 523.032 249.591C523.425 250.434 523.622 251.428 523.622 252.574C523.622 253.729 523.425 254.731 523.032 255.578C522.639 256.421 522.095 257.074 521.399 257.538C520.703 257.998 519.9 258.227 518.991 258.227C518.29 258.227 517.729 258.111 517.308 257.879C516.886 257.643 516.562 257.375 516.335 257.077C516.108 256.774 515.932 256.523 515.809 256.324H515.667V262.091H513.991ZM515.639 252.545C515.639 253.369 515.76 254.096 516.001 254.726C516.243 255.351 516.595 255.841 517.059 256.196C517.523 256.546 518.091 256.722 518.764 256.722C519.465 256.722 520.049 256.537 520.518 256.168C520.992 255.794 521.347 255.292 521.583 254.662C521.825 254.027 521.946 253.322 521.946 252.545C521.946 251.778 521.827 251.087 521.591 250.472C521.359 249.851 521.006 249.361 520.532 249.001C520.064 248.637 519.474 248.455 518.764 248.455C518.082 248.455 517.509 248.627 517.045 248.973C516.581 249.314 516.231 249.792 515.994 250.408C515.757 251.018 515.639 251.731 515.639 252.545ZM527.455 243.455V258H525.779V243.455H527.455ZM530.125 258V247.091H531.801V258H530.125ZM530.977 245.273C530.65 245.273 530.369 245.161 530.132 244.939C529.9 244.716 529.784 244.449 529.784 244.136C529.784 243.824 529.9 243.556 530.132 243.334C530.369 243.111 530.65 243 530.977 243C531.304 243 531.583 243.111 531.815 243.334C532.052 243.556 532.17 243.824 532.17 244.136C532.17 244.449 532.052 244.716 531.815 244.939C531.583 245.161 531.304 245.273 530.977 245.273ZM539.329 247.091V248.511H533.448V247.091H539.329ZM535.209 258V245.585C535.209 244.96 535.356 244.439 535.65 244.023C535.943 243.606 536.324 243.294 536.793 243.085C537.262 242.877 537.757 242.773 538.278 242.773C538.69 242.773 539.026 242.806 539.286 242.872C539.547 242.938 539.741 243 539.869 243.057L539.386 244.506C539.3 244.477 539.182 244.442 539.03 244.399C538.884 244.357 538.69 244.335 538.448 244.335C537.894 244.335 537.494 244.475 537.248 244.754C537.006 245.034 536.886 245.443 536.886 245.983V258H535.209ZM542.357 262.091C542.073 262.091 541.82 262.067 541.597 262.02C541.375 261.977 541.221 261.935 541.136 261.892L541.562 260.415C541.969 260.519 542.329 260.557 542.641 260.528C542.954 260.5 543.231 260.36 543.472 260.109C543.719 259.863 543.944 259.463 544.147 258.909L544.46 258.057L540.426 247.091H542.244L545.255 255.784H545.369L548.38 247.091H550.198L545.568 259.591C545.359 260.154 545.101 260.621 544.793 260.99C544.486 261.364 544.128 261.641 543.721 261.821C543.319 262.001 542.864 262.091 542.357 262.091ZM558.315 262.091C558.031 262.091 557.778 262.067 557.555 262.02C557.333 261.977 557.179 261.935 557.094 261.892L557.52 260.415C557.927 260.519 558.287 260.557 558.599 260.528C558.912 260.5 559.189 260.36 559.43 260.109C559.676 259.863 559.901 259.463 560.105 258.909L560.417 258.057L556.383 247.091H558.202L561.213 255.784H561.327L564.338 247.091H566.156L561.525 259.591C561.317 260.154 561.059 260.621 560.751 260.99C560.444 261.364 560.086 261.641 559.679 261.821C559.276 262.001 558.822 262.091 558.315 262.091ZM572.01 258.227C571.025 258.227 570.161 257.993 569.417 257.524C568.679 257.055 568.101 256.4 567.684 255.557C567.272 254.714 567.066 253.729 567.066 252.602C567.066 251.466 567.272 250.474 567.684 249.626C568.101 248.779 568.679 248.121 569.417 247.652C570.161 247.183 571.025 246.949 572.01 246.949C572.995 246.949 573.856 247.183 574.595 247.652C575.338 248.121 575.916 248.779 576.328 249.626C576.745 250.474 576.953 251.466 576.953 252.602C576.953 253.729 576.745 254.714 576.328 255.557C575.916 256.4 575.338 257.055 574.595 257.524C573.856 257.993 572.995 258.227 572.01 258.227ZM572.01 256.722C572.758 256.722 573.373 256.53 573.856 256.146C574.339 255.763 574.697 255.259 574.929 254.634C575.161 254.009 575.277 253.331 575.277 252.602C575.277 251.873 575.161 251.194 574.929 250.564C574.697 249.934 574.339 249.425 573.856 249.037C573.373 248.649 572.758 248.455 572.01 248.455C571.262 248.455 570.646 248.649 570.163 249.037C569.68 249.425 569.323 249.934 569.091 250.564C568.859 251.194 568.743 251.873 568.743 252.602C568.743 253.331 568.859 254.009 569.091 254.634C569.323 255.259 569.68 255.763 570.163 256.146C570.646 256.53 571.262 256.722 572.01 256.722ZM585.986 253.54V247.091H587.663V258H585.986V256.153H585.873C585.617 256.707 585.219 257.179 584.68 257.567C584.14 257.95 583.458 258.142 582.634 258.142C581.952 258.142 581.346 257.993 580.816 257.695C580.286 257.392 579.869 256.937 579.566 256.331C579.263 255.72 579.111 254.951 579.111 254.023V247.091H580.788V253.909C580.788 254.705 581.01 255.339 581.455 255.812C581.905 256.286 582.478 256.523 583.174 256.523C583.591 256.523 584.014 256.416 584.445 256.203C584.881 255.99 585.245 255.663 585.539 255.223C585.837 254.783 585.986 254.222 585.986 253.54ZM590.333 258V247.091H591.952V248.739H592.065C592.264 248.199 592.624 247.761 593.145 247.425C593.666 247.089 594.253 246.92 594.906 246.92C595.029 246.92 595.183 246.923 595.368 246.928C595.553 246.932 595.692 246.939 595.787 246.949V248.653C595.73 248.639 595.6 248.618 595.396 248.589C595.198 248.556 594.987 248.54 594.764 248.54C594.234 248.54 593.761 248.651 593.344 248.874C592.932 249.091 592.605 249.394 592.364 249.783C592.127 250.166 592.009 250.604 592.009 251.097V258H590.333ZM607.343 247.091V248.511H601.69V247.091H607.343ZM603.338 244.477H605.014V254.875C605.014 255.348 605.082 255.704 605.22 255.94C605.362 256.172 605.542 256.329 605.759 256.409C605.982 256.485 606.216 256.523 606.463 256.523C606.647 256.523 606.799 256.513 606.917 256.494C607.035 256.471 607.13 256.452 607.201 256.438L607.542 257.943C607.428 257.986 607.27 258.028 607.066 258.071C606.863 258.118 606.605 258.142 606.292 258.142C605.819 258.142 605.355 258.04 604.9 257.837C604.45 257.633 604.076 257.323 603.778 256.906C603.484 256.49 603.338 255.964 603.338 255.33V244.477ZM609.465 258V247.091H611.084V248.739H611.198C611.396 248.199 611.756 247.761 612.277 247.425C612.798 247.089 613.385 246.92 614.038 246.92C614.162 246.92 614.315 246.923 614.5 246.928C614.685 246.932 614.824 246.939 614.919 246.949V248.653C614.862 248.639 614.732 248.618 614.528 248.589C614.33 248.556 614.119 248.54 613.896 248.54C613.366 248.54 612.893 248.651 612.476 248.874C612.064 249.091 611.737 249.394 611.496 249.783C611.259 250.166 611.141 250.604 611.141 251.097V258H609.465ZM619.716 258.256C619.025 258.256 618.398 258.125 617.834 257.865C617.271 257.6 616.823 257.219 616.492 256.722C616.16 256.22 615.995 255.614 615.995 254.903C615.995 254.278 616.118 253.772 616.364 253.384C616.61 252.991 616.939 252.683 617.351 252.46C617.763 252.238 618.218 252.072 618.715 251.963C619.217 251.849 619.721 251.759 620.228 251.693C620.89 251.608 621.428 251.544 621.84 251.501C622.256 251.454 622.559 251.376 622.749 251.267C622.943 251.158 623.04 250.969 623.04 250.699V250.642C623.04 249.941 622.848 249.397 622.465 249.009C622.086 248.62 621.511 248.426 620.739 248.426C619.939 248.426 619.311 248.601 618.857 248.952C618.402 249.302 618.083 249.676 617.898 250.074L616.307 249.506C616.591 248.843 616.97 248.327 617.443 247.957C617.922 247.583 618.443 247.323 619.006 247.176C619.574 247.025 620.133 246.949 620.682 246.949C621.032 246.949 621.435 246.991 621.889 247.077C622.349 247.157 622.791 247.325 623.218 247.581C623.648 247.837 624.006 248.223 624.29 248.739C624.574 249.255 624.716 249.946 624.716 250.812V258H623.04V256.523H622.955C622.841 256.759 622.652 257.013 622.387 257.283C622.121 257.553 621.769 257.782 621.328 257.972C620.888 258.161 620.351 258.256 619.716 258.256ZM619.972 256.75C620.635 256.75 621.193 256.62 621.648 256.359C622.107 256.099 622.453 255.763 622.685 255.351C622.922 254.939 623.04 254.506 623.04 254.051V252.517C622.969 252.602 622.813 252.68 622.571 252.751C622.335 252.818 622.06 252.877 621.747 252.929C621.44 252.976 621.139 253.019 620.845 253.057C620.557 253.09 620.322 253.118 620.142 253.142C619.707 253.199 619.3 253.291 618.921 253.419C618.547 253.542 618.244 253.729 618.012 253.98C617.784 254.226 617.671 254.562 617.671 254.989C617.671 255.571 617.886 256.011 618.317 256.31C618.753 256.603 619.304 256.75 619.972 256.75ZM631.495 258.227C630.586 258.227 629.783 257.998 629.087 257.538C628.391 257.074 627.847 256.421 627.454 255.578C627.061 254.731 626.864 253.729 626.864 252.574C626.864 251.428 627.061 250.434 627.454 249.591C627.847 248.748 628.393 248.097 629.094 247.638C629.795 247.179 630.605 246.949 631.523 246.949C632.233 246.949 632.795 247.067 633.206 247.304C633.623 247.536 633.94 247.801 634.158 248.099C634.381 248.393 634.554 248.634 634.677 248.824H634.819V243.455H636.495V258H634.875V256.324H634.677C634.554 256.523 634.378 256.774 634.151 257.077C633.924 257.375 633.599 257.643 633.178 257.879C632.757 258.111 632.196 258.227 631.495 258.227ZM631.722 256.722C632.394 256.722 632.963 256.546 633.427 256.196C633.891 255.841 634.243 255.351 634.485 254.726C634.726 254.096 634.847 253.369 634.847 252.545C634.847 251.731 634.729 251.018 634.492 250.408C634.255 249.792 633.905 249.314 633.441 248.973C632.977 248.627 632.404 248.455 631.722 248.455C631.012 248.455 630.42 248.637 629.947 249.001C629.478 249.361 629.125 249.851 628.888 250.472C628.656 251.087 628.54 251.778 628.54 252.545C628.54 253.322 628.659 254.027 628.895 254.662C629.137 255.292 629.492 255.794 629.961 256.168C630.434 256.537 631.021 256.722 631.722 256.722ZM639.397 258V247.091H641.074V258H639.397ZM640.25 245.273C639.923 245.273 639.641 245.161 639.404 244.939C639.172 244.716 639.056 244.449 639.056 244.136C639.056 243.824 639.172 243.556 639.404 243.334C639.641 243.111 639.923 243 640.25 243C640.576 243 640.856 243.111 641.088 243.334C641.324 243.556 641.443 243.824 641.443 244.136C641.443 244.449 641.324 244.716 641.088 244.939C640.856 245.161 640.576 245.273 640.25 245.273ZM645.42 251.438V258H643.743V247.091H645.363V248.795H645.505C645.761 248.241 646.149 247.796 646.67 247.46C647.19 247.119 647.863 246.949 648.687 246.949C649.425 246.949 650.072 247.1 650.626 247.403C651.18 247.702 651.61 248.156 651.918 248.767C652.226 249.373 652.38 250.14 652.38 251.068V258H650.704V251.182C650.704 250.325 650.481 249.657 650.036 249.179C649.591 248.696 648.98 248.455 648.204 248.455C647.669 248.455 647.19 248.571 646.769 248.803C646.352 249.035 646.023 249.373 645.782 249.818C645.54 250.263 645.42 250.803 645.42 251.438ZM659.446 262.318C658.636 262.318 657.94 262.214 657.358 262.006C656.776 261.802 656.29 261.532 655.902 261.196C655.519 260.865 655.213 260.509 654.986 260.131L656.321 259.193C656.473 259.392 656.664 259.619 656.896 259.875C657.128 260.135 657.446 260.36 657.848 260.55C658.255 260.744 658.788 260.841 659.446 260.841C660.327 260.841 661.054 260.628 661.627 260.202C662.199 259.776 662.486 259.108 662.486 258.199V255.983H662.344C662.221 256.182 662.046 256.428 661.818 256.722C661.596 257.01 661.274 257.268 660.852 257.496C660.436 257.718 659.872 257.83 659.162 257.83C658.281 257.83 657.491 257.621 656.79 257.205C656.094 256.788 655.542 256.182 655.135 255.386C654.733 254.591 654.531 253.625 654.531 252.489C654.531 251.371 654.728 250.398 655.121 249.57C655.514 248.736 656.061 248.092 656.761 247.638C657.462 247.179 658.272 246.949 659.19 246.949C659.901 246.949 660.464 247.067 660.881 247.304C661.302 247.536 661.624 247.801 661.847 248.099C662.074 248.393 662.249 248.634 662.372 248.824H662.543V247.091H664.162V258.312C664.162 259.25 663.949 260.012 663.523 260.599C663.101 261.191 662.533 261.625 661.818 261.899C661.108 262.179 660.317 262.318 659.446 262.318ZM659.389 256.324C660.062 256.324 660.63 256.17 661.094 255.862C661.558 255.554 661.911 255.112 662.152 254.534C662.394 253.956 662.514 253.265 662.514 252.46C662.514 251.674 662.396 250.981 662.159 250.379C661.922 249.778 661.572 249.307 661.108 248.966C660.644 248.625 660.071 248.455 659.389 248.455C658.679 248.455 658.087 248.634 657.614 248.994C657.145 249.354 656.792 249.837 656.555 250.443C656.323 251.049 656.207 251.722 656.207 252.46C656.207 253.218 656.326 253.888 656.563 254.47C656.804 255.048 657.159 255.502 657.628 255.834C658.101 256.161 658.689 256.324 659.389 256.324ZM672.055 247.091H673.731V258.795C673.731 259.468 673.615 260.05 673.383 260.543C673.156 261.035 672.81 261.416 672.346 261.686C671.887 261.956 671.307 262.091 670.606 262.091C670.549 262.091 670.493 262.091 670.436 262.091C670.379 262.091 670.322 262.091 670.265 262.091V260.528C670.322 260.528 670.374 260.528 670.422 260.528C670.469 260.528 670.521 260.528 670.578 260.528C671.089 260.528 671.463 260.377 671.7 260.074C671.937 259.776 672.055 259.349 672.055 258.795V247.091ZM672.879 245.273C672.552 245.273 672.271 245.161 672.034 244.939C671.802 244.716 671.686 244.449 671.686 244.136C671.686 243.824 671.802 243.556 672.034 243.334C672.271 243.111 672.552 243 672.879 243C673.206 243 673.485 243.111 673.717 243.334C673.954 243.556 674.072 243.824 674.072 244.136C674.072 244.449 673.954 244.716 673.717 244.939C673.485 245.161 673.206 245.273 672.879 245.273ZM680.833 258.227C679.848 258.227 678.984 257.993 678.241 257.524C677.502 257.055 676.924 256.4 676.508 255.557C676.096 254.714 675.89 253.729 675.89 252.602C675.89 251.466 676.096 250.474 676.508 249.626C676.924 248.779 677.502 248.121 678.241 247.652C678.984 247.183 679.848 246.949 680.833 246.949C681.818 246.949 682.68 247.183 683.418 247.652C684.162 248.121 684.739 248.779 685.151 249.626C685.568 250.474 685.776 251.466 685.776 252.602C685.776 253.729 685.568 254.714 685.151 255.557C684.739 256.4 684.162 257.055 683.418 257.524C682.68 257.993 681.818 258.227 680.833 258.227ZM680.833 256.722C681.581 256.722 682.197 256.53 682.68 256.146C683.163 255.763 683.52 255.259 683.752 254.634C683.984 254.009 684.1 253.331 684.1 252.602C684.1 251.873 683.984 251.194 683.752 250.564C683.52 249.934 683.163 249.425 682.68 249.037C682.197 248.649 681.581 248.455 680.833 248.455C680.085 248.455 679.469 248.649 678.987 249.037C678.504 249.425 678.146 249.934 677.914 250.564C677.682 251.194 677.566 251.873 677.566 252.602C677.566 253.331 677.682 254.009 677.914 254.634C678.146 255.259 678.504 255.763 678.987 256.146C679.469 256.53 680.085 256.722 680.833 256.722ZM694.81 253.54V247.091H696.486V258H694.81V256.153H694.696C694.441 256.707 694.043 257.179 693.503 257.567C692.963 257.95 692.281 258.142 691.458 258.142C690.776 258.142 690.17 257.993 689.639 257.695C689.109 257.392 688.692 256.937 688.389 256.331C688.086 255.72 687.935 254.951 687.935 254.023V247.091H689.611V253.909C689.611 254.705 689.834 255.339 690.279 255.812C690.728 256.286 691.301 256.523 691.997 256.523C692.414 256.523 692.838 256.416 693.269 256.203C693.704 255.99 694.069 255.663 694.362 255.223C694.661 254.783 694.81 254.222 694.81 253.54ZM699.156 258V247.091H700.775V248.739H700.889C701.088 248.199 701.448 247.761 701.968 247.425C702.489 247.089 703.076 246.92 703.73 246.92C703.853 246.92 704.007 246.923 704.191 246.928C704.376 246.932 704.516 246.939 704.611 246.949V248.653C704.554 248.639 704.423 248.618 704.22 248.589C704.021 248.556 703.81 248.54 703.588 248.54C703.057 248.54 702.584 248.651 702.167 248.874C701.755 249.091 701.429 249.394 701.187 249.783C700.95 250.166 700.832 250.604 700.832 251.097V258H699.156ZM707.873 251.438V258H706.197V247.091H707.817V248.795H707.959C708.214 248.241 708.603 247.796 709.123 247.46C709.644 247.119 710.317 246.949 711.141 246.949C711.879 246.949 712.525 247.1 713.079 247.403C713.633 247.702 714.064 248.156 714.372 248.767C714.68 249.373 714.834 250.14 714.834 251.068V258H713.158V251.182C713.158 250.325 712.935 249.657 712.49 249.179C712.045 248.696 711.434 248.455 710.658 248.455C710.123 248.455 709.644 248.571 709.223 248.803C708.806 249.035 708.477 249.373 708.236 249.818C707.994 250.263 707.873 250.803 707.873 251.438ZM722.07 258.227C721.019 258.227 720.113 257.995 719.35 257.531C718.593 257.062 718.008 256.409 717.596 255.571C717.189 254.728 716.985 253.748 716.985 252.631C716.985 251.513 717.189 250.528 717.596 249.676C718.008 248.819 718.581 248.152 719.315 247.673C720.053 247.19 720.915 246.949 721.9 246.949C722.468 246.949 723.029 247.044 723.583 247.233C724.137 247.422 724.641 247.73 725.096 248.156C725.551 248.578 725.913 249.136 726.183 249.832C726.453 250.528 726.587 251.385 726.587 252.403V253.114H718.178V251.665H724.883C724.883 251.049 724.76 250.5 724.514 250.017C724.272 249.534 723.927 249.153 723.477 248.874C723.032 248.594 722.506 248.455 721.9 248.455C721.232 248.455 720.655 248.62 720.167 248.952C719.684 249.278 719.312 249.705 719.052 250.23C718.792 250.756 718.661 251.319 718.661 251.92V252.886C718.661 253.71 718.803 254.409 719.087 254.982C719.376 255.55 719.776 255.983 720.288 256.281C720.799 256.575 721.393 256.722 722.07 256.722C722.511 256.722 722.909 256.66 723.264 256.537C723.623 256.409 723.934 256.22 724.194 255.969C724.454 255.713 724.656 255.396 724.798 255.017L726.417 255.472C726.247 256.021 725.96 256.504 725.558 256.92C725.155 257.332 724.658 257.654 724.066 257.886C723.474 258.114 722.809 258.227 722.07 258.227ZM729.485 262.091C729.201 262.091 728.947 262.067 728.725 262.02C728.502 261.977 728.348 261.935 728.263 261.892L728.689 260.415C729.096 260.519 729.456 260.557 729.769 260.528C730.081 260.5 730.358 260.36 730.6 260.109C730.846 259.863 731.071 259.463 731.275 258.909L731.587 258.057L727.553 247.091H729.371L732.382 255.784H732.496L735.507 247.091H737.326L732.695 259.591C732.487 260.154 732.229 260.621 731.921 260.99C731.613 261.364 731.256 261.641 730.848 261.821C730.446 262.001 729.991 262.091 729.485 262.091ZM739.676 258.114C739.326 258.114 739.025 257.988 738.774 257.737C738.523 257.486 738.398 257.186 738.398 256.835C738.398 256.485 738.523 256.184 738.774 255.933C739.025 255.682 739.326 255.557 739.676 255.557C740.026 255.557 740.327 255.682 740.578 255.933C740.829 256.184 740.954 256.485 740.954 256.835C740.954 257.067 740.895 257.28 740.777 257.474C740.663 257.669 740.509 257.825 740.315 257.943C740.126 258.057 739.913 258.114 739.676 258.114Z" fill="#D4D4D4"/>
<rect x="528.5" y="283" width="143" height="48" rx="10" fill="url(#paint0_linear_3_511)"/>
<path d="M559.989 304.05C559.851 303.619 559.667 303.233 559.435 302.892C559.207 302.546 558.935 302.253 558.618 302.011C558.301 301.765 557.938 301.578 557.531 301.45C557.129 301.322 556.686 301.259 556.203 301.259C555.384 301.259 554.645 301.469 553.987 301.891C553.329 302.312 552.808 302.93 552.425 303.744C552.046 304.554 551.857 305.546 551.857 306.72C551.857 307.899 552.048 308.896 552.432 309.71C552.815 310.525 553.341 311.143 554.009 311.564C554.676 311.985 555.436 312.196 556.288 312.196C557.079 312.196 557.768 312.035 558.355 311.713C558.947 311.391 559.404 310.937 559.726 310.349C560.053 309.758 560.216 309.062 560.216 308.261L560.784 308.368H556.622V306.557H562.339V308.212C562.339 309.433 562.079 310.494 561.558 311.393C561.042 312.288 560.327 312.98 559.413 313.467C558.504 313.955 557.463 314.199 556.288 314.199C554.972 314.199 553.817 313.896 552.822 313.29C551.833 312.684 551.061 311.824 550.507 310.712C549.953 309.594 549.676 308.268 549.676 306.734C549.676 305.574 549.837 304.533 550.159 303.609C550.481 302.686 550.933 301.902 551.516 301.259C552.103 300.61 552.792 300.115 553.582 299.774C554.378 299.429 555.247 299.256 556.189 299.256C556.975 299.256 557.706 299.372 558.384 299.604C559.065 299.836 559.671 300.165 560.202 300.591C560.737 301.017 561.179 301.524 561.53 302.111C561.88 302.693 562.117 303.339 562.24 304.05H559.989ZM569.057 314.22C567.982 314.22 567.056 313.991 566.28 313.531C565.508 313.067 564.911 312.416 564.49 311.578C564.073 310.735 563.865 309.748 563.865 308.616C563.865 307.499 564.073 306.514 564.49 305.662C564.911 304.81 565.498 304.144 566.251 303.666C567.009 303.188 567.894 302.949 568.907 302.949C569.523 302.949 570.12 303.051 570.697 303.254C571.275 303.458 571.793 303.777 572.253 304.213C572.712 304.649 573.074 305.214 573.339 305.911C573.604 306.602 573.737 307.442 573.737 308.432V309.185H565.065V307.594H571.656C571.656 307.035 571.542 306.54 571.315 306.109C571.088 305.674 570.768 305.33 570.356 305.08C569.949 304.829 569.471 304.703 568.922 304.703C568.325 304.703 567.804 304.85 567.359 305.143C566.919 305.432 566.578 305.811 566.336 306.28C566.1 306.744 565.981 307.248 565.981 307.793V309.036C565.981 309.765 566.109 310.385 566.365 310.896C566.625 311.408 566.987 311.798 567.451 312.068C567.916 312.333 568.458 312.466 569.078 312.466C569.48 312.466 569.847 312.409 570.179 312.295C570.51 312.177 570.797 312.002 571.038 311.77C571.28 311.538 571.464 311.251 571.592 310.911L573.602 311.273C573.441 311.865 573.152 312.383 572.736 312.828C572.324 313.268 571.805 313.612 571.18 313.858C570.56 314.099 569.852 314.22 569.057 314.22ZM580.586 303.091V304.795H574.627V303.091H580.586ZM576.225 300.477H578.348V310.797C578.348 311.209 578.41 311.519 578.533 311.727C578.656 311.931 578.815 312.071 579.009 312.146C579.208 312.217 579.423 312.253 579.655 312.253C579.826 312.253 579.975 312.241 580.103 312.217C580.23 312.194 580.33 312.175 580.401 312.161L580.784 313.915C580.661 313.962 580.486 314.009 580.259 314.057C580.032 314.109 579.747 314.137 579.407 314.142C578.848 314.152 578.327 314.052 577.844 313.844C577.361 313.635 576.97 313.313 576.672 312.878C576.374 312.442 576.225 311.895 576.225 311.237V300.477ZM595.202 305.754L593.278 306.095C593.197 305.849 593.069 305.615 592.894 305.392C592.724 305.17 592.492 304.987 592.198 304.845C591.904 304.703 591.537 304.632 591.097 304.632C590.496 304.632 589.994 304.767 589.591 305.037C589.189 305.302 588.988 305.645 588.988 306.067C588.988 306.431 589.123 306.725 589.393 306.947C589.662 307.17 590.098 307.352 590.699 307.494L592.432 307.892C593.436 308.124 594.184 308.482 594.677 308.964C595.169 309.447 595.415 310.075 595.415 310.847C595.415 311.5 595.226 312.082 594.847 312.594C594.473 313.1 593.95 313.498 593.278 313.787C592.61 314.076 591.836 314.22 590.955 314.22C589.734 314.22 588.737 313.96 587.965 313.439C587.193 312.913 586.72 312.168 586.545 311.202L588.597 310.889C588.725 311.424 588.988 311.829 589.386 312.104C589.783 312.374 590.302 312.509 590.941 312.509C591.637 312.509 592.193 312.364 592.61 312.075C593.027 311.782 593.235 311.424 593.235 311.003C593.235 310.662 593.107 310.375 592.851 310.143C592.6 309.911 592.215 309.736 591.694 309.618L589.847 309.213C588.829 308.981 588.076 308.612 587.589 308.105C587.106 307.598 586.864 306.957 586.864 306.18C586.864 305.536 587.044 304.973 587.404 304.49C587.764 304.007 588.261 303.631 588.895 303.361C589.53 303.086 590.257 302.949 591.076 302.949C592.255 302.949 593.183 303.205 593.86 303.716C594.537 304.223 594.984 304.902 595.202 305.754ZM602.243 303.091V304.795H596.284V303.091H602.243ZM597.882 300.477H600.005V310.797C600.005 311.209 600.067 311.519 600.19 311.727C600.313 311.931 600.472 312.071 600.666 312.146C600.865 312.217 601.08 312.253 601.312 312.253C601.483 312.253 601.632 312.241 601.76 312.217C601.887 312.194 601.987 312.175 602.058 312.161L602.441 313.915C602.318 313.962 602.143 314.009 601.916 314.057C601.689 314.109 601.404 314.137 601.064 314.142C600.505 314.152 599.984 314.052 599.501 313.844C599.018 313.635 598.627 313.313 598.329 312.878C598.031 312.442 597.882 311.895 597.882 311.237V300.477ZM607.166 314.241C606.475 314.241 605.85 314.114 605.291 313.858C604.733 313.598 604.29 313.221 603.963 312.729C603.641 312.236 603.48 311.633 603.48 310.918C603.48 310.302 603.599 309.795 603.835 309.398C604.072 309 604.392 308.685 604.794 308.453C605.197 308.221 605.646 308.046 606.144 307.928C606.641 307.809 607.147 307.719 607.663 307.658C608.317 307.582 608.847 307.52 609.254 307.473C609.662 307.421 609.958 307.338 610.142 307.224C610.327 307.111 610.419 306.926 610.419 306.67V306.621C610.419 306 610.244 305.52 609.894 305.179C609.548 304.838 609.032 304.668 608.345 304.668C607.63 304.668 607.067 304.826 606.655 305.143C606.248 305.456 605.966 305.804 605.81 306.188L603.814 305.733C604.051 305.07 604.396 304.535 604.851 304.128C605.31 303.716 605.838 303.418 606.435 303.233C607.031 303.044 607.659 302.949 608.317 302.949C608.753 302.949 609.214 303.001 609.702 303.105C610.194 303.205 610.654 303.389 611.08 303.659C611.511 303.929 611.863 304.315 612.138 304.817C612.413 305.314 612.55 305.96 612.55 306.756V314H610.476V312.509H610.391C610.253 312.783 610.047 313.053 609.773 313.318C609.498 313.583 609.146 313.804 608.715 313.979C608.284 314.154 607.768 314.241 607.166 314.241ZM607.628 312.537C608.215 312.537 608.717 312.421 609.134 312.189C609.555 311.957 609.875 311.654 610.092 311.28C610.315 310.901 610.426 310.496 610.426 310.065V308.659C610.351 308.735 610.204 308.806 609.986 308.872C609.773 308.934 609.529 308.988 609.254 309.036C608.98 309.078 608.712 309.118 608.452 309.156C608.191 309.189 607.974 309.218 607.798 309.241C607.387 309.294 607.01 309.381 606.669 309.504C606.333 309.627 606.063 309.805 605.86 310.037C605.661 310.264 605.561 310.567 605.561 310.946C605.561 311.472 605.755 311.869 606.144 312.139C606.532 312.404 607.027 312.537 607.628 312.537ZM614.778 314V303.091H616.831V304.824H616.945C617.143 304.237 617.494 303.775 617.996 303.439C618.502 303.098 619.075 302.928 619.714 302.928C619.847 302.928 620.003 302.932 620.183 302.942C620.368 302.951 620.512 302.963 620.616 302.977V305.009C620.531 304.985 620.38 304.959 620.162 304.93C619.944 304.897 619.726 304.881 619.508 304.881C619.007 304.881 618.559 304.987 618.166 305.2C617.778 305.409 617.47 305.7 617.243 306.074C617.016 306.443 616.902 306.865 616.902 307.338V314H614.778ZM627.591 303.091V304.795H621.632V303.091H627.591ZM623.23 300.477H625.354V310.797C625.354 311.209 625.415 311.519 625.538 311.727C625.662 311.931 625.82 312.071 626.014 312.146C626.213 312.217 626.429 312.253 626.661 312.253C626.831 312.253 626.98 312.241 627.108 312.217C627.236 312.194 627.335 312.175 627.406 312.161L627.79 313.915C627.667 313.962 627.492 314.009 627.264 314.057C627.037 314.109 626.753 314.137 626.412 314.142C625.853 314.152 625.332 314.052 624.849 313.844C624.367 313.635 623.976 313.313 623.678 312.878C623.379 312.442 623.23 311.895 623.23 311.237V300.477ZM633.925 314.22C632.85 314.22 631.924 313.991 631.148 313.531C630.376 313.067 629.779 312.416 629.358 311.578C628.941 310.735 628.733 309.748 628.733 308.616C628.733 307.499 628.941 306.514 629.358 305.662C629.779 304.81 630.366 304.144 631.119 303.666C631.877 303.188 632.762 302.949 633.775 302.949C634.391 302.949 634.988 303.051 635.565 303.254C636.143 303.458 636.661 303.777 637.121 304.213C637.58 304.649 637.942 305.214 638.207 305.911C638.472 306.602 638.605 307.442 638.605 308.432V309.185H629.933V307.594H636.524C636.524 307.035 636.41 306.54 636.183 306.109C635.956 305.674 635.636 305.33 635.224 305.08C634.817 304.829 634.339 304.703 633.79 304.703C633.193 304.703 632.672 304.85 632.227 305.143C631.787 305.432 631.446 305.811 631.204 306.28C630.968 306.744 630.849 307.248 630.849 307.793V309.036C630.849 309.765 630.977 310.385 631.233 310.896C631.493 311.408 631.855 311.798 632.319 312.068C632.783 312.333 633.326 312.466 633.946 312.466C634.348 312.466 634.715 312.409 635.047 312.295C635.378 312.177 635.665 312.002 635.906 311.77C636.148 311.538 636.332 311.251 636.46 310.911L638.47 311.273C638.309 311.865 638.02 312.383 637.604 312.828C637.192 313.268 636.673 313.612 636.048 313.858C635.428 314.099 634.72 314.22 633.925 314.22ZM644.445 314.213C643.564 314.213 642.778 313.988 642.087 313.538C641.4 313.084 640.861 312.437 640.468 311.599C640.079 310.757 639.885 309.746 639.885 308.567C639.885 307.388 640.082 306.379 640.475 305.541C640.873 304.703 641.417 304.062 642.108 303.616C642.8 303.171 643.583 302.949 644.459 302.949C645.136 302.949 645.681 303.062 646.093 303.29C646.509 303.512 646.831 303.773 647.059 304.071C647.291 304.369 647.471 304.632 647.598 304.859H647.726V299.455H649.85V314H647.776V312.303H647.598C647.471 312.535 647.286 312.8 647.044 313.098C646.808 313.396 646.481 313.657 646.064 313.879C645.648 314.102 645.108 314.213 644.445 314.213ZM644.914 312.402C645.525 312.402 646.041 312.241 646.462 311.919C646.888 311.592 647.21 311.14 647.428 310.562C647.65 309.985 647.762 309.312 647.762 308.545C647.762 307.788 647.653 307.125 647.435 306.557C647.217 305.989 646.898 305.546 646.476 305.229C646.055 304.911 645.534 304.753 644.914 304.753C644.275 304.753 643.742 304.919 643.316 305.25C642.89 305.581 642.568 306.034 642.35 306.607C642.137 307.179 642.03 307.826 642.03 308.545C642.03 309.275 642.139 309.93 642.357 310.513C642.575 311.095 642.897 311.557 643.323 311.898C643.754 312.234 644.284 312.402 644.914 312.402Z" fill="#E8DFFF"/>
</g>
</g>
<defs>
<filter id="filter0_f_3_511" x="-140" y="-124" width="1480" height="603" filterUnits="userSpaceOnUse" color-interpolation-filters="sRGB">
<feFlood flood-opacity="0" result="BackgroundImageFix"/>
<feBlend mode="normal" in="SourceGraphic" in2="BackgroundImageFix" result="shape"/>
<feGaussianBlur stdDeviation="70" result="effect1_foregroundBlur_3_511"/>
</filter>
<filter id="filter1_f_3_511" x="-202.1" y="-186.1" width="1604.2" height="750.2" filterUnits="userSpaceOnUse" color-interpolation-filters="sRGB">
<feFlood flood-opacity="0" result="BackgroundImageFix"/>
<feBlend mode="normal" in="SourceGraphic" in2="BackgroundImageFix" result="shape"/>
<feGaussianBlur stdDeviation="97.05" result="effect1_foregroundBlur_3_511"/>
</filter>
<filter id="filter2_f_3_511" x="-114" y="19" width="1427" height="445" filterUnits="userSpaceOnUse" color-interpolation-filters="sRGB">
<feFlood flood-opacity="0" result="BackgroundImageFix"/>
<feBlend mode="normal" in="SourceGraphic" in2="BackgroundImageFix" result="shape"/>
<feGaussianBlur stdDeviation="40" result="effect1_foregroundBlur_3_511"/>
</filter>
<linearGradient id="paint0_linear_3_511" x1="509.5" y1="341" x2="672" y2="283" gradientUnits="userSpaceOnUse">
<stop stop-color="#9876FF"/>
<stop offset="1" stop-color="#22016E"/>
</linearGradient>
<clipPath id="clip0_3_511">
<rect width="1200" height="384" rx="30" fill="white"/>
</clipPath>
<clipPath id="clip1_3_511">
<rect width="564" height="270" fill="white" transform="translate(318 61)"/>
</clipPath>
</defs>
</svg>
