<svg width="30" height="28" viewBox="0 0 30 28" fill="none" xmlns="http://www.w3.org/2000/svg">
<path d="M29.8461 27.4401C29.7448 27.6104 29.5991 27.7517 29.4237 27.85C29.2482 27.9483 29.0492 28 28.8466 28H1.15273C0.950273 27.9998 0.751438 27.9479 0.576186 27.8495C0.400935 27.7512 0.255435 27.6098 0.154299 27.4396C0.0531621 27.2694 -5.19378e-05 27.0763 3.80383e-08 26.8799C5.20139e-05 26.6834 0.0533681 26.4904 0.154595 26.3202C2.35135 22.6345 5.73663 19.9917 9.68733 18.7389C7.73314 17.6099 6.21485 15.8895 5.36563 13.842C4.51641 11.7946 4.38322 9.53315 4.9865 7.4051C5.58979 5.27705 6.8962 3.40002 8.7051 2.06226C10.514 0.724508 12.7254 0 14.9996 0C17.2739 0 19.4853 0.724508 21.2942 2.06226C23.1031 3.40002 24.4095 5.27705 25.0128 7.4051C25.6161 9.53315 25.4829 11.7946 24.6336 13.842C23.7844 15.8895 22.2661 17.6099 20.312 18.7389C24.2626 19.9917 27.6479 22.6345 29.8447 26.3202C29.9462 26.4903 29.9997 26.6834 30 26.88C30.0003 27.0765 29.9472 27.2697 29.8461 27.4401Z" fill="url(#paint0_linear_1_246)"/>
<defs>
<linearGradient id="paint0_linear_1_246" x1="7.15909" y1="-3.26041e-07" x2="29.3758" y2="28.4868" gradientUnits="userSpaceOnUse">
<stop stop-color="#88ABFF"/>
<stop offset="1" stop-color="#2868FF"/>
</linearGradient>
</defs>
</svg>
