<svg width="79" height="92" viewBox="0 0 79 92" fill="none" xmlns="http://www.w3.org/2000/svg">
<path d="M52.719 83.3048L48.0924 74.2246L57.3259 69.5199L61.9526 78.6001L52.719 83.3048ZM21.4845 22.0036L16.8579 12.9233L26.0914 8.2186L30.718 17.2989L21.4845 22.0036ZM54.2474 74.3702C50.365 76.3483 46.5268 77.4031 42.7329 77.5345C38.9391 77.6658 35.395 76.9299 32.1008 75.3267C28.8321 73.7105 26.0186 71.2511 23.6602 67.9485L32.0369 61.8465C34.3529 64.6238 37.1608 66.346 40.4608 67.0133C43.7732 67.642 47.0769 67.1169 50.3719 65.438C53.5391 63.8243 55.767 61.7561 57.0555 59.2335C58.3311 56.6853 58.3832 54.2619 57.2119 51.9631C56.392 50.3539 55.2429 49.2985 53.7648 48.7969C52.2736 48.2698 50.286 48.2208 47.8021 48.6499L32.3991 51.286C23.4364 52.8284 17.1722 50.1004 13.6062 43.1018C11.9404 39.8324 11.2683 36.5875 11.59 33.3671C11.9242 30.1082 13.1899 27.0986 15.3868 24.3383C17.5708 21.5525 20.6105 19.1833 24.5059 17.2306C28.1204 15.4211 31.6578 14.4392 35.1182 14.2847C38.6041 14.1172 41.891 14.7589 44.9789 16.2098C48.0924 17.6477 50.904 19.8507 53.4137 22.8189L44.8288 29.3648C43.5472 27.7335 42.0314 26.495 40.2814 25.6493C38.5314 24.8036 36.6693 24.4011 34.6953 24.4417C32.7212 24.4823 30.7506 24.9717 28.7834 25.9097C26.9058 26.8342 25.3824 27.9804 24.2133 29.3482C23.0312 30.6905 22.2857 32.1321 21.9769 33.6729C21.6551 35.1881 21.8391 36.6226 22.5288 37.9764C23.2967 39.4834 24.5541 40.4674 26.3012 40.9285C28.0739 41.3766 30.4708 41.3135 33.4921 40.7393L44.8794 38.5567C50.3585 37.5023 54.7505 37.6292 58.0553 38.9374C61.3726 40.2071 64.0269 42.796 66.0181 46.7039C67.762 50.1266 68.4356 53.5638 68.0387 57.0155C67.6418 60.4672 66.269 63.7084 63.9202 66.739C61.5584 69.7441 58.3341 72.2878 54.2474 74.3702Z" fill="url(#paint0_linear_1_254)"/>
<defs>
<linearGradient id="paint0_linear_1_254" x1="21.7756" y1="10.3297" x2="65.3327" y2="96.4546" gradientUnits="userSpaceOnUse">
<stop stop-color="white"/>
<stop offset="1" stop-color="#B6CCFF"/>
</linearGradient>
</defs>
</svg>
