<svg width="28" height="36" viewBox="0 0 28 36" fill="none" xmlns="http://www.w3.org/2000/svg">
<path d="M21.6364 34.7144C21.6364 35.0554 21.5023 35.3824 21.2636 35.6235C21.0249 35.8646 20.7012 36 20.3637 36H7.6365C7.29896 36 6.97524 35.8646 6.73656 35.6235C6.49788 35.3824 6.36379 35.0554 6.36379 34.7144C6.36379 34.3735 6.49788 34.0465 6.73656 33.8054C6.97524 33.5643 7.29896 33.4289 7.6365 33.4289H20.3637C20.7012 33.4289 21.0249 33.5643 21.2636 33.8054C21.5023 34.0465 21.6364 34.3735 21.6364 34.7144ZM28 14.1453C28.0054 16.2885 27.5261 18.4045 26.5986 20.332C25.6711 22.2595 24.3199 23.9475 22.6482 25.2671C22.3356 25.5091 22.0819 25.8201 21.9066 26.1764C21.7312 26.5326 21.6388 26.9246 21.6364 27.3224V28.2866C21.6364 28.9685 21.3682 29.6225 20.8908 30.1047C20.4135 30.5868 19.766 30.8577 19.0909 30.8577H8.90922C8.23413 30.8577 7.58669 30.5868 7.10933 30.1047C6.63197 29.6225 6.36379 28.9685 6.36379 28.2866V27.3224C6.36353 26.9293 6.27405 26.5416 6.10223 26.1889C5.93041 25.8362 5.68083 25.528 5.37266 25.288C3.70508 23.9762 2.35481 22.2983 1.42402 20.3815C0.493243 18.4647 0.00635367 16.3591 0.000208168 14.2241C-0.0411551 6.56532 6.08697 0.187298 13.6628 0.00410448C15.5295 -0.0413328 17.3863 0.290872 19.124 0.981164C20.8616 1.67146 22.445 2.70589 23.781 4.02358C25.1169 5.34127 26.1784 6.91558 26.903 8.65387C27.6275 10.3922 28.0005 12.2593 28 14.1453ZM22.8916 12.6444C22.5616 10.7825 21.6747 9.0673 20.3504 7.72988C19.026 6.39246 17.3278 5.497 15.4844 5.16405C15.3195 5.13598 15.1509 5.14099 14.9879 5.17878C14.825 5.21656 14.671 5.28639 14.5348 5.38428C14.3986 5.48217 14.2829 5.6062 14.1941 5.74929C14.1053 5.89237 14.0454 6.05172 14.0176 6.21822C13.9898 6.38472 13.9947 6.55512 14.0322 6.71969C14.0696 6.88426 14.1387 7.03977 14.2356 7.17735C14.3325 7.31493 14.4553 7.43188 14.597 7.52153C14.7386 7.61118 14.8964 7.67177 15.0612 7.69983C17.6973 8.14818 19.9341 10.4076 20.3812 13.0751C20.4315 13.3745 20.5852 13.6463 20.815 13.8422C21.0447 14.0381 21.3357 14.1455 21.6364 14.1453C21.7083 14.1449 21.7801 14.139 21.8511 14.1277C22.1838 14.0703 22.4803 13.8818 22.6754 13.6037C22.8705 13.3255 22.9483 12.9805 22.8916 12.6444Z" fill="#6391FF"/>
</svg>
