<svg width="32" height="40" viewBox="0 0 32 40" fill="none" xmlns="http://www.w3.org/2000/svg">
<path d="M25.1047 23.4442C25.1082 24.0065 24.9373 24.556 24.6156 25.0172C24.294 25.4784 23.8373 25.8286 23.3084 26.0196L14.4169 29.3052L11.1416 38.2037C10.9476 38.7306 10.5967 39.1853 10.1362 39.5066C9.67565 39.8278 9.12767 40 8.56618 40C8.00468 40 7.45671 39.8278 6.99618 39.5066C6.53564 39.1853 6.18472 38.7306 5.99077 38.2037L2.69479 29.3052L-6.20365 26.0299C-6.73058 25.836 -7.18533 25.485 -7.50655 25.0245C-7.82777 24.564 -8 24.016 -8 23.4545C-8 22.893 -7.82777 22.345 -7.50655 21.8845C-7.18533 21.424 -6.73058 21.0731 -6.20365 20.8791L2.69479 17.5831L5.97008 8.68469C6.16404 8.15776 6.51496 7.70301 6.97549 7.38179C7.43602 7.06056 7.984 6.88834 8.54549 6.88834C9.10698 6.88834 9.65496 7.06056 10.1155 7.38179C10.576 7.70301 10.9269 8.15776 11.1209 8.68469L14.4169 17.5831L23.3153 20.8584C23.8446 21.0511 24.301 21.4034 24.6215 21.8665C24.942 22.3297 25.1108 22.881 25.1047 23.4442ZM15.4512 6.89534H18.2093V9.65348C18.2093 10.0192 18.3546 10.37 18.6132 10.6286C18.8719 10.8873 19.2226 11.0325 19.5884 11.0325C19.9541 11.0325 20.3049 10.8873 20.5635 10.6286C20.8222 10.37 20.9675 10.0192 20.9675 9.65348V6.89534H23.7256C24.0913 6.89534 24.4421 6.75005 24.7007 6.49142C24.9594 6.2328 25.1047 5.88203 25.1047 5.51627C25.1047 5.15052 24.9594 4.79975 24.7007 4.54113C24.4421 4.2825 24.0913 4.13721 23.7256 4.13721H20.9675V1.37907C20.9675 1.01332 20.8222 0.662545 20.5635 0.40392C20.3049 0.145294 19.9541 0 19.5884 0C19.2226 0 18.8719 0.145294 18.6132 0.40392C18.3546 0.662545 18.2093 1.01332 18.2093 1.37907V4.13721H15.4512C15.0854 4.13721 14.7347 4.2825 14.476 4.54113C14.2174 4.79975 14.0721 5.15052 14.0721 5.51627C14.0721 5.88203 14.2174 6.2328 14.476 6.49142C14.7347 6.75005 15.0854 6.89534 15.4512 6.89534ZM30.6209 12.4116H29.2419V11.0325C29.2419 10.6668 29.0966 10.316 28.8379 10.0574C28.5793 9.79878 28.2285 9.65348 27.8628 9.65348C27.497 9.65348 27.1463 9.79878 26.8876 10.0574C26.629 10.316 26.4837 10.6668 26.4837 11.0325V12.4116H25.1047C24.7389 12.4116 24.3881 12.5569 24.1295 12.8155C23.8709 13.0742 23.7256 13.4249 23.7256 13.7907C23.7256 14.1564 23.8709 14.5072 24.1295 14.7658C24.3881 15.0245 24.7389 15.1698 25.1047 15.1698H26.4837V16.5488C26.4837 16.9146 26.629 17.2653 26.8876 17.524C27.1463 17.7826 27.497 17.9279 27.8628 17.9279C28.2285 17.9279 28.5793 17.7826 28.8379 17.524C29.0966 17.2653 29.2419 16.9146 29.2419 16.5488V15.1698H30.6209C30.9867 15.1698 31.3375 15.0245 31.5961 14.7658C31.8547 14.5072 32 14.1564 32 13.7907C32 13.4249 31.8547 13.0742 31.5961 12.8155C31.3375 12.5569 30.9867 12.4116 30.6209 12.4116Z" fill="#6391FF"/>
</svg>
