<svg width="236" height="236" viewBox="0 0 236 236" fill="none" xmlns="http://www.w3.org/2000/svg">
<g filter="url(#filter0_d_1_354)">
<rect x="46.5213" y="45.7545" width="102.521" height="102.521" rx="30.2944" transform="rotate(-11.7195 46.5213 45.7545)" fill="white"/>
</g>
<path d="M101.462 57.1323C85.5909 60.425 75.393 75.9611 78.6857 91.8327C81.9784 107.705 97.5146 117.901 113.386 114.609C129.26 111.316 139.456 95.781 136.163 79.9087C132.871 64.0381 117.336 53.8407 101.462 57.1338L101.462 57.1323ZM123.241 95.8472C122.901 96.7982 121.852 97.2952 120.9 96.9521C113.297 94.2303 104.609 95.0591 95.0797 99.4199C94.1613 99.8396 93.0751 99.4349 92.6554 98.5161C92.2347 97.5976 92.637 96.5119 93.5578 96.0918C103.986 91.3186 113.6 90.4484 122.136 93.5064C123.088 93.8494 123.584 94.8955 123.241 95.8472ZM125.135 87.2913C124.705 88.4812 123.394 89.1002 122.206 88.6702C113.496 85.5235 101.435 86.5913 92.8737 91.2604C91.763 91.8641 90.3729 91.456 89.7678 90.3476C89.1651 89.2367 89.5741 87.8489 90.6823 87.2432C100.462 81.9111 113.756 80.7533 123.758 84.3644C124.946 84.7944 125.565 86.1046 125.135 87.2913ZM123.746 79.0803C113.343 75.5003 97.9559 78.1647 89.6694 82.6833C88.3387 83.4086 86.6706 82.9184 85.9457 81.5877C85.2206 80.2562 85.7102 78.5893 87.0418 77.8628C96.554 72.675 113.553 69.7695 125.53 73.8878C126.968 74.3804 127.729 75.9432 127.235 77.3761C126.745 78.81 125.178 79.5743 123.748 79.08L123.746 79.0803Z" fill="#131925"/>
<defs>
<filter id="filter0_d_1_354" x="-2.86102e-06" y="4.19617e-05" width="235.281" height="235.281" filterUnits="userSpaceOnUse" color-interpolation-filters="sRGB">
<feFlood flood-opacity="0" result="BackgroundImageFix"/>
<feColorMatrix in="SourceAlpha" type="matrix" values="0 0 0 0 0 0 0 0 0 0 0 0 0 0 0 0 0 0 127 0" result="hardAlpha"/>
<feOffset dx="10.515" dy="32.106"/>
<feGaussianBlur stdDeviation="31.4165"/>
<feComposite in2="hardAlpha" operator="out"/>
<feColorMatrix type="matrix" values="0 0 0 0 0.599667 0 0 0 0 0.621995 0 0 0 0 0.663462 0 0 0 0.19 0"/>
<feBlend mode="normal" in2="BackgroundImageFix" result="effect1_dropShadow_1_354"/>
<feBlend mode="normal" in="SourceGraphic" in2="effect1_dropShadow_1_354" result="shape"/>
</filter>
</defs>
</svg>
