<svg width="38" height="38" viewBox="0 0 38 38" fill="none" xmlns="http://www.w3.org/2000/svg">
<path d="M13.8848 16.8833C14.107 16.755 14.2915 16.5705 14.4198 16.3483C14.5481 16.1261 14.6156 15.8741 14.6155 15.6175V2.46592C14.6142 2.23294 14.5572 2.00366 14.4493 1.79718C14.3414 1.59071 14.1856 1.41303 13.995 1.27897C13.8045 1.14491 13.5846 1.05835 13.3537 1.02652C13.1229 0.994685 12.8878 1.01849 12.6681 1.09596C8.40218 2.6055 4.81475 5.58694 2.55066 9.50433C0.286574 13.4217 -0.50568 18.0181 0.316323 22.4673C0.35893 22.6973 0.456172 22.9138 0.59987 23.0985C0.743568 23.2832 0.92952 23.4306 1.14209 23.5285C1.33365 23.6181 1.54263 23.6642 1.7541 23.6637C2.01062 23.6638 2.26265 23.5964 2.48486 23.4682L13.8848 16.8833ZM11.6925 4.67977V14.7736L2.94525 19.8205C2.92332 19.5447 2.92332 19.267 2.92332 18.9967C2.92592 16.0346 3.74596 13.1307 5.29318 10.6046C6.84039 8.07857 9.05476 6.02837 11.6925 4.67977ZM38 18.9967C38.0014 23.1671 36.6303 27.222 34.0981 30.536C31.5659 33.8499 28.0133 36.2386 23.9886 37.3335C19.9639 38.4285 15.6906 38.1688 11.8281 36.5946C7.96561 35.0204 4.72857 32.2191 2.6164 28.6229C2.51794 28.4568 2.45338 28.2728 2.42645 28.0816C2.39952 27.8904 2.41076 27.6958 2.45951 27.509C2.50827 27.3221 2.59357 27.1468 2.7105 26.9931C2.82742 26.8395 2.97365 26.7105 3.14072 26.6137L17.5386 18.235V1.46129C17.5386 1.07373 17.6926 0.702045 17.9667 0.428C18.2408 0.153956 18.6125 0 19.0001 0C22.3157 0.00169146 25.5732 0.870441 28.4492 2.52C31.3252 4.16955 33.7196 6.54254 35.3948 9.40337C35.4149 9.4326 35.4332 9.46182 35.4514 9.49287C35.4697 9.52393 35.488 9.56046 35.5044 9.59334C37.1438 12.4559 38.0042 15.6981 38 18.9967Z" fill="#6391FF"/>
</svg>
