<svg width="497" height="198" viewBox="0 0 497 198" fill="none" xmlns="http://www.w3.org/2000/svg">
<mask id="path-1-inside-1_1_298" fill="white">
<path d="M0 15C0 6.71573 6.71573 0 15 0H482C490.284 0 497 6.71573 497 15V183C497 191.284 490.284 198 482 198H15C6.71574 198 0 191.284 0 183V15Z"/>
</mask>
<path d="M0 15C0 6.71573 6.71573 0 15 0H482C490.284 0 497 6.71573 497 15V183C497 191.284 490.284 198 482 198H15C6.71574 198 0 191.284 0 183V15Z" fill="url(#paint0_linear_1_298)"/>
<path d="M-1.2 15C-1.2 6.05299 6.05299 -1.2 15 -1.2H482C490.947 -1.2 498.2 6.05299 498.2 15L495.8 15C495.8 7.37847 489.622 1.2 482 1.2H15C7.37847 1.2 1.2 7.37847 1.2 15L-1.2 15ZM497 198H0H497ZM15 198C6.05299 198 -1.2 190.747 -1.2 181.8V15C-1.2 6.05299 6.05299 -1.2 15 -1.2L15 1.2C7.37847 1.2 1.2 7.37847 1.2 15V183C1.2 191.284 7.37847 198 15 198H15ZM482 -1.2C490.947 -1.2 498.2 6.05299 498.2 15V181.8C498.2 190.747 490.947 198 482 198C489.622 198 495.8 191.284 495.8 183V15C495.8 7.37847 489.622 1.2 482 1.2V-1.2Z" fill="url(#paint1_linear_1_298)" mask="url(#path-1-inside-1_1_298)"/>
<path d="M1 44L497 44.0006" stroke="#E9E9E9"/>
<rect x="462" y="14" width="18" height="18" rx="3" fill="#F8F8F8"/>
<path d="M474.495 25.985C474.528 26.0185 474.555 26.0582 474.573 26.1019C474.591 26.1456 474.6 26.1924 474.6 26.2397C474.6 26.287 474.591 26.3339 474.573 26.3776C474.555 26.4213 474.528 26.461 474.495 26.4944C474.461 26.5279 474.421 26.5544 474.378 26.5725C474.334 26.5906 474.287 26.5999 474.24 26.5999C474.193 26.5999 474.146 26.5906 474.102 26.5725C474.058 26.5544 474.019 26.5279 473.985 26.4944L471 23.5088L468.015 26.4944C467.947 26.562 467.856 26.5999 467.76 26.5999C467.665 26.5999 467.573 26.562 467.506 26.4944C467.438 26.4269 467.4 26.3352 467.4 26.2397C467.4 26.1442 467.438 26.0526 467.506 25.985L470.491 22.9999L467.506 20.0148C467.438 19.9472 467.4 19.8556 467.4 19.7601C467.4 19.6646 467.438 19.5729 467.506 19.5054C467.573 19.4378 467.665 19.3999 467.76 19.3999C467.856 19.3999 467.947 19.4378 468.015 19.5054L471 22.491L473.985 19.5054C474.053 19.4378 474.144 19.3999 474.24 19.3999C474.335 19.3999 474.427 19.4378 474.495 19.5054C474.562 19.5729 474.6 19.6646 474.6 19.7601C474.6 19.8556 474.562 19.9472 474.495 20.0148L471.509 22.9999L474.495 25.985Z" fill="#7D7D7D"/>
<rect x="437" y="14" width="18" height="18" rx="3" fill="#F8F8F8"/>
<rect x="443" y="27" width="6" height="1" fill="#7D7D7D"/>
<circle cx="23" cy="23" r="3" fill="#D9D9D9"/>
<circle cx="34" cy="23" r="3" fill="#D9D9D9"/>
<circle cx="45" cy="23" r="3" fill="#D9D9D9"/>
<rect x="20.35" y="95.35" width="450.3" height="88.3" rx="8.65" fill="url(#paint2_linear_1_298)"/>
<rect x="20.35" y="95.35" width="450.3" height="88.3" rx="8.65" stroke="url(#paint3_linear_1_298)" stroke-width="0.7"/>
<path d="M39.733 115H38.8523C38.8002 114.747 38.709 114.524 38.5788 114.332C38.451 114.141 38.2947 113.98 38.1101 113.849C37.9278 113.717 37.7254 113.617 37.5028 113.551C37.2803 113.485 37.0483 113.452 36.8068 113.452C36.3665 113.452 35.9676 113.563 35.6101 113.786C35.255 114.008 34.9721 114.336 34.7614 114.769C34.553 115.202 34.4489 115.734 34.4489 116.364C34.4489 116.993 34.553 117.525 34.7614 117.958C34.9721 118.391 35.255 118.719 35.6101 118.942C35.9676 119.164 36.3665 119.276 36.8068 119.276C37.0483 119.276 37.2803 119.242 37.5028 119.176C37.7254 119.11 37.9278 119.012 38.1101 118.881C38.2947 118.749 38.451 118.587 38.5788 118.395C38.709 118.201 38.8002 117.978 38.8523 117.727H39.733C39.6667 118.099 39.5459 118.432 39.3707 118.725C39.1955 119.019 38.9777 119.268 38.7173 119.474C38.4569 119.678 38.1645 119.833 37.8402 119.94C37.5182 120.046 37.1738 120.099 36.8068 120.099C36.1866 120.099 35.6349 119.948 35.152 119.645C34.669 119.342 34.2891 118.911 34.0121 118.352C33.7351 117.794 33.5966 117.131 33.5966 116.364C33.5966 115.597 33.7351 114.934 34.0121 114.375C34.2891 113.816 34.669 113.385 35.152 113.082C35.6349 112.779 36.1866 112.628 36.8068 112.628C37.1738 112.628 37.5182 112.681 37.8402 112.788C38.1645 112.894 38.4569 113.05 38.7173 113.256C38.9777 113.46 39.1955 113.709 39.3707 114.002C39.5459 114.293 39.6667 114.626 39.733 115ZM41.5805 112.727V120H40.7424V112.727H41.5805ZM42.8155 120V114.545H43.6536V120H42.8155ZM43.2416 113.636C43.0783 113.636 42.9374 113.581 42.819 113.469C42.703 113.358 42.645 113.224 42.645 113.068C42.645 112.912 42.703 112.778 42.819 112.667C42.9374 112.556 43.0783 112.5 43.2416 112.5C43.405 112.5 43.5446 112.556 43.6607 112.667C43.779 112.778 43.8382 112.912 43.8382 113.068C43.8382 113.224 43.779 113.358 43.6607 113.469C43.5446 113.581 43.405 113.636 43.2416 113.636ZM47.1755 120.114C46.6499 120.114 46.1965 119.998 45.8154 119.766C45.4366 119.531 45.1442 119.205 44.9382 118.786C44.7346 118.364 44.6328 117.874 44.6328 117.315C44.6328 116.757 44.7346 116.264 44.9382 115.838C45.1442 115.41 45.4307 115.076 45.7976 114.837C46.1669 114.595 46.5978 114.474 47.0902 114.474C47.3743 114.474 47.6549 114.522 47.9319 114.616C48.2088 114.711 48.461 114.865 48.6882 115.078C48.9155 115.289 49.0966 115.568 49.2316 115.916C49.3665 116.264 49.434 116.693 49.434 117.202V117.557H45.2294V116.832H48.5817C48.5817 116.525 48.5202 116.25 48.3971 116.009C48.2763 115.767 48.1035 115.576 47.8786 115.437C47.656 115.297 47.3933 115.227 47.0902 115.227C46.7564 115.227 46.4676 115.31 46.2238 115.476C45.9823 115.639 45.7964 115.852 45.6662 116.115C45.536 116.378 45.4709 116.66 45.4709 116.96V117.443C45.4709 117.855 45.5419 118.204 45.684 118.491C45.8284 118.775 46.0284 118.991 46.2841 119.141C46.5398 119.287 46.8369 119.361 47.1755 119.361C47.3956 119.361 47.5945 119.33 47.7721 119.268C47.952 119.205 48.107 119.11 48.2373 118.984C48.3675 118.857 48.4681 118.698 48.5391 118.509L49.3488 118.736C49.2635 119.01 49.1203 119.252 48.9191 119.46C48.7178 119.666 48.4693 119.827 48.1733 119.943C47.8774 120.057 47.5448 120.114 47.1755 120.114ZM51.2469 116.719V120H50.4088V114.545H51.2185V115.398H51.2895C51.4174 115.121 51.6115 114.898 51.8719 114.73C52.1323 114.56 52.4685 114.474 52.8804 114.474C53.2498 114.474 53.5729 114.55 53.8499 114.702C54.1269 114.851 54.3423 115.078 54.4962 115.384C54.6501 115.687 54.727 116.07 54.727 116.534V120H53.889V116.591C53.889 116.162 53.7777 115.829 53.5551 115.589C53.3326 115.348 53.0272 115.227 52.639 115.227C52.3714 115.227 52.1323 115.285 51.9216 115.401C51.7133 115.517 51.5488 115.687 51.428 115.909C51.3073 116.132 51.2469 116.402 51.2469 116.719ZM58.3306 114.545V115.256H55.5039V114.545H58.3306ZM56.3278 113.239H57.1658V118.438C57.1658 118.674 57.2002 118.852 57.2688 118.97C57.3398 119.086 57.4298 119.164 57.5387 119.205C57.65 119.242 57.7672 119.261 57.8903 119.261C57.9826 119.261 58.0584 119.257 58.1175 119.247C58.1767 119.235 58.2241 119.226 58.2596 119.219L58.43 119.972C58.3732 119.993 58.2939 120.014 58.1921 120.036C58.0903 120.059 57.9613 120.071 57.805 120.071C57.5683 120.071 57.3363 120.02 57.109 119.918C56.8841 119.817 56.6971 119.661 56.5479 119.453C56.4012 119.245 56.3278 118.982 56.3278 118.665V113.239ZM97.3907 120H96.4674L99.1379 112.727H100.047L102.717 120H101.794L99.6208 113.878H99.564L97.3907 120ZM97.7316 117.159H101.453V117.94H97.7316V117.159ZM103.437 120V114.545H104.246V115.398H104.317C104.431 115.107 104.614 114.88 104.868 114.719C105.121 114.556 105.425 114.474 105.78 114.474C106.14 114.474 106.44 114.556 106.679 114.719C106.92 114.88 107.108 115.107 107.243 115.398H107.3C107.44 115.116 107.649 114.892 107.929 114.727C108.208 114.558 108.543 114.474 108.934 114.474C109.421 114.474 109.82 114.627 110.13 114.933C110.441 115.236 110.596 115.708 110.596 116.349V120H109.758V116.349C109.758 115.947 109.648 115.659 109.427 115.487C109.207 115.314 108.948 115.227 108.65 115.227C108.266 115.227 107.969 115.343 107.758 115.575C107.548 115.805 107.442 116.096 107.442 116.449V120H106.59V116.264C106.59 115.954 106.489 115.704 106.288 115.515C106.087 115.323 105.828 115.227 105.51 115.227C105.293 115.227 105.089 115.285 104.9 115.401C104.713 115.517 104.561 115.678 104.445 115.884C104.331 116.088 104.275 116.323 104.275 116.591V120H103.437ZM114.044 120.114C113.551 120.114 113.119 119.996 112.748 119.762C112.378 119.528 112.09 119.2 111.881 118.778C111.675 118.357 111.572 117.865 111.572 117.301C111.572 116.733 111.675 116.237 111.881 115.813C112.09 115.389 112.378 115.06 112.748 114.826C113.119 114.592 113.551 114.474 114.044 114.474C114.536 114.474 114.967 114.592 115.337 114.826C115.708 115.06 115.997 115.389 116.203 115.813C116.411 116.237 116.515 116.733 116.515 117.301C116.515 117.865 116.411 118.357 116.203 118.778C115.997 119.2 115.708 119.528 115.337 119.762C114.967 119.996 114.536 120.114 114.044 120.114ZM114.044 119.361C114.418 119.361 114.726 119.265 114.967 119.073C115.209 118.881 115.387 118.629 115.503 118.317C115.619 118.004 115.677 117.666 115.677 117.301C115.677 116.937 115.619 116.597 115.503 116.282C115.387 115.967 115.209 115.713 114.967 115.518C114.726 115.324 114.418 115.227 114.044 115.227C113.67 115.227 113.362 115.324 113.121 115.518C112.879 115.713 112.7 115.967 112.584 116.282C112.468 116.597 112.41 116.937 112.41 117.301C112.41 117.666 112.468 118.004 112.584 118.317C112.7 118.629 112.879 118.881 113.121 119.073C113.362 119.265 113.67 119.361 114.044 119.361ZM120.932 117.77V114.545H121.77V120H120.932V119.077H120.875C120.748 119.354 120.549 119.589 120.279 119.783C120.009 119.975 119.668 120.071 119.256 120.071C118.915 120.071 118.612 119.996 118.347 119.847C118.082 119.696 117.874 119.469 117.722 119.165C117.571 118.86 117.495 118.475 117.495 118.011V114.545H118.333V117.955C118.333 118.352 118.444 118.67 118.667 118.906C118.892 119.143 119.178 119.261 119.526 119.261C119.734 119.261 119.946 119.208 120.162 119.102C120.379 118.995 120.562 118.832 120.709 118.612C120.858 118.391 120.932 118.111 120.932 117.77ZM123.843 116.719V120H123.005V114.545H123.815V115.398H123.886C124.014 115.121 124.208 114.898 124.468 114.73C124.729 114.56 125.065 114.474 125.477 114.474C125.846 114.474 126.169 114.55 126.446 114.702C126.723 114.851 126.939 115.078 127.093 115.384C127.247 115.687 127.324 116.07 127.324 116.534V120H126.485V116.591C126.485 116.162 126.374 115.829 126.152 115.589C125.929 115.348 125.624 115.227 125.235 115.227C124.968 115.227 124.729 115.285 124.518 115.401C124.31 115.517 124.145 115.687 124.025 115.909C123.904 116.132 123.843 116.402 123.843 116.719ZM130.927 114.545V115.256H128.1V114.545H130.927ZM128.924 113.239H129.762V118.438C129.762 118.674 129.797 118.852 129.865 118.97C129.936 119.086 130.026 119.164 130.135 119.205C130.246 119.242 130.364 119.261 130.487 119.261C130.579 119.261 130.655 119.257 130.714 119.247C130.773 119.235 130.821 119.226 130.856 119.219L131.027 119.972C130.97 119.993 130.89 120.014 130.789 120.036C130.687 120.059 130.558 120.071 130.402 120.071C130.165 120.071 129.933 120.02 129.706 119.918C129.481 119.817 129.294 119.661 129.144 119.453C128.998 119.245 128.924 118.982 128.924 118.665V113.239ZM173.666 114.545C173.624 114.186 173.451 113.906 173.148 113.707C172.845 113.509 172.473 113.409 172.033 113.409C171.711 113.409 171.429 113.461 171.187 113.565C170.948 113.67 170.761 113.813 170.626 113.995C170.494 114.177 170.428 114.384 170.428 114.616C170.428 114.811 170.474 114.978 170.566 115.117C170.661 115.254 170.781 115.369 170.928 115.462C171.075 115.552 171.229 115.626 171.39 115.685C171.551 115.742 171.699 115.788 171.834 115.824L172.572 116.023C172.762 116.072 172.972 116.141 173.205 116.229C173.439 116.316 173.663 116.436 173.876 116.587C174.091 116.737 174.269 116.928 174.408 117.163C174.548 117.397 174.618 117.685 174.618 118.026C174.618 118.419 174.515 118.774 174.309 119.091C174.105 119.408 173.807 119.66 173.414 119.847C173.023 120.034 172.549 120.128 171.99 120.128C171.469 120.128 171.018 120.044 170.637 119.876C170.258 119.708 169.96 119.473 169.742 119.173C169.527 118.872 169.405 118.523 169.376 118.125H170.285C170.309 118.4 170.401 118.627 170.562 118.807C170.726 118.984 170.932 119.117 171.18 119.205C171.431 119.29 171.701 119.332 171.99 119.332C172.326 119.332 172.628 119.278 172.896 119.169C173.163 119.058 173.375 118.904 173.531 118.707C173.687 118.509 173.766 118.277 173.766 118.011C173.766 117.77 173.698 117.573 173.563 117.422C173.428 117.27 173.251 117.147 173.03 117.053C172.81 116.958 172.572 116.875 172.317 116.804L171.422 116.548C170.854 116.385 170.404 116.152 170.072 115.849C169.741 115.546 169.575 115.149 169.575 114.659C169.575 114.252 169.685 113.897 169.905 113.594C170.128 113.288 170.426 113.052 170.8 112.884C171.177 112.713 171.597 112.628 172.061 112.628C172.53 112.628 172.946 112.712 173.311 112.88C173.676 113.046 173.964 113.273 174.178 113.562C174.393 113.851 174.507 114.179 174.518 114.545H173.666ZM178.024 114.545V115.256H175.198V114.545H178.024ZM176.022 113.239H176.86V118.438C176.86 118.674 176.894 118.852 176.963 118.97C177.034 119.086 177.124 119.164 177.232 119.205C177.344 119.242 177.461 119.261 177.584 119.261C177.676 119.261 177.752 119.257 177.811 119.247C177.87 119.235 177.918 119.226 177.953 119.219L178.124 119.972C178.067 119.993 177.988 120.014 177.886 120.036C177.784 120.059 177.655 120.071 177.499 120.071C177.262 120.071 177.03 120.02 176.803 119.918C176.578 119.817 176.391 119.661 176.242 119.453C176.095 119.245 176.022 118.982 176.022 118.665V113.239ZM180.59 120.128C180.244 120.128 179.931 120.063 179.649 119.933C179.367 119.8 179.144 119.609 178.978 119.361C178.812 119.11 178.729 118.807 178.729 118.452C178.729 118.139 178.791 117.886 178.914 117.692C179.037 117.495 179.202 117.341 179.408 117.23C179.614 117.119 179.841 117.036 180.089 116.982C180.34 116.925 180.592 116.88 180.846 116.847C181.177 116.804 181.446 116.772 181.652 116.751C181.86 116.727 182.012 116.688 182.106 116.634C182.204 116.579 182.252 116.484 182.252 116.349V116.321C182.252 115.971 182.156 115.698 181.964 115.504C181.775 115.31 181.487 115.213 181.101 115.213C180.701 115.213 180.388 115.301 180.16 115.476C179.933 115.651 179.773 115.838 179.681 116.037L178.886 115.753C179.028 115.421 179.217 115.163 179.454 114.979C179.693 114.792 179.953 114.661 180.235 114.588C180.519 114.512 180.798 114.474 181.073 114.474C181.248 114.474 181.45 114.496 181.677 114.538C181.906 114.579 182.128 114.663 182.341 114.79C182.556 114.918 182.735 115.111 182.877 115.369C183.019 115.627 183.09 115.973 183.09 116.406V120H182.252V119.261H182.209C182.153 119.38 182.058 119.506 181.925 119.641C181.793 119.776 181.616 119.891 181.396 119.986C181.176 120.08 180.907 120.128 180.59 120.128ZM180.718 119.375C181.049 119.375 181.329 119.31 181.556 119.18C181.786 119.049 181.959 118.881 182.075 118.675C182.193 118.469 182.252 118.253 182.252 118.026V117.259C182.217 117.301 182.138 117.34 182.018 117.376C181.899 117.409 181.762 117.438 181.606 117.464C181.452 117.488 181.302 117.509 181.155 117.528C181.01 117.545 180.893 117.559 180.803 117.571C180.585 117.599 180.382 117.646 180.192 117.71C180.005 117.771 179.854 117.865 179.738 117.99C179.624 118.113 179.567 118.281 179.567 118.494C179.567 118.786 179.675 119.006 179.891 119.155C180.108 119.302 180.384 119.375 180.718 119.375ZM184.32 120V114.545H185.129V115.369H185.186C185.286 115.099 185.466 114.88 185.726 114.712C185.986 114.544 186.28 114.46 186.607 114.46C186.668 114.46 186.745 114.461 186.838 114.464C186.93 114.466 187 114.47 187.047 114.474V115.327C187.019 115.32 186.954 115.309 186.852 115.295C186.752 115.278 186.647 115.27 186.536 115.27C186.271 115.27 186.034 115.326 185.825 115.437C185.619 115.546 185.456 115.697 185.335 115.891C185.217 116.083 185.158 116.302 185.158 116.548V120H184.32ZM190.454 114.545V115.256H187.628V114.545H190.454ZM188.452 113.239H189.29V118.438C189.29 118.674 189.324 118.852 189.393 118.97C189.464 119.086 189.554 119.164 189.663 119.205C189.774 119.242 189.891 119.261 190.014 119.261C190.106 119.261 190.182 119.257 190.241 119.247C190.301 119.235 190.348 119.226 190.383 119.219L190.554 119.972C190.497 119.993 190.418 120.014 190.316 120.036C190.214 120.059 190.085 120.071 189.929 120.071C189.692 120.071 189.46 120.02 189.233 119.918C189.008 119.817 188.821 119.661 188.672 119.453C188.525 119.245 188.452 118.982 188.452 118.665V113.239ZM196.286 120H194.041V112.727H196.385C197.09 112.727 197.694 112.873 198.196 113.164C198.698 113.453 199.083 113.868 199.35 114.411C199.618 114.95 199.751 115.597 199.751 116.349C199.751 117.107 199.617 117.759 199.347 118.306C199.077 118.851 198.684 119.27 198.168 119.563C197.652 119.854 197.024 120 196.286 120ZM194.922 119.219H196.229C196.83 119.219 197.328 119.103 197.724 118.871C198.119 118.639 198.414 118.308 198.608 117.88C198.802 117.451 198.899 116.941 198.899 116.349C198.899 115.762 198.803 115.257 198.612 114.833C198.42 114.407 198.133 114.08 197.752 113.853C197.371 113.623 196.896 113.509 196.328 113.509H194.922V119.219ZM202.42 120.128C202.075 120.128 201.761 120.063 201.479 119.933C201.197 119.8 200.974 119.609 200.808 119.361C200.642 119.11 200.559 118.807 200.559 118.452C200.559 118.139 200.621 117.886 200.744 117.692C200.867 117.495 201.032 117.341 201.238 117.23C201.444 117.119 201.671 117.036 201.919 116.982C202.17 116.925 202.423 116.88 202.676 116.847C203.007 116.804 203.276 116.772 203.482 116.751C203.69 116.727 203.842 116.688 203.937 116.634C204.034 116.579 204.082 116.484 204.082 116.349V116.321C204.082 115.971 203.986 115.698 203.794 115.504C203.605 115.31 203.317 115.213 202.932 115.213C202.531 115.213 202.218 115.301 201.991 115.476C201.763 115.651 201.603 115.838 201.511 116.037L200.716 115.753C200.858 115.421 201.047 115.163 201.284 114.979C201.523 114.792 201.783 114.661 202.065 114.588C202.349 114.512 202.629 114.474 202.903 114.474C203.078 114.474 203.28 114.496 203.507 114.538C203.736 114.579 203.958 114.663 204.171 114.79C204.386 114.918 204.565 115.111 204.707 115.369C204.849 115.627 204.92 115.973 204.92 116.406V120H204.082V119.261H204.04C203.983 119.38 203.888 119.506 203.755 119.641C203.623 119.776 203.446 119.891 203.226 119.986C203.006 120.08 202.737 120.128 202.42 120.128ZM202.548 119.375C202.879 119.375 203.159 119.31 203.386 119.18C203.616 119.049 203.789 118.881 203.905 118.675C204.023 118.469 204.082 118.253 204.082 118.026V117.259C204.047 117.301 203.969 117.34 203.848 117.376C203.729 117.409 203.592 117.438 203.436 117.464C203.282 117.488 203.132 117.509 202.985 117.528C202.84 117.545 202.723 117.559 202.633 117.571C202.415 117.599 202.212 117.646 202.022 117.71C201.835 117.771 201.684 117.865 201.568 117.99C201.454 118.113 201.397 118.281 201.397 118.494C201.397 118.786 201.505 119.006 201.721 119.155C201.938 119.302 202.214 119.375 202.548 119.375ZM208.522 114.545V115.256H205.695V114.545H208.522ZM206.519 113.239H207.357V118.438C207.357 118.674 207.392 118.852 207.46 118.97C207.531 119.086 207.621 119.164 207.73 119.205C207.841 119.242 207.959 119.261 208.082 119.261C208.174 119.261 208.25 119.257 208.309 119.247C208.368 119.235 208.415 119.226 208.451 119.219L208.621 119.972C208.565 119.993 208.485 120.014 208.384 120.036C208.282 120.059 208.153 120.071 207.996 120.071C207.76 120.071 207.528 120.02 207.3 119.918C207.076 119.817 206.888 119.661 206.739 119.453C206.593 119.245 206.519 118.982 206.519 118.665V113.239ZM211.711 120.114C211.185 120.114 210.732 119.998 210.351 119.766C209.972 119.531 209.68 119.205 209.474 118.786C209.27 118.364 209.168 117.874 209.168 117.315C209.168 116.757 209.27 116.264 209.474 115.838C209.68 115.41 209.966 115.076 210.333 114.837C210.702 114.595 211.133 114.474 211.626 114.474C211.91 114.474 212.19 114.522 212.467 114.616C212.744 114.711 212.997 114.865 213.224 115.078C213.451 115.289 213.632 115.568 213.767 115.916C213.902 116.264 213.97 116.693 213.97 117.202V117.557H209.765V116.832H213.117C213.117 116.525 213.056 116.25 212.933 116.009C212.812 115.767 212.639 115.576 212.414 115.437C212.192 115.297 211.929 115.227 211.626 115.227C211.292 115.227 211.003 115.31 210.759 115.476C210.518 115.639 210.332 115.852 210.202 116.115C210.072 116.378 210.006 116.66 210.006 116.96V117.443C210.006 117.855 210.077 118.204 210.22 118.491C210.364 118.775 210.564 118.991 210.82 119.141C211.075 119.287 211.372 119.361 211.711 119.361C211.931 119.361 212.13 119.33 212.308 119.268C212.488 119.205 212.643 119.11 212.773 118.984C212.903 118.857 213.004 118.698 213.075 118.509L213.884 118.736C213.799 119.01 213.656 119.252 213.455 119.46C213.253 119.666 213.005 119.827 212.709 119.943C212.413 120.057 212.08 120.114 211.711 120.114ZM252.746 120V112.727H257.106V113.509H253.626V115.966H256.78V116.747H253.626V120H252.746ZM258.142 120V114.545H258.952V115.369H259.009C259.108 115.099 259.288 114.88 259.549 114.712C259.809 114.544 260.103 114.46 260.429 114.46C260.491 114.46 260.568 114.461 260.66 114.464C260.753 114.466 260.822 114.47 260.87 114.474V115.327C260.841 115.32 260.776 115.309 260.674 115.295C260.575 115.278 260.47 115.27 260.358 115.27C260.093 115.27 259.856 115.326 259.648 115.437C259.442 115.546 259.279 115.697 259.158 115.891C259.04 116.083 258.981 116.302 258.981 116.548V120H258.142ZM263.684 120.114C263.158 120.114 262.705 119.998 262.324 119.766C261.945 119.531 261.653 119.205 261.447 118.786C261.243 118.364 261.141 117.874 261.141 117.315C261.141 116.757 261.243 116.264 261.447 115.838C261.653 115.41 261.939 115.076 262.306 114.837C262.676 114.595 263.106 114.474 263.599 114.474C263.883 114.474 264.163 114.522 264.44 114.616C264.717 114.711 264.97 114.865 265.197 115.078C265.424 115.289 265.605 115.568 265.74 115.916C265.875 116.264 265.943 116.693 265.943 117.202V117.557H261.738V116.832H265.09C265.09 116.525 265.029 116.25 264.906 116.009C264.785 115.767 264.612 115.576 264.387 115.437C264.165 115.297 263.902 115.227 263.599 115.227C263.265 115.227 262.976 115.31 262.732 115.476C262.491 115.639 262.305 115.852 262.175 116.115C262.045 116.378 261.98 116.66 261.98 116.96V117.443C261.98 117.855 262.051 118.204 262.193 118.491C262.337 118.775 262.537 118.991 262.793 119.141C263.048 119.287 263.346 119.361 263.684 119.361C263.904 119.361 264.103 119.33 264.281 119.268C264.461 119.205 264.616 119.11 264.746 118.984C264.876 118.857 264.977 118.698 265.048 118.509L265.857 118.736C265.772 119.01 265.629 119.252 265.428 119.46C265.226 119.666 264.978 119.827 264.682 119.943C264.386 120.057 264.053 120.114 263.684 120.114ZM270.639 122.045V119.162H270.568C270.506 119.261 270.419 119.387 270.305 119.538C270.192 119.687 270.029 119.821 269.819 119.94C269.608 120.056 269.327 120.114 268.977 120.114C268.523 120.114 268.121 119.999 267.773 119.769C267.425 119.537 267.153 119.21 266.956 118.789C266.76 118.365 266.662 117.865 266.662 117.287C266.662 116.714 266.76 116.217 266.956 115.795C267.153 115.374 267.426 115.049 267.777 114.819C268.127 114.589 268.532 114.474 268.991 114.474C269.346 114.474 269.627 114.534 269.833 114.652C270.041 114.768 270.2 114.901 270.309 115.05C270.42 115.196 270.506 115.317 270.568 115.412H270.667V114.545H271.477V122.045H270.639ZM269.091 119.361C269.427 119.361 269.711 119.273 269.943 119.098C270.175 118.92 270.351 118.675 270.472 118.363C270.593 118.048 270.653 117.685 270.653 117.273C270.653 116.866 270.594 116.509 270.476 116.204C270.357 115.896 270.182 115.657 269.95 115.487C269.718 115.314 269.432 115.227 269.091 115.227C268.736 115.227 268.44 115.318 268.203 115.501C267.969 115.681 267.792 115.926 267.674 116.236C267.558 116.544 267.5 116.889 267.5 117.273C267.5 117.661 267.559 118.014 267.677 118.331C267.798 118.646 267.976 118.897 268.21 119.084C268.447 119.268 268.74 119.361 269.091 119.361ZM276.149 117.77V114.545H276.987V120H276.149V119.077H276.092C275.964 119.354 275.765 119.589 275.495 119.783C275.225 119.975 274.884 120.071 274.473 120.071C274.132 120.071 273.829 119.996 273.563 119.847C273.298 119.696 273.09 119.469 272.938 119.165C272.787 118.86 272.711 118.475 272.711 118.011V114.545H273.549V117.955C273.549 118.352 273.661 118.67 273.883 118.906C274.108 119.143 274.394 119.261 274.742 119.261C274.951 119.261 275.163 119.208 275.378 119.102C275.596 118.995 275.778 118.832 275.925 118.612C276.074 118.391 276.149 118.111 276.149 117.77ZM280.509 120.114C279.983 120.114 279.53 119.998 279.149 119.766C278.77 119.531 278.477 119.205 278.271 118.786C278.068 118.364 277.966 117.874 277.966 117.315C277.966 116.757 278.068 116.264 278.271 115.838C278.477 115.41 278.764 115.076 279.131 114.837C279.5 114.595 279.931 114.474 280.423 114.474C280.708 114.474 280.988 114.522 281.265 114.616C281.542 114.711 281.794 114.865 282.021 115.078C282.249 115.289 282.43 115.568 282.565 115.916C282.7 116.264 282.767 116.693 282.767 117.202V117.557H278.563V116.832H281.915C281.915 116.525 281.853 116.25 281.73 116.009C281.61 115.767 281.437 115.576 281.212 115.437C280.989 115.297 280.726 115.227 280.423 115.227C280.09 115.227 279.801 115.31 279.557 115.476C279.315 115.639 279.13 115.852 278.999 116.115C278.869 116.378 278.804 116.66 278.804 116.96V117.443C278.804 117.855 278.875 118.204 279.017 118.491C279.162 118.775 279.362 118.991 279.617 119.141C279.873 119.287 280.17 119.361 280.509 119.361C280.729 119.361 280.928 119.33 281.105 119.268C281.285 119.205 281.44 119.11 281.57 118.984C281.701 118.857 281.801 118.698 281.872 118.509L282.682 118.736C282.597 119.01 282.453 119.252 282.252 119.46C282.051 119.666 281.802 119.827 281.507 119.943C281.211 120.057 280.878 120.114 280.509 120.114ZM284.58 116.719V120H283.742V114.545H284.552V115.398H284.623C284.751 115.121 284.945 114.898 285.205 114.73C285.466 114.56 285.802 114.474 286.214 114.474C286.583 114.474 286.906 114.55 287.183 114.702C287.46 114.851 287.676 115.078 287.829 115.384C287.983 115.687 288.06 116.07 288.06 116.534V120H287.222V116.591C287.222 116.162 287.111 115.829 286.888 115.589C286.666 115.348 286.36 115.227 285.972 115.227C285.705 115.227 285.466 115.285 285.255 115.401C285.047 115.517 284.882 115.687 284.761 115.909C284.64 116.132 284.58 116.402 284.58 116.719ZM291.508 120.114C290.996 120.114 290.556 119.993 290.187 119.751C289.817 119.51 289.533 119.177 289.334 118.754C289.135 118.33 289.036 117.846 289.036 117.301C289.036 116.747 289.138 116.258 289.341 115.835C289.547 115.408 289.834 115.076 290.201 114.837C290.57 114.595 291.001 114.474 291.493 114.474C291.877 114.474 292.223 114.545 292.53 114.688C292.838 114.83 293.09 115.028 293.287 115.284C293.483 115.54 293.605 115.838 293.652 116.179H292.814C292.75 115.93 292.608 115.71 292.388 115.518C292.17 115.324 291.877 115.227 291.508 115.227C291.181 115.227 290.894 115.312 290.648 115.483C290.404 115.651 290.214 115.889 290.076 116.197C289.942 116.502 289.874 116.861 289.874 117.273C289.874 117.694 289.94 118.061 290.073 118.374C290.208 118.686 290.397 118.929 290.641 119.102C290.887 119.274 291.176 119.361 291.508 119.361C291.725 119.361 291.923 119.323 292.101 119.247C292.278 119.171 292.428 119.062 292.552 118.92C292.675 118.778 292.762 118.608 292.814 118.409H293.652C293.605 118.731 293.488 119.021 293.301 119.279C293.116 119.535 292.871 119.738 292.566 119.89C292.263 120.039 291.91 120.114 291.508 120.114ZM295.117 122.045C294.975 122.045 294.849 122.034 294.737 122.01C294.626 121.989 294.549 121.967 294.507 121.946L294.72 121.207C294.923 121.259 295.103 121.278 295.259 121.264C295.416 121.25 295.554 121.18 295.675 121.055C295.798 120.932 295.91 120.732 296.012 120.455L296.169 120.028L294.151 114.545H295.061L296.566 118.892H296.623L298.129 114.545H299.038L296.722 120.795C296.618 121.077 296.489 121.31 296.335 121.495C296.182 121.682 296.003 121.821 295.799 121.911C295.598 122 295.371 122.045 295.117 122.045ZM341.622 114.545C341.58 114.186 341.407 113.906 341.104 113.707C340.801 113.509 340.429 113.409 339.989 113.409C339.667 113.409 339.385 113.461 339.144 113.565C338.905 113.67 338.718 113.813 338.583 113.995C338.45 114.177 338.384 114.384 338.384 114.616C338.384 114.811 338.43 114.978 338.522 115.117C338.617 115.254 338.738 115.369 338.884 115.462C339.031 115.552 339.185 115.626 339.346 115.685C339.507 115.742 339.655 115.788 339.79 115.824L340.529 116.023C340.718 116.072 340.929 116.141 341.161 116.229C341.395 116.316 341.619 116.436 341.832 116.587C342.047 116.737 342.225 116.928 342.365 117.163C342.504 117.397 342.574 117.685 342.574 118.026C342.574 118.419 342.471 118.774 342.265 119.091C342.062 119.408 341.763 119.66 341.37 119.847C340.98 120.034 340.505 120.128 339.946 120.128C339.425 120.128 338.974 120.044 338.593 119.876C338.215 119.708 337.916 119.473 337.698 119.173C337.483 118.872 337.361 118.523 337.333 118.125H338.242C338.265 118.4 338.358 118.627 338.519 118.807C338.682 118.984 338.888 119.117 339.137 119.205C339.388 119.29 339.657 119.332 339.946 119.332C340.282 119.332 340.584 119.278 340.852 119.169C341.119 119.058 341.331 118.904 341.487 118.707C341.644 118.509 341.722 118.277 341.722 118.011C341.722 117.77 341.654 117.573 341.519 117.422C341.384 117.27 341.207 117.147 340.987 117.053C340.767 116.958 340.529 116.875 340.273 116.804L339.378 116.548C338.81 116.385 338.36 116.152 338.029 115.849C337.697 115.546 337.532 115.149 337.532 114.659C337.532 114.252 337.642 113.897 337.862 113.594C338.084 113.288 338.383 113.052 338.757 112.884C339.133 112.713 339.553 112.628 340.017 112.628C340.486 112.628 340.903 112.712 341.267 112.88C341.632 113.046 341.921 113.273 342.134 113.562C342.349 113.851 342.463 114.179 342.475 114.545H341.622ZM345.895 120.114C345.37 120.114 344.916 119.998 344.535 119.766C344.157 119.531 343.864 119.205 343.658 118.786C343.455 118.364 343.353 117.874 343.353 117.315C343.353 116.757 343.455 116.264 343.658 115.838C343.864 115.41 344.151 115.076 344.518 114.837C344.887 114.595 345.318 114.474 345.81 114.474C346.094 114.474 346.375 114.522 346.652 114.616C346.929 114.711 347.181 114.865 347.408 115.078C347.635 115.289 347.817 115.568 347.951 115.916C348.086 116.264 348.154 116.693 348.154 117.202V117.557H343.949V116.832H347.302C347.302 116.525 347.24 116.25 347.117 116.009C346.996 115.767 346.823 115.576 346.599 115.437C346.376 115.297 346.113 115.227 345.81 115.227C345.476 115.227 345.188 115.31 344.944 115.476C344.702 115.639 344.516 115.852 344.386 116.115C344.256 116.378 344.191 116.66 344.191 116.96V117.443C344.191 117.855 344.262 118.204 344.404 118.491C344.548 118.775 344.748 118.991 345.004 119.141C345.26 119.287 345.557 119.361 345.895 119.361C346.116 119.361 346.314 119.33 346.492 119.268C346.672 119.205 346.827 119.11 346.957 118.984C347.087 118.857 347.188 118.698 347.259 118.509L348.069 118.736C347.983 119.01 347.84 119.252 347.639 119.46C347.438 119.666 347.189 119.827 346.893 119.943C346.597 120.057 346.265 120.114 345.895 120.114ZM349.967 116.719V120H349.129V114.545H349.938V115.398H350.009C350.137 115.121 350.331 114.898 350.592 114.73C350.852 114.56 351.188 114.474 351.6 114.474C351.97 114.474 352.293 114.55 352.57 114.702C352.847 114.851 353.062 115.078 353.216 115.384C353.37 115.687 353.447 116.07 353.447 116.534V120H352.609V116.591C352.609 116.162 352.498 115.829 352.275 115.589C352.053 115.348 351.747 115.227 351.359 115.227C351.091 115.227 350.852 115.285 350.642 115.401C350.433 115.517 350.269 115.687 350.148 115.909C350.027 116.132 349.967 116.402 349.967 116.719ZM356.738 120.114C356.283 120.114 355.882 119.999 355.534 119.769C355.186 119.537 354.914 119.21 354.717 118.789C354.521 118.365 354.423 117.865 354.423 117.287C354.423 116.714 354.521 116.217 354.717 115.795C354.914 115.374 355.187 115.049 355.538 114.819C355.888 114.589 356.293 114.474 356.752 114.474C357.107 114.474 357.388 114.534 357.594 114.652C357.802 114.768 357.961 114.901 358.07 115.05C358.181 115.196 358.267 115.317 358.329 115.412H358.4V112.727H359.238V120H358.428V119.162H358.329C358.267 119.261 358.18 119.387 358.066 119.538C357.953 119.687 357.79 119.821 357.58 119.94C357.369 120.056 357.088 120.114 356.738 120.114ZM356.852 119.361C357.188 119.361 357.472 119.273 357.704 119.098C357.936 118.92 358.112 118.675 358.233 118.363C358.354 118.048 358.414 117.685 358.414 117.273C358.414 116.866 358.355 116.509 358.237 116.204C358.118 115.896 357.943 115.657 357.711 115.487C357.479 115.314 357.193 115.227 356.852 115.227C356.497 115.227 356.201 115.318 355.964 115.501C355.729 115.681 355.553 115.926 355.435 116.236C355.319 116.544 355.261 116.889 355.261 117.273C355.261 117.661 355.32 118.014 355.438 118.331C355.559 118.646 355.737 118.897 355.971 119.084C356.208 119.268 356.501 119.361 356.852 119.361ZM362.818 113.509V112.727H368.272V113.509H365.985V120H365.105V113.509H362.818ZM369.218 120V114.545H370.056V120H369.218ZM369.644 113.636C369.481 113.636 369.34 113.581 369.221 113.469C369.105 113.358 369.047 113.224 369.047 113.068C369.047 112.912 369.105 112.778 369.221 112.667C369.34 112.556 369.481 112.5 369.644 112.5C369.807 112.5 369.947 112.556 370.063 112.667C370.181 112.778 370.241 112.912 370.241 113.068C370.241 113.224 370.181 113.358 370.063 113.469C369.947 113.581 369.807 113.636 369.644 113.636ZM371.291 120V114.545H372.101V115.398H372.172C372.285 115.107 372.469 114.88 372.722 114.719C372.975 114.556 373.28 114.474 373.635 114.474C373.994 114.474 374.294 114.556 374.533 114.719C374.775 114.88 374.963 115.107 375.098 115.398H375.155C375.294 115.116 375.504 114.892 375.783 114.727C376.062 114.558 376.397 114.474 376.788 114.474C377.276 114.474 377.675 114.627 377.985 114.933C378.295 115.236 378.45 115.708 378.45 116.349V120H377.612V116.349C377.612 115.947 377.502 115.659 377.282 115.487C377.061 115.314 376.802 115.227 376.504 115.227C376.12 115.227 375.823 115.343 375.613 115.575C375.402 115.805 375.297 116.096 375.297 116.449V120H374.444V116.264C374.444 115.954 374.344 115.704 374.142 115.515C373.941 115.323 373.682 115.227 373.365 115.227C373.147 115.227 372.943 115.285 372.754 115.401C372.567 115.517 372.415 115.678 372.299 115.884C372.186 116.088 372.129 116.323 372.129 116.591V120H371.291ZM381.969 120.114C381.444 120.114 380.99 119.998 380.609 119.766C380.23 119.531 379.938 119.205 379.732 118.786C379.528 118.364 379.427 117.874 379.427 117.315C379.427 116.757 379.528 116.264 379.732 115.838C379.938 115.41 380.224 115.076 380.591 114.837C380.961 114.595 381.392 114.474 381.884 114.474C382.168 114.474 382.449 114.522 382.726 114.616C383.003 114.711 383.255 114.865 383.482 115.078C383.709 115.289 383.89 115.568 384.025 115.916C384.16 116.264 384.228 116.693 384.228 117.202V117.557H380.023V116.832H383.375C383.375 116.525 383.314 116.25 383.191 116.009C383.07 115.767 382.897 115.576 382.672 115.437C382.45 115.297 382.187 115.227 381.884 115.227C381.55 115.227 381.261 115.31 381.017 115.476C380.776 115.639 380.59 115.852 380.46 116.115C380.33 116.378 380.265 116.66 380.265 116.96V117.443C380.265 117.855 380.336 118.204 380.478 118.491C380.622 118.775 380.822 118.991 381.078 119.141C381.334 119.287 381.631 119.361 381.969 119.361C382.189 119.361 382.388 119.33 382.566 119.268C382.746 119.205 382.901 119.11 383.031 118.984C383.161 118.857 383.262 118.698 383.333 118.509L384.142 118.736C384.057 119.01 383.914 119.252 383.713 119.46C383.512 119.666 383.263 119.827 382.967 119.943C382.671 120.057 382.339 120.114 381.969 120.114ZM428.771 112.727V120H427.919L423.955 114.29H423.884V120H423.004V112.727H423.856L427.833 118.452H427.904V112.727H428.771ZM432.335 120.114C431.843 120.114 431.411 119.996 431.039 119.762C430.67 119.528 430.381 119.2 430.173 118.778C429.967 118.357 429.864 117.865 429.864 117.301C429.864 116.733 429.967 116.237 430.173 115.813C430.381 115.389 430.67 115.06 431.039 114.826C431.411 114.592 431.843 114.474 432.335 114.474C432.828 114.474 433.259 114.592 433.628 114.826C434 115.06 434.288 115.389 434.494 115.813C434.703 116.237 434.807 116.733 434.807 117.301C434.807 117.865 434.703 118.357 434.494 118.778C434.288 119.2 434 119.528 433.628 119.762C433.259 119.996 432.828 120.114 432.335 120.114ZM432.335 119.361C432.709 119.361 433.017 119.265 433.259 119.073C433.5 118.881 433.679 118.629 433.795 118.317C433.911 118.004 433.969 117.666 433.969 117.301C433.969 116.937 433.911 116.597 433.795 116.282C433.679 115.967 433.5 115.713 433.259 115.518C433.017 115.324 432.709 115.227 432.335 115.227C431.961 115.227 431.653 115.324 431.412 115.518C431.171 115.713 430.992 115.967 430.876 116.282C430.76 116.597 430.702 116.937 430.702 117.301C430.702 117.666 430.76 118.004 430.876 118.317C430.992 118.629 431.171 118.881 431.412 119.073C431.653 119.265 431.961 119.361 432.335 119.361ZM438.158 114.545V115.256H435.332V114.545H438.158ZM436.155 113.239H436.994V118.438C436.994 118.674 437.028 118.852 437.097 118.97C437.168 119.086 437.258 119.164 437.366 119.205C437.478 119.242 437.595 119.261 437.718 119.261C437.81 119.261 437.886 119.257 437.945 119.247C438.004 119.235 438.052 119.226 438.087 119.219L438.258 119.972C438.201 119.993 438.122 120.014 438.02 120.036C437.918 120.059 437.789 120.071 437.633 120.071C437.396 120.071 437.164 120.02 436.937 119.918C436.712 119.817 436.525 119.661 436.376 119.453C436.229 119.245 436.155 118.982 436.155 118.665V113.239ZM441.347 120.114C440.822 120.114 440.368 119.998 439.987 119.766C439.608 119.531 439.316 119.205 439.11 118.786C438.907 118.364 438.805 117.874 438.805 117.315C438.805 116.757 438.907 116.264 439.11 115.838C439.316 115.41 439.603 115.076 439.97 114.837C440.339 114.595 440.77 114.474 441.262 114.474C441.546 114.474 441.827 114.522 442.104 114.616C442.381 114.711 442.633 114.865 442.86 115.078C443.087 115.289 443.269 115.568 443.403 115.916C443.538 116.264 443.606 116.693 443.606 117.202V117.557H439.401V116.832H442.754C442.754 116.525 442.692 116.25 442.569 116.009C442.448 115.767 442.275 115.576 442.05 115.437C441.828 115.297 441.565 115.227 441.262 115.227C440.928 115.227 440.639 115.31 440.396 115.476C440.154 115.639 439.968 115.852 439.838 116.115C439.708 116.378 439.643 116.66 439.643 116.96V117.443C439.643 117.855 439.714 118.204 439.856 118.491C440 118.775 440.2 118.991 440.456 119.141C440.712 119.287 441.009 119.361 441.347 119.361C441.568 119.361 441.766 119.33 441.944 119.268C442.124 119.205 442.279 119.11 442.409 118.984C442.539 118.857 442.64 118.698 442.711 118.509L443.521 118.736C443.435 119.01 443.292 119.252 443.091 119.46C442.89 119.666 442.641 119.827 442.345 119.943C442.049 120.057 441.717 120.114 441.347 120.114ZM448.444 115.767L447.692 115.98C447.644 115.855 447.574 115.733 447.482 115.614C447.392 115.494 447.269 115.394 447.113 115.316C446.956 115.238 446.756 115.199 446.513 115.199C446.179 115.199 445.901 115.276 445.678 115.43C445.458 115.581 445.348 115.774 445.348 116.009C445.348 116.217 445.424 116.381 445.575 116.502C445.727 116.623 445.963 116.723 446.285 116.804L447.095 117.003C447.583 117.121 447.946 117.302 448.185 117.546C448.424 117.788 448.544 118.099 448.544 118.48C448.544 118.793 448.454 119.072 448.274 119.318C448.096 119.564 447.848 119.759 447.528 119.901C447.209 120.043 446.837 120.114 446.413 120.114C445.857 120.114 445.396 119.993 445.032 119.751C444.667 119.51 444.436 119.157 444.339 118.693L445.135 118.494C445.21 118.788 445.354 119.008 445.564 119.155C445.777 119.302 446.056 119.375 446.399 119.375C446.79 119.375 447.1 119.292 447.329 119.126C447.561 118.958 447.677 118.757 447.677 118.523C447.677 118.333 447.611 118.175 447.478 118.047C447.346 117.917 447.142 117.82 446.868 117.756L445.959 117.543C445.459 117.424 445.092 117.241 444.858 116.992C444.626 116.741 444.51 116.428 444.51 116.051C444.51 115.743 444.596 115.471 444.769 115.234C444.944 114.998 445.182 114.812 445.483 114.677C445.786 114.542 446.129 114.474 446.513 114.474C447.052 114.474 447.476 114.593 447.784 114.83C448.094 115.066 448.314 115.379 448.444 115.767ZM34.179 144H33.2557L35.9261 136.727H36.8352L39.5057 144H38.5824L36.4091 137.878H36.3523L34.179 144ZM34.5199 141.159H38.2415V141.94H34.5199V141.159ZM42.4408 144.114C41.9294 144.114 41.4891 143.993 41.1197 143.751C40.7504 143.51 40.4663 143.177 40.2675 142.754C40.0686 142.33 39.9692 141.846 39.9692 141.301C39.9692 140.747 40.071 140.258 40.2746 139.835C40.4805 139.408 40.767 139.076 41.1339 138.837C41.5033 138.595 41.9341 138.474 42.4266 138.474C42.8101 138.474 43.1557 138.545 43.4635 138.688C43.7713 138.83 44.0234 139.028 44.2199 139.284C44.4164 139.54 44.5383 139.838 44.5857 140.179H43.7476C43.6837 139.93 43.5416 139.71 43.3214 139.518C43.1036 139.324 42.8101 139.227 42.4408 139.227C42.1141 139.227 41.8276 139.312 41.5814 139.483C41.3375 139.651 41.147 139.889 41.0097 140.197C40.8747 140.502 40.8072 140.861 40.8072 141.273C40.8072 141.694 40.8735 142.061 41.0061 142.374C41.1411 142.686 41.3304 142.929 41.5743 143.102C41.8205 143.274 42.1093 143.361 42.4408 143.361C42.6586 143.361 42.8562 143.323 43.0338 143.247C43.2114 143.171 43.3617 143.062 43.4848 142.92C43.6079 142.778 43.6955 142.608 43.7476 142.409H44.5857C44.5383 142.731 44.4211 143.021 44.2341 143.279C44.0494 143.535 43.8044 143.738 43.499 143.89C43.196 144.039 42.8432 144.114 42.4408 144.114ZM45.5108 144V138.545H46.3205V139.398H46.3915C46.5051 139.107 46.6886 138.88 46.9419 138.719C47.1952 138.556 47.4994 138.474 47.8545 138.474C48.2144 138.474 48.5139 138.556 48.753 138.719C48.9945 138.88 49.1827 139.107 49.3176 139.398H49.3744C49.5141 139.116 49.7236 138.892 50.003 138.727C50.2823 138.558 50.6173 138.474 51.008 138.474C51.4956 138.474 51.8946 138.627 52.2047 138.933C52.5148 139.236 52.6699 139.708 52.6699 140.349V144H51.8318V140.349C51.8318 139.947 51.7217 139.659 51.5016 139.487C51.2814 139.314 51.0222 139.227 50.7239 139.227C50.3403 139.227 50.0432 139.343 49.8325 139.575C49.6218 139.805 49.5165 140.096 49.5165 140.449V144H48.6642V140.264C48.6642 139.954 48.5636 139.704 48.3624 139.515C48.1611 139.323 47.9019 139.227 47.5847 139.227C47.3669 139.227 47.1633 139.285 46.9739 139.401C46.7868 139.517 46.6353 139.678 46.5193 139.884C46.4057 140.088 46.3489 140.323 46.3489 140.591V144H45.5108ZM56.1891 144.114C55.6636 144.114 55.2102 143.998 54.829 143.766C54.4503 143.531 54.1579 143.205 53.9519 142.786C53.7483 142.364 53.6465 141.874 53.6465 141.315C53.6465 140.757 53.7483 140.264 53.9519 139.838C54.1579 139.41 54.4443 139.076 54.8113 138.837C55.1806 138.595 55.6115 138.474 56.1039 138.474C56.388 138.474 56.6685 138.522 56.9455 138.616C57.2225 138.711 57.4746 138.865 57.7019 139.078C57.9292 139.289 58.1103 139.568 58.2452 139.916C58.3802 140.264 58.4477 140.693 58.4477 141.202V141.557H54.2431V140.832H57.5954C57.5954 140.525 57.5338 140.25 57.4107 140.009C57.29 139.767 57.1172 139.576 56.8923 139.437C56.6697 139.297 56.4069 139.227 56.1039 139.227C55.7701 139.227 55.4813 139.31 55.2374 139.476C54.996 139.639 54.8101 139.852 54.6799 140.115C54.5497 140.378 54.4846 140.66 54.4846 140.96V141.443C54.4846 141.855 54.5556 142.204 54.6977 142.491C54.8421 142.775 55.0421 142.991 55.2978 143.141C55.5535 143.287 55.8506 143.361 56.1891 143.361C56.4093 143.361 56.6082 143.33 56.7857 143.268C56.9656 143.205 57.1207 143.11 57.2509 142.984C57.3811 142.857 57.4817 142.698 57.5528 142.509L58.3624 142.736C58.2772 143.01 58.134 143.252 57.9327 143.46C57.7315 143.666 57.4829 143.827 57.187 143.943C56.8911 144.057 56.5585 144.114 56.1891 144.114ZM96.7282 144.909V135.818H97.3106V144.909H96.7282ZM98.6884 138.545C98.6458 138.186 98.473 137.906 98.17 137.707C97.8669 137.509 97.4952 137.409 97.0549 137.409C96.7329 137.409 96.4512 137.461 96.2097 137.565C95.9706 137.67 95.7836 137.813 95.6486 137.995C95.5161 138.177 95.4498 138.384 95.4498 138.616C95.4498 138.811 95.496 138.978 95.5883 139.117C95.683 139.254 95.8037 139.369 95.9505 139.462C96.0973 139.552 96.2512 139.626 96.4121 139.685C96.5731 139.742 96.7211 139.788 96.856 139.824L97.5947 140.023C97.7841 140.072 97.9948 140.141 98.2268 140.229C98.4611 140.316 98.6849 140.436 98.8979 140.587C99.1134 140.737 99.2909 140.928 99.4306 141.163C99.5703 141.397 99.6401 141.685 99.6401 142.026C99.6401 142.419 99.5371 142.774 99.3312 143.091C99.1276 143.408 98.8293 143.66 98.4363 143.847C98.0457 144.034 97.571 144.128 97.0123 144.128C96.4915 144.128 96.0405 144.044 95.6593 143.876C95.2805 143.708 94.9822 143.473 94.7644 143.173C94.549 142.872 94.4271 142.523 94.3986 142.125H95.3077C95.3314 142.4 95.4237 142.627 95.5847 142.807C95.7481 142.984 95.954 143.117 96.2026 143.205C96.4536 143.29 96.7235 143.332 97.0123 143.332C97.3485 143.332 97.6503 143.278 97.9178 143.169C98.1853 143.058 98.3972 142.904 98.5535 142.707C98.7097 142.509 98.7879 142.277 98.7879 142.011C98.7879 141.77 98.7204 141.573 98.5854 141.422C98.4505 141.27 98.2729 141.147 98.0528 141.053C97.8326 140.958 97.5947 140.875 97.339 140.804L96.4441 140.548C95.8759 140.385 95.4261 140.152 95.0947 139.849C94.7632 139.546 94.5975 139.149 94.5975 138.659C94.5975 138.252 94.7076 137.897 94.9278 137.594C95.1503 137.288 95.4486 137.052 95.8227 136.884C96.1991 136.713 96.6193 136.628 97.0833 136.628C97.5521 136.628 97.9687 136.712 98.3333 136.88C98.6979 137.046 98.9867 137.273 99.1998 137.562C99.4152 137.851 99.5289 138.179 99.5407 138.545H98.6884ZM103.217 136.727V144H102.336V137.651H102.294L100.518 138.83V137.935L102.336 136.727H103.217ZM105.843 143.006L105.786 143.389C105.746 143.659 105.685 143.948 105.602 144.256C105.521 144.563 105.437 144.853 105.35 145.126C105.262 145.398 105.19 145.615 105.133 145.776H104.494C104.525 145.624 104.565 145.424 104.615 145.175C104.664 144.927 104.714 144.649 104.764 144.341C104.816 144.036 104.858 143.723 104.892 143.403L104.934 143.006H105.843ZM107.082 144V143.361L109.482 140.733C109.764 140.425 109.996 140.158 110.178 139.93C110.361 139.701 110.496 139.485 110.583 139.284C110.673 139.08 110.718 138.867 110.718 138.645C110.718 138.389 110.657 138.168 110.533 137.981C110.413 137.794 110.247 137.649 110.036 137.548C109.826 137.446 109.589 137.395 109.326 137.395C109.047 137.395 108.803 137.453 108.595 137.569C108.389 137.683 108.229 137.842 108.115 138.048C108.004 138.254 107.948 138.496 107.948 138.773H107.11C107.11 138.347 107.208 137.973 107.405 137.651C107.601 137.329 107.869 137.078 108.207 136.898C108.548 136.718 108.931 136.628 109.354 136.628C109.781 136.628 110.158 136.718 110.487 136.898C110.816 137.078 111.074 137.32 111.261 137.626C111.448 137.931 111.542 138.271 111.542 138.645C111.542 138.912 111.493 139.174 111.396 139.43C111.302 139.683 111.136 139.966 110.899 140.278C110.665 140.589 110.339 140.967 109.923 141.415L108.289 143.162V143.219H111.67V144H107.082ZM115.109 144.099C114.692 144.099 114.317 144.017 113.983 143.851C113.65 143.685 113.382 143.458 113.181 143.169C112.98 142.88 112.87 142.551 112.851 142.182H113.703C113.736 142.511 113.885 142.783 114.15 142.999C114.418 143.212 114.737 143.318 115.109 143.318C115.407 143.318 115.673 143.248 115.905 143.109C116.139 142.969 116.322 142.777 116.455 142.533C116.59 142.287 116.657 142.009 116.657 141.699C116.657 141.382 116.588 141.099 116.448 140.85C116.311 140.599 116.121 140.402 115.88 140.257C115.638 140.113 115.362 140.039 115.052 140.037C114.83 140.035 114.601 140.069 114.367 140.14C114.133 140.209 113.94 140.297 113.788 140.406L112.964 140.307L113.405 136.727H117.183V137.509H114.143L113.888 139.653H113.93C114.079 139.535 114.266 139.437 114.491 139.359C114.716 139.281 114.951 139.241 115.194 139.241C115.639 139.241 116.036 139.348 116.384 139.561C116.734 139.772 117.009 140.061 117.208 140.428C117.409 140.795 117.51 141.214 117.51 141.685C117.51 142.149 117.406 142.563 117.197 142.928C116.991 143.29 116.707 143.576 116.345 143.787C115.983 143.995 115.571 144.099 115.109 144.099ZM120.993 144.099C120.458 144.099 120.002 143.954 119.625 143.663C119.249 143.369 118.961 142.944 118.762 142.388C118.564 141.829 118.464 141.154 118.464 140.364C118.464 139.578 118.564 138.906 118.762 138.35C118.964 137.791 119.253 137.365 119.629 137.072C120.008 136.776 120.462 136.628 120.993 136.628C121.523 136.628 121.976 136.776 122.353 137.072C122.731 137.365 123.02 137.791 123.219 138.35C123.42 138.906 123.521 139.578 123.521 140.364C123.521 141.154 123.422 141.829 123.223 142.388C123.024 142.944 122.736 143.369 122.36 143.663C121.983 143.954 121.528 144.099 120.993 144.099ZM120.993 143.318C121.523 143.318 121.935 143.062 122.228 142.551C122.522 142.04 122.669 141.311 122.669 140.364C122.669 139.734 122.601 139.198 122.466 138.755C122.334 138.312 122.142 137.975 121.891 137.743C121.642 137.511 121.343 137.395 120.993 137.395C120.467 137.395 120.056 137.654 119.76 138.173C119.464 138.689 119.316 139.419 119.316 140.364C119.316 140.993 119.383 141.528 119.515 141.969C119.648 142.409 119.838 142.744 120.087 142.974C120.338 143.203 120.64 143.318 120.993 143.318ZM124.942 144.057C124.766 144.057 124.616 143.994 124.491 143.869C124.365 143.743 124.302 143.593 124.302 143.418C124.302 143.242 124.365 143.092 124.491 142.967C124.616 142.841 124.766 142.778 124.942 142.778C125.117 142.778 125.267 142.841 125.393 142.967C125.518 143.092 125.581 143.242 125.581 143.418C125.581 143.534 125.551 143.64 125.492 143.737C125.435 143.834 125.358 143.912 125.261 143.972C125.166 144.028 125.06 144.057 124.942 144.057ZM128.889 144.099C128.354 144.099 127.898 143.954 127.521 143.663C127.145 143.369 126.857 142.944 126.659 142.388C126.46 141.829 126.36 141.154 126.36 140.364C126.36 139.578 126.46 138.906 126.659 138.35C126.86 137.791 127.149 137.365 127.525 137.072C127.904 136.776 128.358 136.628 128.889 136.628C129.419 136.628 129.872 136.776 130.249 137.072C130.628 137.365 130.916 137.791 131.115 138.35C131.316 138.906 131.417 139.578 131.417 140.364C131.417 141.154 131.318 141.829 131.119 142.388C130.92 142.944 130.632 143.369 130.256 143.663C129.879 143.954 129.424 144.099 128.889 144.099ZM128.889 143.318C129.419 143.318 129.831 143.062 130.124 142.551C130.418 142.04 130.565 141.311 130.565 140.364C130.565 139.734 130.497 139.198 130.362 138.755C130.23 138.312 130.038 137.975 129.787 137.743C129.539 137.511 129.239 137.395 128.889 137.395C128.363 137.395 127.952 137.654 127.656 138.173C127.36 138.689 127.213 139.419 127.213 140.364C127.213 140.993 127.279 141.528 127.411 141.969C127.544 142.409 127.735 142.744 127.983 142.974C128.234 143.203 128.536 143.318 128.889 143.318ZM134.839 144.099C134.304 144.099 133.848 143.954 133.471 143.663C133.095 143.369 132.807 142.944 132.609 142.388C132.41 141.829 132.31 141.154 132.31 140.364C132.31 139.578 132.41 138.906 132.609 138.35C132.81 137.791 133.099 137.365 133.475 137.072C133.854 136.776 134.308 136.628 134.839 136.628C135.369 136.628 135.822 136.776 136.199 137.072C136.578 137.365 136.866 137.791 137.065 138.35C137.266 138.906 137.367 139.578 137.367 140.364C137.367 141.154 137.268 141.829 137.069 142.388C136.87 142.944 136.582 143.369 136.206 143.663C135.829 143.954 135.374 144.099 134.839 144.099ZM134.839 143.318C135.369 143.318 135.781 143.062 136.074 142.551C136.368 142.04 136.515 141.311 136.515 140.364C136.515 139.734 136.447 139.198 136.312 138.755C136.18 138.312 135.988 137.975 135.737 137.743C135.489 137.511 135.189 137.395 134.839 137.395C134.313 137.395 133.902 137.654 133.606 138.173C133.31 138.689 133.163 139.419 133.163 140.364C133.163 140.993 133.229 141.528 133.361 141.969C133.494 142.409 133.685 142.744 133.933 142.974C134.184 143.203 134.486 143.318 134.839 143.318ZM168.426 144.099C167.891 144.099 167.435 143.954 167.059 143.663C166.683 143.369 166.395 142.944 166.196 142.388C165.997 141.829 165.898 141.154 165.898 140.364C165.898 139.578 165.997 138.906 166.196 138.35C166.397 137.791 166.686 137.365 167.063 137.072C167.441 136.776 167.896 136.628 168.426 136.628C168.956 136.628 169.41 136.776 169.786 137.072C170.165 137.365 170.454 137.791 170.653 138.35C170.854 138.906 170.955 139.578 170.955 140.364C170.955 141.154 170.855 141.829 170.656 142.388C170.457 142.944 170.17 143.369 169.793 143.663C169.417 143.954 168.961 144.099 168.426 144.099ZM168.426 143.318C168.956 143.318 169.368 143.062 169.662 142.551C169.956 142.04 170.102 141.311 170.102 140.364C170.102 139.734 170.035 139.198 169.9 138.755C169.767 138.312 169.576 137.975 169.325 137.743C169.076 137.511 168.777 137.395 168.426 137.395C167.901 137.395 167.49 137.654 167.194 138.173C166.898 138.689 166.75 139.419 166.75 140.364C166.75 140.993 166.816 141.528 166.949 141.969C167.081 142.409 167.272 142.744 167.521 142.974C167.772 143.203 168.073 143.318 168.426 143.318ZM174.334 144.099C173.846 144.099 173.415 144.013 173.041 143.84C172.669 143.665 172.379 143.425 172.171 143.119C171.963 142.812 171.86 142.461 171.862 142.068C171.86 141.76 171.92 141.476 172.043 141.216C172.166 140.953 172.334 140.734 172.547 140.559C172.763 140.381 173.003 140.269 173.268 140.222V140.179C172.92 140.089 172.643 139.894 172.437 139.593C172.231 139.29 172.129 138.946 172.132 138.56C172.129 138.19 172.223 137.86 172.412 137.569C172.602 137.278 172.862 137.048 173.194 136.88C173.527 136.712 173.907 136.628 174.334 136.628C174.755 136.628 175.131 136.712 175.463 136.88C175.794 137.048 176.055 137.278 176.244 137.569C176.436 137.86 176.533 138.19 176.535 138.56C176.533 138.946 176.428 139.29 176.219 139.593C176.013 139.894 175.74 140.089 175.399 140.179V140.222C175.662 140.269 175.898 140.381 176.109 140.559C176.32 140.734 176.488 140.953 176.613 141.216C176.739 141.476 176.803 141.76 176.805 142.068C176.803 142.461 176.696 142.812 176.486 143.119C176.277 143.425 175.987 143.665 175.616 143.84C175.246 144.013 174.819 144.099 174.334 144.099ZM174.334 143.318C174.663 143.318 174.947 143.265 175.186 143.158C175.425 143.052 175.61 142.902 175.74 142.707C175.87 142.513 175.936 142.286 175.939 142.026C175.936 141.751 175.865 141.508 175.726 141.298C175.586 141.087 175.395 140.921 175.154 140.8C174.915 140.68 174.641 140.619 174.334 140.619C174.023 140.619 173.746 140.68 173.503 140.8C173.261 140.921 173.071 141.087 172.931 141.298C172.794 141.508 172.726 141.751 172.728 142.026C172.726 142.286 172.789 142.513 172.917 142.707C173.047 142.902 173.233 143.052 173.474 143.158C173.716 143.265 174.002 143.318 174.334 143.318ZM174.334 139.866C174.594 139.866 174.825 139.814 175.026 139.71C175.23 139.606 175.389 139.46 175.505 139.273C175.621 139.086 175.681 138.867 175.683 138.616C175.681 138.37 175.623 138.156 175.509 137.974C175.395 137.789 175.238 137.647 175.037 137.548C174.835 137.446 174.601 137.395 174.334 137.395C174.061 137.395 173.823 137.446 173.62 137.548C173.416 137.647 173.259 137.789 173.147 137.974C173.036 138.156 172.982 138.37 172.984 138.616C172.982 138.867 173.037 139.086 173.151 139.273C173.267 139.46 173.427 139.606 173.63 139.71C173.834 139.814 174.068 139.866 174.334 139.866ZM180.451 136.386L178.108 145.094H177.341L179.684 136.386H180.451ZM183.503 144.099C182.968 144.099 182.512 143.954 182.136 143.663C181.759 143.369 181.471 142.944 181.273 142.388C181.074 141.829 180.974 141.154 180.974 140.364C180.974 139.578 181.074 138.906 181.273 138.35C181.474 137.791 181.763 137.365 182.139 137.072C182.518 136.776 182.972 136.628 183.503 136.628C184.033 136.628 184.486 136.776 184.863 137.072C185.242 137.365 185.53 137.791 185.729 138.35C185.931 138.906 186.031 139.578 186.031 140.364C186.031 141.154 185.932 141.829 185.733 142.388C185.534 142.944 185.246 143.369 184.87 143.663C184.493 143.954 184.038 144.099 183.503 144.099ZM183.503 143.318C184.033 143.318 184.445 143.062 184.739 142.551C185.032 142.04 185.179 141.311 185.179 140.364C185.179 139.734 185.111 139.198 184.976 138.755C184.844 138.312 184.652 137.975 184.401 137.743C184.153 137.511 183.853 137.395 183.503 137.395C182.977 137.395 182.566 137.654 182.27 138.173C181.975 138.689 181.827 139.419 181.827 140.364C181.827 140.993 181.893 141.528 182.025 141.969C182.158 142.409 182.349 142.744 182.597 142.974C182.848 143.203 183.15 143.318 183.503 143.318ZM189.637 136.727V144H188.757V137.651H188.714L186.939 138.83V137.935L188.757 136.727H189.637ZM194.014 136.386L191.67 145.094H190.903L193.247 136.386H194.014ZM194.693 144V143.361L197.094 140.733C197.376 140.425 197.608 140.158 197.79 139.93C197.972 139.701 198.107 139.485 198.195 139.284C198.285 139.08 198.33 138.867 198.33 138.645C198.33 138.389 198.268 138.168 198.145 137.981C198.024 137.794 197.859 137.649 197.648 137.548C197.437 137.446 197.201 137.395 196.938 137.395C196.658 137.395 196.415 137.453 196.206 137.569C196 137.683 195.84 137.842 195.727 138.048C195.616 138.254 195.56 138.496 195.56 138.773H194.722C194.722 138.347 194.82 137.973 195.017 137.651C195.213 137.329 195.481 137.078 195.819 136.898C196.16 136.718 196.542 136.628 196.966 136.628C197.392 136.628 197.77 136.718 198.099 136.898C198.428 137.078 198.686 137.32 198.873 137.626C199.06 137.931 199.154 138.271 199.154 138.645C199.154 138.912 199.105 139.174 199.008 139.43C198.913 139.683 198.748 139.966 198.511 140.278C198.277 140.589 197.951 140.967 197.534 141.415L195.901 143.162V143.219H199.282V144H194.693ZM202.82 144.099C202.285 144.099 201.83 143.954 201.453 143.663C201.077 143.369 200.789 142.944 200.59 142.388C200.391 141.829 200.292 141.154 200.292 140.364C200.292 139.578 200.391 138.906 200.59 138.35C200.791 137.791 201.08 137.365 201.457 137.072C201.835 136.776 202.29 136.628 202.82 136.628C203.351 136.628 203.804 136.776 204.18 137.072C204.559 137.365 204.848 137.791 205.047 138.35C205.248 138.906 205.349 139.578 205.349 140.364C205.349 141.154 205.249 141.829 205.05 142.388C204.852 142.944 204.564 143.369 204.188 143.663C203.811 143.954 203.355 144.099 202.82 144.099ZM202.82 143.318C203.351 143.318 203.763 143.062 204.056 142.551C204.35 142.04 204.496 141.311 204.496 140.364C204.496 139.734 204.429 139.198 204.294 138.755C204.161 138.312 203.97 137.975 203.719 137.743C203.47 137.511 203.171 137.395 202.82 137.395C202.295 137.395 201.884 137.654 201.588 138.173C201.292 138.689 201.144 139.419 201.144 140.364C201.144 140.993 201.21 141.528 201.343 141.969C201.476 142.409 201.666 142.744 201.915 142.974C202.166 143.203 202.468 143.318 202.82 143.318ZM206.398 144V143.361L208.799 140.733C209.08 140.425 209.312 140.158 209.495 139.93C209.677 139.701 209.812 139.485 209.9 139.284C209.99 139.08 210.035 138.867 210.035 138.645C210.035 138.389 209.973 138.168 209.85 137.981C209.729 137.794 209.563 137.649 209.353 137.548C209.142 137.446 208.905 137.395 208.642 137.395C208.363 137.395 208.119 137.453 207.911 137.569C207.705 137.683 207.545 137.842 207.432 138.048C207.32 138.254 207.265 138.496 207.265 138.773H206.427C206.427 138.347 206.525 137.973 206.721 137.651C206.918 137.329 207.185 137.078 207.524 136.898C207.865 136.718 208.247 136.628 208.671 136.628C209.097 136.628 209.475 136.718 209.804 136.898C210.133 137.078 210.391 137.32 210.578 137.626C210.765 137.931 210.858 138.271 210.858 138.645C210.858 138.912 210.81 139.174 210.713 139.43C210.618 139.683 210.452 139.966 210.216 140.278C209.981 140.589 209.656 140.967 209.239 141.415L207.606 143.162V143.219H210.986V144H206.398ZM214.426 144.099C214.009 144.099 213.634 144.017 213.3 143.851C212.966 143.685 212.699 143.458 212.497 143.169C212.296 142.88 212.186 142.551 212.167 142.182H213.019C213.052 142.511 213.202 142.783 213.467 142.999C213.734 143.212 214.054 143.318 214.426 143.318C214.724 143.318 214.989 143.248 215.221 143.109C215.455 142.969 215.639 142.777 215.771 142.533C215.906 142.287 215.974 142.009 215.974 141.699C215.974 141.382 215.904 141.099 215.764 140.85C215.627 140.599 215.438 140.402 215.196 140.257C214.955 140.113 214.679 140.039 214.369 140.037C214.146 140.035 213.918 140.069 213.683 140.14C213.449 140.209 213.256 140.297 213.105 140.406L212.281 140.307L212.721 136.727H216.499V137.509H213.46L213.204 139.653H213.247C213.396 139.535 213.583 139.437 213.808 139.359C214.033 139.281 214.267 139.241 214.511 139.241C214.956 139.241 215.352 139.348 215.7 139.561C216.051 139.772 216.325 140.061 216.524 140.428C216.726 140.795 216.826 141.214 216.826 141.685C216.826 142.149 216.722 142.563 216.514 142.928C216.308 143.29 216.024 143.576 215.661 143.787C215.299 143.995 214.887 144.099 214.426 144.099ZM255.752 136.727H256.803L259.275 142.764H259.36L261.832 136.727H262.883V144H262.059V138.474H261.988L259.715 144H258.92L256.647 138.474H256.576V144H255.752V136.727ZM266.451 144.114C265.959 144.114 265.526 143.996 265.155 143.762C264.785 143.528 264.497 143.2 264.288 142.778C264.082 142.357 263.979 141.865 263.979 141.301C263.979 140.733 264.082 140.237 264.288 139.813C264.497 139.389 264.785 139.06 265.155 138.826C265.526 138.592 265.959 138.474 266.451 138.474C266.943 138.474 267.374 138.592 267.744 138.826C268.115 139.06 268.404 139.389 268.61 139.813C268.818 140.237 268.923 140.733 268.923 141.301C268.923 141.865 268.818 142.357 268.61 142.778C268.404 143.2 268.115 143.528 267.744 143.762C267.374 143.996 266.943 144.114 266.451 144.114ZM266.451 143.361C266.825 143.361 267.133 143.265 267.374 143.073C267.616 142.881 267.794 142.629 267.91 142.317C268.026 142.004 268.084 141.666 268.084 141.301C268.084 140.937 268.026 140.597 267.91 140.282C267.794 139.967 267.616 139.713 267.374 139.518C267.133 139.324 266.825 139.227 266.451 139.227C266.077 139.227 265.769 139.324 265.528 139.518C265.286 139.713 265.107 139.967 264.991 140.282C264.875 140.597 264.817 140.937 264.817 141.301C264.817 141.666 264.875 142.004 264.991 142.317C265.107 142.629 265.286 142.881 265.528 143.073C265.769 143.265 266.077 143.361 266.451 143.361ZM270.74 140.719V144H269.902V138.545H270.711V139.398H270.782C270.91 139.121 271.104 138.898 271.365 138.73C271.625 138.56 271.961 138.474 272.373 138.474C272.743 138.474 273.066 138.55 273.343 138.702C273.62 138.851 273.835 139.078 273.989 139.384C274.143 139.687 274.22 140.07 274.22 140.534V144H273.382V140.591C273.382 140.162 273.271 139.829 273.048 139.589C272.826 139.348 272.52 139.227 272.132 139.227C271.864 139.227 271.625 139.285 271.415 139.401C271.206 139.517 271.042 139.687 270.921 139.909C270.8 140.132 270.74 140.402 270.74 140.719ZM277.824 138.545V139.256H274.997V138.545H277.824ZM275.821 137.239H276.659V142.438C276.659 142.674 276.693 142.852 276.762 142.97C276.833 143.086 276.923 143.164 277.032 143.205C277.143 143.242 277.26 143.261 277.383 143.261C277.476 143.261 277.551 143.257 277.611 143.247C277.67 143.235 277.717 143.226 277.753 143.219L277.923 143.972C277.866 143.993 277.787 144.014 277.685 144.036C277.583 144.059 277.454 144.071 277.298 144.071C277.061 144.071 276.829 144.02 276.602 143.918C276.377 143.817 276.19 143.661 276.041 143.453C275.894 143.245 275.821 142.982 275.821 142.665V137.239ZM279.739 140.719V144H278.901V136.727H279.739V139.398H279.811C279.938 139.116 280.13 138.892 280.386 138.727C280.644 138.558 280.987 138.474 281.416 138.474C281.787 138.474 282.113 138.549 282.392 138.698C282.672 138.845 282.888 139.071 283.042 139.376C283.198 139.679 283.276 140.065 283.276 140.534V144H282.438V140.591C282.438 140.158 282.326 139.823 282.101 139.586C281.878 139.347 281.57 139.227 281.174 139.227C280.9 139.227 280.653 139.285 280.436 139.401C280.22 139.517 280.05 139.687 279.924 139.909C279.801 140.132 279.739 140.402 279.739 140.719ZM285.348 136.727V144H284.51V136.727H285.348ZM287.122 146.045C286.98 146.045 286.854 146.034 286.742 146.01C286.631 145.989 286.554 145.967 286.512 145.946L286.725 145.207C286.928 145.259 287.108 145.278 287.264 145.264C287.421 145.25 287.559 145.18 287.68 145.055C287.803 144.932 287.916 144.732 288.017 144.455L288.174 144.028L286.157 138.545H287.066L288.571 142.892H288.628L290.134 138.545H291.043L288.728 144.795C288.623 145.077 288.494 145.31 288.34 145.495C288.187 145.682 288.008 145.821 287.804 145.911C287.603 146 287.376 146.045 287.122 146.045ZM341.945 144.099C341.409 144.099 340.954 143.954 340.577 143.663C340.201 143.369 339.913 142.944 339.714 142.388C339.516 141.829 339.416 141.154 339.416 140.364C339.416 139.578 339.516 138.906 339.714 138.35C339.916 137.791 340.204 137.365 340.581 137.072C340.96 136.776 341.414 136.628 341.945 136.628C342.475 136.628 342.928 136.776 343.305 137.072C343.683 137.365 343.972 137.791 344.171 138.35C344.372 138.906 344.473 139.578 344.473 140.364C344.473 141.154 344.373 141.829 344.175 142.388C343.976 142.944 343.688 143.369 343.312 143.663C342.935 143.954 342.48 144.099 341.945 144.099ZM341.945 143.318C342.475 143.318 342.887 143.062 343.18 142.551C343.474 142.04 343.621 141.311 343.621 140.364C343.621 139.734 343.553 139.198 343.418 138.755C343.286 138.312 343.094 137.975 342.843 137.743C342.594 137.511 342.295 137.395 341.945 137.395C341.419 137.395 341.008 137.654 340.712 138.173C340.416 138.689 340.268 139.419 340.268 140.364C340.268 140.993 340.335 141.528 340.467 141.969C340.6 142.409 340.79 142.744 341.039 142.974C341.29 143.203 341.592 143.318 341.945 143.318ZM347.838 136.628C348.136 136.63 348.434 136.687 348.733 136.798C349.031 136.91 349.303 137.094 349.549 137.352C349.796 137.608 349.993 137.957 350.142 138.4C350.292 138.843 350.366 139.398 350.366 140.065C350.366 140.712 350.305 141.286 350.181 141.788C350.061 142.287 349.886 142.709 349.656 143.052C349.429 143.395 349.152 143.656 348.825 143.833C348.501 144.011 348.134 144.099 347.724 144.099C347.317 144.099 346.953 144.019 346.634 143.858C346.317 143.695 346.056 143.469 345.853 143.18C345.651 142.888 345.522 142.551 345.466 142.168H346.332C346.41 142.501 346.565 142.777 346.797 142.995C347.032 143.21 347.341 143.318 347.724 143.318C348.285 143.318 348.728 143.073 349.052 142.583C349.379 142.093 349.542 141.401 349.542 140.506H349.485C349.353 140.705 349.195 140.876 349.013 141.021C348.831 141.165 348.628 141.276 348.406 141.354C348.183 141.433 347.947 141.472 347.696 141.472C347.279 141.472 346.897 141.369 346.549 141.163C346.203 140.954 345.926 140.669 345.718 140.307C345.512 139.942 345.409 139.526 345.409 139.057C345.409 138.612 345.508 138.205 345.707 137.835C345.908 137.464 346.19 137.168 346.552 136.947C346.917 136.727 347.345 136.621 347.838 136.628ZM347.838 137.409C347.539 137.409 347.271 137.484 347.032 137.633C346.795 137.78 346.607 137.978 346.467 138.229C346.33 138.478 346.261 138.754 346.261 139.057C346.261 139.36 346.327 139.636 346.46 139.884C346.595 140.13 346.778 140.327 347.01 140.474C347.245 140.618 347.511 140.69 347.809 140.69C348.034 140.69 348.244 140.647 348.438 140.559C348.632 140.469 348.801 140.347 348.946 140.193C349.092 140.037 349.207 139.861 349.29 139.664C349.373 139.465 349.414 139.258 349.414 139.043C349.414 138.759 349.346 138.492 349.208 138.244C349.074 137.995 348.886 137.794 348.647 137.64C348.411 137.486 348.141 137.409 347.838 137.409ZM352.088 143.07C351.912 143.07 351.762 143.007 351.637 142.881C351.511 142.756 351.448 142.606 351.448 142.43C351.448 142.255 351.511 142.105 351.637 141.979C351.762 141.854 351.912 141.791 352.088 141.791C352.263 141.791 352.413 141.854 352.539 141.979C352.664 142.105 352.727 142.255 352.727 142.43C352.727 142.546 352.697 142.653 352.638 142.75C352.581 142.847 352.504 142.925 352.407 142.984C352.313 143.041 352.206 143.07 352.088 143.07ZM352.088 139.391C351.912 139.391 351.762 139.328 351.637 139.202C351.511 139.077 351.448 138.927 351.448 138.751C351.448 138.576 351.511 138.426 351.637 138.3C351.762 138.175 351.912 138.112 352.088 138.112C352.263 138.112 352.413 138.175 352.539 138.3C352.664 138.426 352.727 138.576 352.727 138.751C352.727 138.867 352.697 138.974 352.638 139.071C352.581 139.168 352.504 139.246 352.407 139.305C352.313 139.362 352.206 139.391 352.088 139.391ZM356.289 144.099C355.754 144.099 355.298 143.954 354.921 143.663C354.545 143.369 354.257 142.944 354.059 142.388C353.86 141.829 353.76 141.154 353.76 140.364C353.76 139.578 353.86 138.906 354.059 138.35C354.26 137.791 354.549 137.365 354.925 137.072C355.304 136.776 355.758 136.628 356.289 136.628C356.819 136.628 357.272 136.776 357.649 137.072C358.028 137.365 358.316 137.791 358.515 138.35C358.716 138.906 358.817 139.578 358.817 140.364C358.817 141.154 358.718 141.829 358.519 142.388C358.32 142.944 358.032 143.369 357.656 143.663C357.279 143.954 356.824 144.099 356.289 144.099ZM356.289 143.318C356.819 143.318 357.231 143.062 357.524 142.551C357.818 142.04 357.965 141.311 357.965 140.364C357.965 139.734 357.897 139.198 357.762 138.755C357.63 138.312 357.438 137.975 357.187 137.743C356.939 137.511 356.639 137.395 356.289 137.395C355.763 137.395 355.352 137.654 355.056 138.173C354.76 138.689 354.613 139.419 354.613 140.364C354.613 140.993 354.679 141.528 354.811 141.969C354.944 142.409 355.135 142.744 355.383 142.974C355.634 143.203 355.936 143.318 356.289 143.318ZM362.239 144.099C361.704 144.099 361.248 143.954 360.871 143.663C360.495 143.369 360.207 142.944 360.009 142.388C359.81 141.829 359.71 141.154 359.71 140.364C359.71 139.578 359.81 138.906 360.009 138.35C360.21 137.791 360.499 137.365 360.875 137.072C361.254 136.776 361.708 136.628 362.239 136.628C362.769 136.628 363.222 136.776 363.599 137.072C363.978 137.365 364.266 137.791 364.465 138.35C364.666 138.906 364.767 139.578 364.767 140.364C364.767 141.154 364.668 141.829 364.469 142.388C364.27 142.944 363.982 143.369 363.606 143.663C363.229 143.954 362.774 144.099 362.239 144.099ZM362.239 143.318C362.769 143.318 363.181 143.062 363.474 142.551C363.768 142.04 363.915 141.311 363.915 140.364C363.915 139.734 363.847 139.198 363.712 138.755C363.58 138.312 363.388 137.975 363.137 137.743C362.889 137.511 362.589 137.395 362.239 137.395C361.713 137.395 361.302 137.654 361.006 138.173C360.711 138.689 360.563 139.419 360.563 140.364C360.563 140.993 360.629 141.528 360.761 141.969C360.894 142.409 361.085 142.744 361.333 142.974C361.584 143.203 361.886 143.318 362.239 143.318ZM368.755 144H367.832L370.502 136.727H371.411L374.082 144H373.159L370.985 137.878H370.928L368.755 144ZM369.096 141.159H372.818V141.94H369.096V141.159ZM374.915 136.727H375.966L378.437 142.764H378.523L380.994 136.727H382.045V144H381.221V138.474H381.15L378.878 144H378.082L375.81 138.474H375.739V144H374.915V136.727ZM421.199 144V136.727H423.656C424.224 136.727 424.691 136.824 425.055 137.018C425.42 137.21 425.69 137.474 425.865 137.81C426.04 138.147 426.128 138.529 426.128 138.957C426.128 139.386 426.04 139.766 425.865 140.097C425.69 140.429 425.421 140.689 425.059 140.879C424.697 141.066 424.234 141.159 423.67 141.159H421.682V140.364H423.642C424.03 140.364 424.343 140.307 424.579 140.193C424.818 140.08 424.991 139.919 425.098 139.71C425.207 139.5 425.261 139.249 425.261 138.957C425.261 138.666 425.207 138.412 425.098 138.194C424.989 137.976 424.815 137.808 424.576 137.69C424.337 137.569 424.021 137.509 423.628 137.509H422.079V144H421.199ZM424.622 140.733L426.412 144H425.389L423.628 140.733H424.622ZM429.41 144.114C428.884 144.114 428.431 143.998 428.05 143.766C427.671 143.531 427.379 143.205 427.173 142.786C426.969 142.364 426.867 141.874 426.867 141.315C426.867 140.757 426.969 140.264 427.173 139.838C427.379 139.41 427.665 139.076 428.032 138.837C428.401 138.595 428.832 138.474 429.325 138.474C429.609 138.474 429.889 138.522 430.166 138.616C430.443 138.711 430.695 138.865 430.923 139.078C431.15 139.289 431.331 139.568 431.466 139.916C431.601 140.264 431.668 140.693 431.668 141.202V141.557H427.464V140.832H430.816C430.816 140.525 430.755 140.25 430.631 140.009C430.511 139.767 430.338 139.576 430.113 139.437C429.89 139.297 429.628 139.227 429.325 139.227C428.991 139.227 428.702 139.31 428.458 139.476C428.217 139.639 428.031 139.852 427.901 140.115C427.77 140.378 427.705 140.66 427.705 140.96V141.443C427.705 141.855 427.776 142.204 427.918 142.491C428.063 142.775 428.263 142.991 428.519 143.141C428.774 143.287 429.071 143.361 429.41 143.361C429.63 143.361 429.829 143.33 430.006 143.268C430.186 143.205 430.341 143.11 430.472 142.984C430.602 142.857 430.702 142.698 430.773 142.509L431.583 142.736C431.498 143.01 431.355 143.252 431.153 143.46C430.952 143.666 430.704 143.827 430.408 143.943C430.112 144.057 429.779 144.114 429.41 144.114ZM435.015 138.545V139.256H432.189V138.545H435.015ZM433.013 137.239H433.851V142.438C433.851 142.674 433.885 142.852 433.954 142.97C434.025 143.086 434.115 143.164 434.223 143.205C434.335 143.242 434.452 143.261 434.575 143.261C434.667 143.261 434.743 143.257 434.802 143.247C434.861 143.235 434.909 143.226 434.944 143.219L435.115 143.972C435.058 143.993 434.979 144.014 434.877 144.036C434.775 144.059 434.646 144.071 434.49 144.071C434.253 144.071 434.021 144.02 433.794 143.918C433.569 143.817 433.382 143.661 433.233 143.453C433.086 143.245 433.013 142.982 433.013 142.665V137.239ZM437.581 144.128C437.235 144.128 436.922 144.063 436.64 143.933C436.358 143.8 436.135 143.609 435.969 143.361C435.803 143.11 435.72 142.807 435.72 142.452C435.72 142.139 435.782 141.886 435.905 141.692C436.028 141.495 436.193 141.341 436.399 141.23C436.605 141.119 436.832 141.036 437.08 140.982C437.331 140.925 437.584 140.88 437.837 140.847C438.168 140.804 438.437 140.772 438.643 140.751C438.851 140.727 439.003 140.688 439.097 140.634C439.195 140.579 439.243 140.484 439.243 140.349V140.321C439.243 139.971 439.147 139.698 438.955 139.504C438.766 139.31 438.478 139.213 438.093 139.213C437.692 139.213 437.379 139.301 437.151 139.476C436.924 139.651 436.764 139.838 436.672 140.037L435.877 139.753C436.019 139.421 436.208 139.163 436.445 138.979C436.684 138.792 436.944 138.661 437.226 138.588C437.51 138.512 437.789 138.474 438.064 138.474C438.239 138.474 438.441 138.496 438.668 138.538C438.897 138.579 439.119 138.663 439.332 138.79C439.547 138.918 439.726 139.111 439.868 139.369C440.01 139.627 440.081 139.973 440.081 140.406V144H439.243V143.261H439.2C439.144 143.38 439.049 143.506 438.916 143.641C438.784 143.776 438.607 143.891 438.387 143.986C438.167 144.08 437.898 144.128 437.581 144.128ZM437.709 143.375C438.04 143.375 438.32 143.31 438.547 143.18C438.777 143.049 438.95 142.881 439.066 142.675C439.184 142.469 439.243 142.253 439.243 142.026V141.259C439.208 141.301 439.129 141.34 439.009 141.376C438.89 141.409 438.753 141.438 438.597 141.464C438.443 141.488 438.293 141.509 438.146 141.528C438.001 141.545 437.884 141.559 437.794 141.571C437.576 141.599 437.373 141.646 437.183 141.71C436.996 141.771 436.845 141.865 436.729 141.99C436.615 142.113 436.558 142.281 436.558 142.494C436.558 142.786 436.666 143.006 436.882 143.155C437.099 143.302 437.375 143.375 437.709 143.375ZM441.311 144V138.545H442.149V144H441.311ZM441.737 137.636C441.574 137.636 441.433 137.581 441.314 137.469C441.198 137.358 441.14 137.224 441.14 137.068C441.14 136.912 441.198 136.778 441.314 136.667C441.433 136.556 441.574 136.5 441.737 136.5C441.9 136.5 442.04 136.556 442.156 136.667C442.274 136.778 442.334 136.912 442.334 137.068C442.334 137.224 442.274 137.358 442.156 137.469C442.04 137.581 441.9 137.636 441.737 137.636ZM444.222 140.719V144H443.384V138.545H444.193V139.398H444.265C444.392 139.121 444.586 138.898 444.847 138.73C445.107 138.56 445.443 138.474 445.855 138.474C446.225 138.474 446.548 138.55 446.825 138.702C447.102 138.851 447.317 139.078 447.471 139.384C447.625 139.687 447.702 140.07 447.702 140.534V144H446.864V140.591C446.864 140.162 446.753 139.829 446.53 139.589C446.308 139.348 446.002 139.227 445.614 139.227C445.346 139.227 445.107 139.285 444.897 139.401C444.688 139.517 444.524 139.687 444.403 139.909C444.282 140.132 444.222 140.402 444.222 140.719ZM451.22 144.114C450.695 144.114 450.241 143.998 449.86 143.766C449.482 143.531 449.189 143.205 448.983 142.786C448.78 142.364 448.678 141.874 448.678 141.315C448.678 140.757 448.78 140.264 448.983 139.838C449.189 139.41 449.476 139.076 449.843 138.837C450.212 138.595 450.643 138.474 451.135 138.474C451.419 138.474 451.7 138.522 451.977 138.616C452.254 138.711 452.506 138.865 452.733 139.078C452.96 139.289 453.142 139.568 453.276 139.916C453.411 140.264 453.479 140.693 453.479 141.202V141.557H449.274V140.832H452.627C452.627 140.525 452.565 140.25 452.442 140.009C452.321 139.767 452.148 139.576 451.924 139.437C451.701 139.297 451.438 139.227 451.135 139.227C450.801 139.227 450.513 139.31 450.269 139.476C450.027 139.639 449.841 139.852 449.711 140.115C449.581 140.378 449.516 140.66 449.516 140.96V141.443C449.516 141.855 449.587 142.204 449.729 142.491C449.873 142.775 450.073 142.991 450.329 143.141C450.585 143.287 450.882 143.361 451.22 143.361C451.441 143.361 451.639 143.33 451.817 143.268C451.997 143.205 452.152 143.11 452.282 142.984C452.412 142.857 452.513 142.698 452.584 142.509L453.394 142.736C453.308 143.01 453.165 143.252 452.964 143.46C452.763 143.666 452.514 143.827 452.218 143.943C451.922 144.057 451.59 144.114 451.22 144.114ZM454.454 144V138.545H455.263V139.369H455.32C455.42 139.099 455.6 138.88 455.86 138.712C456.12 138.544 456.414 138.46 456.741 138.46C456.802 138.46 456.879 138.461 456.972 138.464C457.064 138.466 457.134 138.47 457.181 138.474V139.327C457.153 139.32 457.088 139.309 456.986 139.295C456.886 139.278 456.781 139.27 456.67 139.27C456.405 139.27 456.168 139.326 455.959 139.437C455.753 139.546 455.59 139.697 455.469 139.891C455.351 140.083 455.292 140.302 455.292 140.548V144H454.454Z" fill="url(#paint4_linear_1_298)"/>
<defs>
<linearGradient id="paint0_linear_1_298" x1="248.5" y1="0" x2="248.5" y2="198" gradientUnits="userSpaceOnUse">
<stop stop-color="white"/>
<stop offset="1" stop-color="white"/>
</linearGradient>
<linearGradient id="paint1_linear_1_298" x1="248.5" y1="0" x2="248.5" y2="198" gradientUnits="userSpaceOnUse">
<stop stop-color="#E9E9E9"/>
<stop offset="1" stop-color="white"/>
</linearGradient>
<linearGradient id="paint2_linear_1_298" x1="245.5" y1="95" x2="245.5" y2="184" gradientUnits="userSpaceOnUse">
<stop stop-color="#FDFDFD"/>
<stop offset="1" stop-color="white"/>
</linearGradient>
<linearGradient id="paint3_linear_1_298" x1="245.5" y1="95" x2="245.5" y2="184" gradientUnits="userSpaceOnUse">
<stop stop-color="#F2F2F2"/>
<stop offset="1" stop-color="white"/>
</linearGradient>
<linearGradient id="paint4_linear_1_298" x1="245.5" y1="110" x2="245.5" y2="146" gradientUnits="userSpaceOnUse">
<stop stop-color="#A1A1A1"/>
<stop offset="1" stop-color="white"/>
</linearGradient>
</defs>
</svg>
