<svg width="40" height="55" viewBox="0 0 40 55" fill="none" xmlns="http://www.w3.org/2000/svg">
<path d="M39.5176 26.9237L14.0601 54.4203C13.7903 54.7105 13.4342 54.9044 13.0455 54.9728C12.6568 55.0411 12.2566 54.9801 11.9053 54.799C11.5541 54.6179 11.2707 54.3266 11.0981 53.9689C10.9255 53.6113 10.8729 53.2067 10.9484 52.8163L14.2806 36.0136L1.18132 31.0551C0.899995 30.949 0.649119 30.7743 0.451105 30.5466C0.253091 30.319 0.114106 30.0454 0.0465668 29.7504C-0.0209723 29.4553 -0.0149615 29.148 0.0640618 28.8559C0.143085 28.5637 0.292659 28.2959 0.499422 28.0763L25.9569 0.579703C26.2267 0.289466 26.5828 0.0955596 26.9715 0.0272437C27.3602 -0.0410721 27.7604 0.0199095 28.1116 0.200986C28.4629 0.382063 28.7463 0.67341 28.9189 1.03106C29.0915 1.38872 29.1441 1.79327 29.0686 2.18367L25.7273 19.0047L38.8266 23.9564C39.1058 24.0632 39.3547 24.2377 39.5512 24.4644C39.7476 24.6912 39.8857 24.9633 39.9531 25.2566C40.0205 25.5499 40.0152 25.8555 39.9376 26.1462C39.8601 26.437 39.7127 26.704 39.5085 26.9237H39.5176Z" fill="#C9D9FF"/>
</svg>
