<svg width="62" height="35" viewBox="0 0 62 35" fill="none" xmlns="http://www.w3.org/2000/svg">
<path d="M58.4222 27.1462C60.2316 26.8919 61.5098 25.2121 61.0642 23.4401C59.3457 16.6052 55.3374 10.5234 49.6564 6.24245C43.0902 1.29451 34.8274 -0.842396 26.6857 0.301844C18.544 1.44608 11.1904 5.77774 6.2424 12.3439C1.96146 18.0249 -0.215235 24.9759 0.0167718 32.0197C0.0769223 33.8459 1.76861 35.1084 3.57801 34.8541C5.38742 34.5998 6.62425 32.9232 6.61703 31.0961C6.59611 25.7988 8.30278 20.6045 11.5268 16.326C15.4187 11.1614 21.2027 7.75429 27.6066 6.85428C34.0105 5.95428 40.5096 7.63507 45.6743 11.5269C49.9527 14.751 53.025 19.2736 54.4651 24.3715C54.9618 26.1299 56.6128 27.4005 58.4222 27.1462Z" fill="#C5D6FF"/>
</svg>
