<svg width="158" height="158" viewBox="0 0 158 158" fill="none" xmlns="http://www.w3.org/2000/svg">
<g filter="url(#filter0_d_1_368)">
<rect x="98.8827" y="16.8619" width="68.846" height="68.846" rx="20.3437" transform="rotate(78.7441 98.8827 16.8619)" fill="white"/>
</g>
<g clip-path="url(#clip0_1_368)">
<path d="M82.2783 43.1439C79.8045 42.5924 77.226 42.3478 74.6071 42.4522C74.5593 42.4536 74.5179 42.4845 74.5032 42.5316C74.3108 43.1507 74.1209 43.9451 74.0012 44.5633C71.1977 44.7379 68.4952 45.3163 65.9215 46.2924C65.5566 45.7648 65.0484 45.1329 64.6181 44.6472C64.5857 44.6116 64.5353 44.6004 64.4908 44.6172C62.0596 45.5922 59.807 46.8706 57.7746 48.388C57.7569 48.4006 57.7432 48.4182 57.736 48.4388C54.6191 56.2644 54.7929 63.2098 56.8198 69.672C56.8295 69.7037 56.8542 69.7307 56.8835 69.7449C60.3815 71.3179 63.5982 72.039 66.6632 72.3172C66.7122 72.3214 66.7573 72.2942 66.7785 72.25C67.2596 71.1762 67.6561 70.0676 67.9554 68.9271C67.9731 68.8602 67.9285 68.795 67.8608 68.7845C66.8215 68.6256 65.8111 68.3769 64.8227 68.0605C64.7444 68.0347 64.7175 67.9363 64.7713 67.8749C64.9269 67.6965 65.0813 67.5123 65.227 67.3286C65.2533 67.2952 65.2967 67.28 65.3379 67.2888C71.687 68.6917 77.9487 67.3516 83.0992 63.4876C83.133 63.4613 83.1788 63.4574 83.2179 63.4769C83.426 63.5849 83.6425 63.6911 83.8589 63.79C83.9332 63.8239 83.9503 63.9244 83.8894 63.98C83.1191 64.6831 82.2969 65.3137 81.412 65.8829C81.3545 65.9202 81.3422 65.9991 81.3858 66.0528C82.1365 66.9671 82.9519 67.8163 83.8179 68.6019C83.8542 68.6352 83.9079 68.6413 83.9509 68.6174C86.6475 67.1061 89.2872 65.1317 91.8351 62.2648C91.8573 62.2396 91.8678 62.2065 91.8636 62.1737C90.969 54.3925 87.5807 48.1924 82.3332 43.1761C82.3193 43.1586 82.2996 43.1481 82.2783 43.1439ZM67.6246 63.1607C65.8832 63.5334 64.1063 62.2418 63.6861 60.2784C63.2659 58.315 64.3307 56.4152 66.0999 56.0366C67.883 55.655 69.6491 56.9636 70.0384 58.9189C70.4586 60.8823 69.3937 62.7821 67.6246 63.1607ZM79.3679 60.6475C77.6266 61.0201 75.8497 59.7285 75.4295 57.7652C75.0093 55.8018 76.0741 53.902 77.8433 53.5234C79.6264 53.1418 81.3924 54.4504 81.7818 56.4057C82.202 58.369 81.151 60.2659 79.3679 60.6475Z" fill="#131925"/>
</g>
<defs>
<filter id="filter0_d_1_368" x="1.90735e-06" y="-5.72205e-06" width="157.804" height="157.804" filterUnits="userSpaceOnUse" color-interpolation-filters="sRGB">
<feFlood flood-opacity="0" result="BackgroundImageFix"/>
<feColorMatrix in="SourceAlpha" type="matrix" values="0 0 0 0 0 0 0 0 0 0 0 0 0 0 0 0 0 0 127 0" result="hardAlpha"/>
<feOffset dx="7.06113" dy="21.5601"/>
<feGaussianBlur stdDeviation="21.0971"/>
<feComposite in2="hardAlpha" operator="out"/>
<feColorMatrix type="matrix" values="0 0 0 0 0.599667 0 0 0 0 0.621995 0 0 0 0 0.663462 0 0 0 0.19 0"/>
<feBlend mode="normal" in2="BackgroundImageFix" result="effect1_dropShadow_1_368"/>
<feBlend mode="normal" in="SourceGraphic" in2="effect1_dropShadow_1_368" result="shape"/>
</filter>
<clipPath id="clip0_1_368">
<rect width="36.142" height="36.142" fill="white" transform="translate(51.0504 43.4273) rotate(-12.0798)"/>
</clipPath>
</defs>
</svg>
