<svg width="165" height="165" viewBox="0 0 165 165" fill="none" xmlns="http://www.w3.org/2000/svg">
<g filter="url(#filter0_d_1_378)">
<rect width="69.0334" height="69.0334" rx="20.399" transform="matrix(-0.829835 -0.558009 -0.558009 0.829835 123.125 51.2999)" fill="white"/>
</g>
<path d="M72.3192 36.4884L90.991 47.391C93.3023 48.703 93.7779 49.2149 94.4647 51.1542L97.3991 59.0397C97.8638 60.3675 98.0482 60.7699 97.5343 61.518L82.5094 83.3892C81.568 84.7595 80.5104 85.2266 78.68 84.1523L57.184 71.2189C55.8317 70.3805 55.3358 69.7661 55.2487 68.422L54.7946 60.1288C54.7301 58.617 54.9326 57.657 55.5329 56.7832L68.8884 37.3421C69.6578 36.2221 70.7996 35.6296 72.3173 36.491L72.3192 36.4884Z" fill="white"/>
<path fill-rule="evenodd" clip-rule="evenodd" d="M90.9917 47.3902L72.318 36.4902C70.7989 35.6279 69.6585 36.2213 68.8891 37.3413L55.5336 56.7824C54.9333 57.6562 54.7307 58.6162 54.7952 60.128L55.2481 68.4203C55.3338 69.7635 55.8301 70.3801 57.1843 71.2159L78.6802 84.1492C80.5107 85.2235 81.5683 84.7564 82.5096 83.3861L97.5346 61.5149C98.0218 60.8057 97.8814 60.4079 97.4694 59.2385C97.4465 59.1715 97.4236 59.1046 97.3993 59.0367L94.4649 51.1511C93.7772 49.2132 93.3012 48.6991 90.9913 47.388L90.9917 47.3902ZM75.3628 45.7576C73.5986 44.7131 73.1997 44.4765 72.7757 43.0408L71.669 39.4363C71.5911 39.0164 71.9311 38.791 72.597 39.1578L90.54 49.6504C92.061 50.5101 92.4652 51.5245 92.7271 52.3446L94.2016 56.4775C94.2838 56.6246 94.3381 57.2135 93.9635 56.9561L75.5875 45.8922L75.3615 45.7567L75.3628 45.7576ZM58.2544 66.4497L71.0106 47.8811C71.5667 47.0715 72.0721 46.8691 72.8647 47.321L93.9441 60.0608C94.6742 60.4718 94.6863 61.1222 94.131 61.9305L81.4613 80.3732C80.9033 81.1855 80.3069 81.7843 79.1418 81.0745L58.9777 68.8748C57.8113 68.1642 57.5691 67.4502 58.2558 66.4506L58.2544 66.4497ZM89.4733 62.0299C89.2116 62.6775 88.702 63.1527 88.0945 62.8299L87.0327 62.3742L77.6163 76.0812C76.5044 75.9594 75.5853 75.6945 74.9617 75.2661C73.9635 74.5803 73.9278 74.0988 73.821 72.6486L74.3009 58.8555L67.9229 68.1398L69.5568 69.9044C69.5568 69.9044 68.7865 71.0258 67.2248 69.953L62.7516 67.2463C62.7968 66.911 63.351 66.3738 63.8727 66.5491L65.2087 67.0099L73.6432 54.7321L72.1707 53.5353C72.4314 52.8892 73.298 52.2928 74.2151 52.8302L79.0437 55.6904L78.7263 69.7804L84.6337 61.1812L83.1396 59.881C83.4854 59.1081 84.3275 58.9519 84.9924 59.3201L89.4693 62.0272L89.4733 62.0299Z" fill="#131925"/>
<defs>
<filter id="filter0_d_1_378" x="2.76566e-05" y="-9.53674e-06" width="164.603" height="164.603" filterUnits="userSpaceOnUse" color-interpolation-filters="sRGB">
<feFlood flood-opacity="0" result="BackgroundImageFix"/>
<feColorMatrix in="SourceAlpha" type="matrix" values="0 0 0 0 0 0 0 0 0 0 0 0 0 0 0 0 0 0 127 0" result="hardAlpha"/>
<feOffset dx="7.08035" dy="21.6188"/>
<feGaussianBlur stdDeviation="21.1545"/>
<feComposite in2="hardAlpha" operator="out"/>
<feColorMatrix type="matrix" values="0 0 0 0 0.599667 0 0 0 0 0.621995 0 0 0 0 0.663462 0 0 0 0.19 0"/>
<feBlend mode="normal" in2="BackgroundImageFix" result="effect1_dropShadow_1_378"/>
<feBlend mode="normal" in="SourceGraphic" in2="effect1_dropShadow_1_378" result="shape"/>
</filter>
</defs>
</svg>
