<svg width="113" height="133" viewBox="0 0 113 133" fill="none" xmlns="http://www.w3.org/2000/svg">
<g filter="url(#filter0_d_1_392)">
<rect width="56.0734" height="56.0734" rx="16.5694" transform="matrix(-0.881109 0.472913 0.472913 0.881109 72.1559 10.94)" fill="white"/>
</g>
<path d="M60.1405 38.3752C62.5535 36.7216 65.0516 35.6996 66.4829 35.5234C67.4481 35.4075 68.3825 35.5459 69.1443 35.7458C66.626 33.9786 63.5589 32.9401 60.2493 32.9401C56.9397 32.9401 53.6171 34.0661 51.0432 35.9705C51.1402 35.9066 53.7212 34.2779 60.1405 38.374" fill="#131925"/>
<path d="M75.7493 48.4409C75.7493 43.8456 73.7503 39.7186 70.5744 36.881C69.0438 36.8609 68.5588 37.3991 67.7746 37.9396C67.2743 38.2815 65.5118 39.9221 63.7458 41.5461C64.8707 42.8224 65.927 44.2394 67.2128 45.7452C69.4223 48.3309 72.9247 54.4344 72.2103 58.2975C74.4198 55.6184 75.7482 52.1834 75.7482 48.4397" fill="#131925"/>
<path d="M56.0005 42.0388C56.2027 41.7881 56.4145 41.542 56.6345 41.3043C54.626 39.4567 52.8766 37.8137 52.3869 37.6044C51.7186 37.3157 50.8054 36.7456 50.2708 36.5836C46.8949 39.4259 44.7493 43.683 44.7493 48.4427C44.7493 52.0658 45.9924 55.3967 48.0754 58.0344C47.3882 52.6324 53.1877 45.527 55.9993 42.0388" fill="#131925"/>
<path d="M60.3627 44.6235C60.3343 44.5998 60.3059 44.575 60.2763 44.5513C60.1947 44.6164 60.1154 44.6803 60.0457 44.7347C58.3045 46.0831 50.4978 54.169 49.4308 56.4164C48.8713 57.5945 48.8063 58.432 48.8713 58.9643C51.7019 62.0231 55.7519 63.9405 60.2503 63.9405C64.7486 63.9405 68.9832 61.9356 71.822 58.7525C71.8421 58.542 71.9048 56.802 69.0684 53.4392C66.0356 49.8446 63.4274 47.1938 60.3638 44.6223" fill="#131925"/>
<defs>
<filter id="filter0_d_1_392" x="-5.14984e-05" y="-4.57764e-05" width="132.925" height="132.925" filterUnits="userSpaceOnUse" color-interpolation-filters="sRGB">
<feFlood flood-opacity="0" result="BackgroundImageFix"/>
<feColorMatrix in="SourceAlpha" type="matrix" values="0 0 0 0 0 0 0 0 0 0 0 0 0 0 0 0 0 0 127 0" result="hardAlpha"/>
<feOffset dx="5.75112" dy="17.5602"/>
<feGaussianBlur stdDeviation="17.1831"/>
<feComposite in2="hardAlpha" operator="out"/>
<feColorMatrix type="matrix" values="0 0 0 0 0.599667 0 0 0 0 0.621995 0 0 0 0 0.663462 0 0 0 0.19 0"/>
<feBlend mode="normal" in2="BackgroundImageFix" result="effect1_dropShadow_1_392"/>
<feBlend mode="normal" in="SourceGraphic" in2="effect1_dropShadow_1_392" result="shape"/>
</filter>
</defs>
</svg>
